<?xml version="1.0" encoding="utf-8"?>
<svg viewBox="0 163.813 3300 1822.044" width="3300px" height="1822.044px" xmlns="http://www.w3.org/2000/svg">
  <g id="g8" transform="matrix(1.333333, 0, 0, -1.333333, 0, 2200)">
    <g id="g10" transform="scale(0.1)">
      <path d="M 24750 1606.071 L 0 1606.071 L 0 15271.401 L 24750 15271.401 L 24750 1606.071" style="fill: rgb(255, 255, 255); fill-opacity: 1; fill-rule: nonzero; stroke: none;" id="path12"/>
      <path d="m 2557.2,8091.72 9485.6,5598.68 36.1,19 38.9,16.1 41.5,13.4 43.7,10.5 45.4,7.7 46.8,4.9 47.9,2.3 48.5,-0.6 48.8,-3.3 48.8,-5.9 48.4,-8.7 47.5,-11.4 46.5,-14.1 44.8,-16.7 43,-19.3 40.7,-22 9390.3,-5542.49 70,-49.37 52.1,-53.92 34,-56.55 15.7,-57.63 -2.8,-56.89 -21.5,-54.44 -40.4,-50.29 -59.5,-44.29 -9485.6,-5598.73 -36,-19 -39.1,-16.1 -41.4,-13.3 -43.7,-10.5 -45.4,-7.8 -46.7,-4.9 -47.9,-2.2 -48.5,0.5 -48.9,3.3 -48.8,6 -48.3,8.7 -47.6,11.4 -46.4,14 -44.8,16.7 -43,19.3 -40.7,22 -9390.34,5542.49 -70.04,49.42 -52.1,53.86 -33.96,56.61 -15.71,57.61 2.84,56.92 21.47,54.43 40.39,50.29 59.45,44.29" style="fill:#e7ebe5;fill-opacity:1;fill-rule:evenodd;stroke:none" id="path14"/>
      <path d="m 21842.7,8110.12 v 438.5 l -20.5,-51.84 -38.5,-47.85 -56.6,-42.18 -9030.7,-5330.25 -34.4,-18.1 -37.1,-15.3 -39.5,-12.7 -41.5,-10 -43.3,-7.4 -44.5,-4.7 -45.6,-2.1 -46.2,0.5 -46.5,3.1 -46.4,5.7 -46.1,8.3 -45.3,10.9 -44.1,13.3 -42.7,15.9 -41,18.4 -38.7,21 -8940.13,5276.68 -66.66,47.03 -49.61,51.3 -32.33,53.87 -14.95,54.87 v -438.5 l 14.95,-54.87 32.33,-53.86 49.61,-51.3 66.66,-47.03 8940.13,-5276.69 38.7,-21 41,-18.4 42.7,-15.9 44.1,-13.3 45.3,-10.9 46.1,-8.2 46.4,-5.8 46.5,-3.1 46.2,-0.5 45.6,2.1 44.5,4.7 43.3,7.4 41.5,10 39.5,12.7 37.1,15.3 34.4,18.1 9030.7,5330.26 56.6,42.17 38.5,47.86 20.5,51.83" style="fill:#cee8f8;fill-opacity:1;fill-rule:evenodd;stroke:none" id="path16"/>
      <path d="m 3028.01,8783.09 9030.79,5330.31 34.4,18 37.1,15.4 39.5,12.7 41.6,10 43.1,7.4 44.6,4.7 45.6,2.1 46.2,-0.5 46.5,-3.1 46.5,-5.8 46,-8.3 45.3,-10.8 44.2,-13.3 42.7,-16 40.9,-18.3 38.7,-21 8940.1,-5276.75 66.6,-47.02 49.7,-51.31 32.3,-53.87 14.9,-54.86 -2.6,-54.17 -20.5,-51.84 -38.5,-47.85 -56.6,-42.18 -9030.7,-5330.25 -34.4,-18.1 -37.1,-15.3 -39.5,-12.7 -41.5,-10 -43.3,-7.4 -44.5,-4.7 -45.6,-2.1 -46.2,0.5 -46.5,3.1 -46.4,5.7 -46.1,8.3 -45.3,10.9 -44.1,13.3 -42.7,15.9 -41,18.4 -38.7,21 -8940.13,5276.68 -66.66,47.03 -49.61,51.3 -32.33,53.87 -14.95,54.87 2.69,54.17 20.45,51.83 38.46,47.86 56.59,42.18" style="fill:#e8f7fd;fill-opacity:1;fill-rule:evenodd;stroke:none" id="path18"/>
      <path d="m 3829.1,8435.15 c 17.98,-10.61 23.96,-33.85 13.36,-51.83 -10.6,-17.99 -33.85,-23.97 -51.83,-13.37 l -65.2,38.47 c -17.98,10.61 -23.96,33.84 -13.36,51.84 10.61,17.97 33.85,23.96 51.83,13.35 z m 260.82,-153.91 c 17.98,-10.59 23.96,-33.84 13.35,-51.82 -10.59,-17.99 -33.84,-23.97 -51.82,-13.37 l -65.2,38.47 c -17.98,10.6 -23.96,33.84 -13.36,51.83 10.59,17.98 33.85,23.96 51.82,13.36 l 65.21,-38.47 z m 260.8,-153.9 c 17.99,-10.59 23.98,-33.84 13.37,-51.82 -10.6,-17.99 -33.84,-23.96 -51.83,-13.37 l -65.19,38.46 c -17.98,10.61 -23.96,33.85 -13.36,51.84 10.59,17.98 33.84,23.96 51.82,13.36 l 65.19,-38.47 z m 260.82,-153.89 c 17.99,-10.6 23.98,-33.86 13.37,-51.83 -10.6,-17.98 -33.84,-23.96 -51.83,-13.37 l -65.19,38.46 c -17.98,10.61 -23.97,33.86 -13.37,51.84 10.6,17.97 33.85,23.96 51.83,13.37 l 65.19,-38.47 z m 260.82,-153.9 c 17.99,-10.61 23.98,-33.85 13.37,-51.84 -10.6,-17.97 -33.84,-23.96 -51.83,-13.35 l -65.2,38.46 c -17.99,10.59 -23.96,33.85 -13.37,51.82 10.61,18 33.85,23.98 51.84,13.37 l 65.19,-38.46 z m 260.82,-153.9 c 17.99,-10.61 23.96,-33.85 13.37,-51.84 -10.61,-17.98 -33.85,-23.96 -51.84,-13.36 l -65.19,38.47 c -17.99,10.59 -23.97,33.84 -13.37,51.82 10.61,17.99 33.85,23.98 51.84,13.37 l 65.19,-38.46 z M 5394,7511.7 c 17.98,-10.59 23.96,-33.84 13.37,-51.82 -10.61,-17.99 -33.86,-23.97 -51.84,-13.37 l -65.19,38.47 c -17.99,10.6 -23.97,33.84 -13.37,51.83 10.61,17.98 33.85,23.96 51.84,13.36 L 5394,7511.7 Z m 260.82,-153.93 c 17.97,-10.6 23.96,-33.85 13.35,-51.83 -10.59,-17.98 -33.84,-23.96 -51.82,-13.37 l -65.19,38.46 c -17.99,10.61 -23.97,33.86 -13.37,51.84 10.6,17.98 33.84,23.96 51.84,13.37 l 65.19,-38.47 z m 260.82,-153.94 c 17.97,-10.6 23.96,-33.84 13.35,-51.83 -10.59,-17.98 -33.84,-23.97 -51.82,-13.36 l -65.21,38.47 c -17.97,10.59 -23.96,33.84 -13.35,51.82 10.6,17.99 33.84,23.97 51.82,13.37 l 65.21,-38.47 z m 260.81,-153.94 c 17.98,-10.59 23.96,-33.85 13.36,-51.82 -10.59,-17.99 -33.84,-23.98 -51.82,-13.37 l -65.21,38.46 c -17.97,10.61 -23.96,33.85 -13.35,51.84 10.59,17.97 33.84,23.96 51.82,13.35 l 65.2,-38.46 z m 260.81,-153.93 c 17.99,-10.61 23.97,-33.86 13.37,-51.84 -10.61,-17.97 -33.85,-23.96 -51.84,-13.37 l -65.19,38.47 c -17.98,10.6 -23.96,33.86 -13.35,51.83 10.59,17.98 33.84,23.97 51.82,13.37 l 65.19,-38.46 z m 260.82,-153.94 c 17.99,-10.61 23.97,-33.85 13.37,-51.84 -10.61,-17.98 -33.85,-23.96 -51.84,-13.36 l -65.19,38.47 c -17.98,10.59 -23.96,33.84 -13.37,51.82 10.61,17.99 33.86,23.98 51.84,13.37 l 65.19,-38.46 z m 260.82,-153.95 c 17.99,-10.59 23.97,-33.84 13.37,-51.82 -10.61,-17.99 -33.85,-23.97 -51.84,-13.37 l -65.19,38.47 c -17.99,10.6 -23.96,33.84 -13.37,51.83 10.6,17.98 33.84,23.96 51.83,13.36 l 65.2,-38.47 z m 260.81,-153.97 c 18,-10.6 23.97,-33.8 13.37,-51.8 -10.6,-18 -33.84,-24 -51.83,-13.4 l -65.19,38.5 c -17.99,10.6 -23.98,33.9 -13.37,51.8 10.6,18 33.84,24 51.83,13.4 l 65.19,-38.5 z m 260.82,-153.9 c 17.98,-10.6 23.96,-33.8 13.37,-51.8 -10.6,-18 -33.85,-24 -51.83,-13.4 l -65.19,38.5 c -17.99,10.6 -23.98,33.8 -13.37,51.8 10.6,18 33.84,24 51.83,13.4 l 65.19,-38.5 z m 260.82,-153.9 c 17.98,-10.6 23.96,-33.8 13.36,-51.8 -10.59,-18 -33.85,-24 -51.82,-13.4 l -65.2,38.5 c -17.99,10.6 -23.97,33.8 -13.36,51.8 10.6,17.9 33.84,23.9 51.83,13.3 l 65.19,-38.4 z m 260.82,-153.9 c 17.98,-10.6 23.96,-33.9 13.36,-51.9 -10.59,-18 -33.85,-23.9 -51.83,-13.3 l -65.2,38.4 c -17.98,10.6 -23.96,33.9 -13.36,51.9 10.61,17.9 33.85,23.9 51.83,13.3 l 65.2,-38.4 z m 260.82,-154 c 17.98,-10.6 23.96,-33.8 13.36,-51.8 -10.61,-18 -33.85,-24 -51.83,-13.4 l -65.2,38.5 c -17.98,10.6 -23.96,33.8 -13.36,51.8 10.59,18 33.85,24 51.82,13.4 l 65.21,-38.5 z m 260.8,-153.9 c 17.99,-10.6 23.98,-33.9 13.37,-51.9 -10.6,-17.9 -33.84,-23.9 -51.83,-13.3 l -65.19,38.5 c -17.98,10.6 -23.96,33.8 -13.36,51.8 10.59,18 33.85,24 51.82,13.3 l 65.19,-38.4 z m 260.82,-154 c 17.99,-10.6 23.98,-33.8 13.37,-51.8 -10.6,-18 -33.84,-24 -51.83,-13.4 l -65.19,38.5 c -17.98,10.6 -23.97,33.9 -13.37,51.8 10.6,18 33.85,24 51.83,13.4 l 65.19,-38.5 z m 260.82,-153.9 c 17.99,-10.6 23.98,-33.8 13.37,-51.8 -10.6,-18 -33.84,-24 -51.83,-13.4 l -65.2,38.5 c -17.99,10.6 -23.96,33.8 -13.36,51.8 10.6,18 33.84,24 51.83,13.4 l 65.19,-38.5 z m 260.82,-153.9 c 17.99,-10.6 23.96,-33.9 13.37,-51.9 -10.61,-17.9 -33.84,-23.9 -51.84,-13.3 l -65.19,38.4 c -17.99,10.6 -23.97,33.9 -13.37,51.9 10.61,18 33.85,23.9 51.84,13.3 l 65.19,-38.4 z m 260.82,-154 c 17.98,-10.6 23.96,-33.8 13.37,-51.8 -10.61,-18 -33.86,-24 -51.84,-13.4 l -65.19,38.5 c -17.99,10.6 -23.97,33.8 -13.37,51.8 10.61,18 33.85,24 51.84,13.4 l 65.19,-38.5 z m 260.82,-153.9 c 17.97,-10.6 23.96,-33.8 13.35,-51.8 -10.59,-18 -33.84,-24 -51.82,-13.4 l -65.19,38.5 c -17.99,10.6 -23.97,33.8 -13.37,51.8 10.61,18 33.85,24 51.84,13.4 l 65.19,-38.5 z m 260.81,-154 c 18,-10.6 24,-33.9 13.4,-51.8 -10.6,-18 -33.8,-24 -51.8,-13.4 l -65.22,38.5 c -17.98,10.6 -23.97,33.8 -13.36,51.8 10.59,18 33.88,24 51.78,13.4 l 65.2,-38.5 z m 260.9,-154 c 18,-10.6 24,-33.9 13.4,-51.9 -10.6,-17.9 -33.9,-23.9 -51.9,-13.3 l -65.2,38.5 c -17.9,10.6 -23.9,33.8 -13.3,51.8 10.6,18 33.8,24 51.8,13.4 l 65.2,-38.5 z m 260.8,-154 c 18,-10.7 24,-33.9 13.4,-51.9 -10.6,-18 -33.8,-23.9 -51.8,-13.3 l -65.2,38.5 c -18,10.6 -24,33.8 -13.4,51.8 10.6,18 33.9,24 51.9,13.4 l 65.1,-38.5 z m 260.9,-154.1 c 18,-10.6 24,-33.8 13.4,-51.8 -10.6,-18 -33.9,-24 -51.9,-13.4 l -65.2,38.5 c -17.9,10.7 -23.9,33.9 -13.3,51.9 10.6,18 33.8,23.9 51.8,13.3 l 65.2,-38.5 z m 260.9,-154 c 17.9,-10.6 23.9,-33.8 13.3,-51.8 -10.6,-18 -33.8,-24 -51.8,-13.4 l -65.2,38.5 c -18,10.6 -24,33.9 -13.4,51.9 10.6,17.9 33.9,23.9 51.9,13.3 l 65.2,-38.5 z m 260.8,-154 c 18,-10.6 24,-33.8 13.4,-51.8 -10.6,-18 -33.9,-24 -51.9,-13.4 l -65.1,38.5 c -18,10.6 -24,33.9 -13.4,51.8 10.6,18 33.8,24 51.8,13.4 l 65.2,-38.5 z m 260.9,-154 c 18,-10.6 24,-33.9 13.4,-51.8 -10.6,-18 -33.9,-24 -51.9,-13.4 l -65.2,38.5 c -18,10.6 -24,33.8 -13.4,51.8 10.6,18 33.9,24 51.9,13.4 l 65.2,-38.5 z m 260.9,-154 c 18,-10.6 24,-33.9 13.4,-51.9 -10.6,-17.9 -33.9,-23.9 -51.8,-13.3 l -65.3,38.5 c -18,10.6 -23.9,33.8 -13.3,51.8 10.6,18 33.8,24 51.8,13.4 l 65.2,-38.5 z m 261,-154 c 18,-10.6 23.9,-33.9 13.3,-51.9 -10.6,-17.9 -33.8,-23.9 -51.8,-13.3 l -65.2,38.5 c -18,10.6 -24,33.8 -13.4,51.8 10.6,18 33.9,24 51.8,13.4 l 65.3,-38.5 z m 263.7,-68.1 c 20.7,2.1 39.4,-12.9 41.6,-33.7 2.2,-20.8 -12.9,-39.5 -33.7,-41.7 l -17.1,-1.8 h -0.7 l -1.5,-0.1 -21.7,-1 -1,-0.1 h -0.5 -1.7 l -23.9,0.2 -2.2,0.1 -11.8,0.9 c -20.8,1.4 -36.6,19.4 -35.2,40.3 1.4,20.8 19.4,36.6 40.3,35.2 l 10.9,-0.7 21.6,-0.3 20.2,1 16.4,1.7 z m 251.5,133.9 c 18,10.6 41.2,4.6 51.8,-13.4 10.6,-18 4.6,-41.2 -13.4,-51.8 l -65.2,-38.5 c -17.9,-10.6 -41.2,-4.6 -51.8,13.4 -10.6,18 -4.6,41.2 13.4,51.8 l 65.2,38.5 z m 260.8,153.9 c 18,10.6 41.2,4.6 51.8,-13.4 10.6,-18 4.6,-41.2 -13.4,-51.8 l -65.1,-38.5 c -18,-10.6 -41.3,-4.6 -51.9,13.4 -10.6,18 -4.6,41.2 13.4,51.8 l 65.2,38.5 z m 260.8,153.9 c 18,10.6 41.2,4.6 51.8,-13.4 10.6,-18 4.6,-41.2 -13.3,-51.8 l -65.2,-38.5 c -18,-10.6 -41.3,-4.6 -51.9,13.4 -10.6,18 -4.6,41.2 13.4,51.8 l 65.2,38.5 z m 260.8,153.9 c 18,10.6 41.2,4.6 51.8,-13.4 10.6,-18 4.7,-41.2 -13.3,-51.8 l -65.2,-38.5 c -18,-10.6 -41.2,-4.6 -51.8,13.4 -10.6,18 -4.7,41.2 13.3,51.8 l 65.2,38.5 z m 260.8,153.9 c 18,10.6 41.3,4.6 51.9,-13.4 10.6,-18 4.6,-41.2 -13.4,-51.8 l -65.2,-38.5 c -18,-10.6 -41.2,-4.6 -51.8,13.4 -10.6,18 -4.6,41.2 13.3,51.8 l 65.2,38.5 z m 260.9,153.9 c 17.9,10.6 41.2,4.6 51.8,-13.4 10.6,-18 4.6,-41.2 -13.4,-51.8 l -65.2,-38.5 c -18,-10.6 -41.2,-4.6 -51.8,13.4 -10.6,18 -4.6,41.2 13.3,51.8 l 65.3,38.5 z m 260.8,153.9 c 18,10.6 41.2,4.6 51.8,-13.4 10.6,-17.9 4.6,-41.2 -13.4,-51.8 l -65.2,-38.5 c -17.9,-10.6 -41.2,-4.6 -51.8,13.4 -10.6,18 -4.6,41.2 13.4,51.8 l 65.2,38.5 z m 260.8,153.9 c 18,10.7 41.2,4.7 51.8,-13.3 10.6,-18 4.6,-41.3 -13.4,-51.8 l -65.1,-38.5 c -18,-10.6 -41.3,-4.6 -51.9,13.3 -10.6,18 -4.6,41.3 13.4,51.9 l 65.2,38.4 z m 260.8,154 c 18,10.6 41.2,4.6 51.8,-13.4 10.6,-18 4.7,-41.2 -13.3,-51.8 l -65.2,-38.5 c -18,-10.6 -41.3,-4.6 -51.9,13.4 -10.6,18 -4.6,41.2 13.4,51.8 l 65.2,38.5 z m 260.8,153.9 c 18,10.6 41.2,4.6 51.9,-13.3 10.5,-18 4.6,-41.3 -13.4,-51.9 l -65.2,-38.4 c -18,-10.6 -41.2,-4.7 -51.8,13.3 -10.7,18 -4.7,41.2 13.3,51.9 l 65.2,38.4 z m 260.8,154 c 18,10.6 41.3,4.6 51.9,-13.4 10.6,-18 4.6,-41.2 -13.4,-51.8 l -65.2,-38.5 c -18,-10.6 -41.2,-4.6 -51.8,13.4 -10.6,18 -4.6,41.2 13.3,51.8 l 65.2,38.5 z m 260.9,153.9 c 17.9,10.6 41.2,4.6 51.8,-13.4 10.6,-18 4.6,-41.2 -13.4,-51.8 l -65.2,-38.5 c -18,-10.6 -41.2,-4.6 -51.8,13.4 -10.6,18 -4.6,41.2 13.4,51.8 l 65.2,38.5 z m 260.8,153.9 c 17.9,10.6 41.2,4.7 51.8,-13.3 10.6,-18 4.6,-41.3 -13.4,-51.9 l -65.2,-38.4 c -17.9,-10.6 -41.2,-4.6 -51.8,13.3 -10.6,18 -4.6,41.3 13.4,51.9 l 65.2,38.4 z m 260.8,154 c 18,10.6 41.2,4.6 51.8,-13.4 10.6,-18 4.6,-41.2 -13.3,-51.8 l -65.3,-38.5 c -17.9,-10.6 -41.2,-4.6 -51.8,13.4 -10.6,18 -4.6,41.2 13.4,51.8 l 65.2,38.5 z m 260.8,153.9 c 18,10.6 41.2,4.6 51.8,-13.3 10.6,-18 4.7,-41.3 -13.3,-51.9 l -65.2,-38.5 c -18,-10.5 -41.3,-4.6 -51.9,13.4 -10.6,18 -4.6,41.3 13.4,51.9 l 65.2,38.4 z m 260.8,153.9 c 18,10.7 41.2,4.7 51.8,-13.3 10.7,-18 4.7,-41.2 -13.3,-51.8 l -65.2,-38.5 c -18,-10.6 -41.2,-4.6 -51.8,13.4 -10.6,17.9 -4.7,41.2 13.3,51.8 l 65.2,38.4 z m 260.8,154 c 18,10.6 41.3,4.6 51.9,-13.4 10.6,-18 4.6,-41.2 -13.4,-51.8 l -65.2,-38.5 c -18,-10.6 -41.2,-4.6 -51.8,13.4 -10.6,18 -4.7,41.2 13.3,51.8 l 65.2,38.5 z m 260.8,153.9 c 18,10.6 41.3,4.6 51.9,-13.4 10.6,-18 4.6,-41.2 -13.4,-51.8 l -65.2,-38.4 c -18,-10.6 -41.2,-4.7 -51.8,13.3 -10.6,18 -4.6,41.2 13.4,51.8 l 65.1,38.5 z m 260.9,153.9 c 17.9,10.6 41.2,4.6 51.8,-13.3 10.6,-18 4.6,-41.3 -13.4,-51.9 l -65.2,-38.4 c -17.9,-10.6 -41.2,-4.7 -51.8,13.3 -10.6,18 -4.6,41.3 13.4,51.9 l 65.2,38.4 z m 260.8,154 c 18,10.57 41.2,4.59 51.8,-13.4 10.6,-18 4.6,-41.2 -13.3,-51.8 l -65.2,-38.5 c -18,-10.6 -41.3,-4.6 -51.9,13.4 -10.6,18 -4.6,41.2 13.4,51.8 l 65.2,38.5 z m 260.8,153.91 c 18,10.59 41.2,4.62 51.8,-13.37 10.6,-17.98 4.6,-41.23 -13.3,-51.83 l -65.2,-38.47 c -18,-10.59 -41.3,-4.61 -51.9,13.37 -10.6,17.99 -4.6,41.23 13.4,51.83 l 65.2,38.47 z m 260.8,153.93 c 18,10.6 41.3,4.62 51.8,-13.36 10.7,-17.99 4.7,-41.23 -13.3,-51.83 l -65.2,-38.47 c -18,-10.6 -41.2,-4.62 -51.8,13.37 -10.6,17.98 -4.7,41.23 13.3,51.82 l 65.2,38.47 z m 260.8,153.94 c 18,10.61 41.3,4.62 51.9,-13.37 10.6,-17.97 4.6,-41.21 -13.4,-51.82 l -65.2,-38.46 c -18,-10.61 -41.2,-4.63 -51.8,13.35 -10.6,17.99 -4.6,41.23 13.3,51.84 l 65.2,38.46 z m 260.8,153.95 c 18,10.59 41.3,4.62 51.9,-13.37 10.6,-17.98 4.6,-41.23 -13.4,-51.84 l -65.2,-38.47 c -18,-10.59 -41.2,-4.6 -51.8,13.37 -10.6,18 -4.6,41.24 13.4,51.84 l 65.1,38.47 z m 260.8,153.92 c 18,10.61 41.3,4.63 51.9,-13.35 10.6,-17.99 4.6,-41.23 -13.4,-51.84 l -65.2,-38.46 c -18,-10.61 -41.2,-4.62 -51.8,13.37 -10.6,17.97 -4.6,41.23 13.3,51.82 l 65.2,38.46 z m 260.9,154.03 c 18,10.59 41.2,4.62 51.8,-13.37 10.6,-17.98 4.6,-41.23 -13.3,-51.84 l -65.2,-38.49 c -18,-10.6 -41.3,-4.62 -51.9,13.36 -10.6,17.99 -4.6,41.23 13.4,51.83 l 65.2,38.51 z m 260.8,154.01 c 18,10.6 41.3,4.62 51.9,-13.37 10.6,-17.98 4.6,-41.22 -13.4,-51.82 l -65.2,-38.51 c -18,-10.6 -41.2,-4.62 -51.8,13.37 -10.6,17.98 -4.6,41.23 13.4,51.82 l 65.1,38.51 z m 260.9,154.01 c 18,10.6 41.2,4.62 51.8,-13.36 10.6,-17.99 4.6,-41.23 -13.3,-51.83 l -65.2,-38.51 c -18,-10.59 -41.3,-4.62 -51.9,13.37 -10.6,17.98 -4.6,41.23 13.4,51.83 l 65.2,38.5 z m 260.8,154.02 c 18,10.59 41.3,4.62 51.9,-13.37 10.6,-17.98 4.6,-41.23 -13.4,-51.84 l -65.2,-38.49 c -18,-10.6 -41.2,-4.62 -51.8,13.36 -10.6,17.99 -4.6,41.23 13.4,51.83 l 65.1,38.51 z m 260.9,154.01 c 18,10.6 41.2,4.62 51.8,-13.37 10.6,-17.98 4.7,-41.22 -13.3,-51.82 l -65.2,-38.51 c -18,-10.6 -41.2,-4.62 -51.9,13.37 -10.6,17.98 -4.6,41.23 13.4,51.82 l 65.2,38.51 z m 260.9,154.01 c 18,10.6 41.2,4.62 51.8,-13.36 10.6,-17.99 4.6,-41.23 -13.3,-51.83 l -65.3,-38.51 c -18,-10.59 -41.2,-4.61 -51.8,13.37 -10.6,17.98 -4.6,41.23 13.4,51.84 l 65.2,38.49 z m 260.9,154.02 c 18,10.59 41.3,4.62 51.9,-13.37 10.6,-17.97 4.6,-41.23 -13.4,-51.82 l -65.2,-38.51 c -18,-10.6 -41.3,-4.62 -51.9,13.36 -10.6,17.99 -4.6,41.23 13.4,51.84 l 65.2,38.5 z m 261,154.01 c 17.9,10.61 41.2,4.62 51.8,-13.37 10.6,-17.98 4.6,-41.22 -13.4,-51.82 l -65.2,-38.51 c -18,-10.6 -41.2,-4.62 -51.8,13.37 -10.6,17.98 -4.7,41.23 13.3,51.83 l 65.3,38.5 z m 168.1,88.82 c -18,10.6 -24,33.84 -13.4,51.83 10.6,17.98 33.8,23.97 51.8,13.36 l 46.4,-27.37 c 5.4,-3.13 10,-7.65 13.4,-13.37 10.6,-17.97 4.6,-41.23 -13.4,-51.82 l -18.8,-11.14 c -18,-10.59 -41.2,-4.6 -51.8,13.37 -3.7,6.21 -5.3,13.07 -5.2,19.84 l -9,5.3 z m -260.9,153.9 c -17.9,10.61 -23.9,33.85 -13.3,51.84 10.6,17.98 33.8,23.96 51.8,13.35 l 65.2,-38.46 c 18,-10.59 24,-33.85 13.4,-51.82 -10.6,-17.99 -33.9,-23.98 -51.9,-13.37 l -65.2,38.46 z M 20684,8897.5 c -18,10.6 -23.9,33.84 -13.3,51.82 10.6,17.99 33.8,23.97 51.8,13.37 l 65.2,-38.47 c 18,-10.6 24,-33.84 13.3,-51.83 -10.6,-17.98 -33.8,-23.97 -51.8,-13.36 l -65.2,38.47 z m -260.8,153.9 c -18,10.59 -24,33.84 -13.4,51.82 10.6,17.99 33.9,23.97 51.9,13.37 l 65.2,-38.47 c 17.9,-10.6 23.9,-33.84 13.3,-51.83 -10.6,-17.98 -33.8,-23.96 -51.8,-13.36 l -65.2,38.47 z m -260.8,153.9 c -18,10.59 -24,33.84 -13.4,51.82 10.6,17.99 33.9,23.96 51.9,13.37 l 65.2,-38.46 c 17.9,-10.61 23.9,-33.85 13.3,-51.84 -10.6,-17.98 -33.8,-23.96 -51.8,-13.36 l -65.2,38.47 z m -260.8,153.89 c -18,10.6 -24,33.86 -13.4,51.84 10.6,17.97 33.9,23.96 51.8,13.36 l 65.2,-38.46 c 18,-10.61 24,-33.86 13.4,-51.84 -10.6,-17.97 -33.9,-23.96 -51.8,-13.37 l -65.2,38.47 z m -260.8,153.9 c -18,10.61 -24,33.85 -13.4,51.84 10.6,17.98 33.8,23.96 51.8,13.35 l 65.2,-38.46 c 18,-10.59 24,-33.85 13.4,-51.82 -10.6,-17.99 -33.9,-23.98 -51.9,-13.37 l -65.1,38.46 z m -260.9,153.95 c -18,10.6 -23.9,33.84 -13.3,51.82 10.6,17.99 33.8,23.97 51.8,13.37 l 65.2,-38.47 c 18,-10.6 24,-33.84 13.4,-51.83 -10.6,-17.98 -33.9,-23.96 -51.9,-13.36 l -65.2,38.47 z m -260.8,153.94 c -18,10.59 -23.9,33.84 -13.3,51.82 10.6,17.99 33.8,23.96 51.8,13.37 l 65.2,-38.47 c 18,-10.6 24,-33.84 13.3,-51.83 -10.6,-17.98 -33.8,-23.96 -51.8,-13.36 l -65.2,38.47 z m -260.8,153.93 c -18,10.6 -24,33.89 -13.4,51.79 10.6,18 33.9,24 51.9,13.4 l 65.2,-38.5 c 17.9,-10.56 23.9,-33.81 13.3,-51.79 -10.6,-17.99 -33.8,-23.96 -51.8,-13.37 l -65.2,38.47 z m -260.8,153.99 c -18,10.5 -23.9,33.8 -13.3,51.8 10.6,18 33.8,24 51.8,13.3 l 65.2,-38.4 c 18,-10.6 24,-33.9 13.4,-51.8 -10.7,-18 -33.9,-24 -51.9,-13.4 l -65.2,38.5 z m -260.8,153.9 c -18,10.6 -24,33.8 -13.4,51.8 10.6,18 33.9,24 51.9,13.4 l 65.2,-38.5 c 18,-10.6 23.9,-33.8 13.3,-51.8 -10.6,-18 -33.8,-24 -51.8,-13.4 l -65.2,38.5 z m -260.8,153.9 c -18,10.6 -24,33.9 -13.4,51.9 10.6,17.9 33.9,23.9 51.9,13.3 l 65.2,-38.5 c 17.9,-10.5 23.9,-33.8 13.3,-51.8 -10.6,-18 -33.8,-23.9 -51.8,-13.3 l -65.2,38.4 z m -260.8,154 c -18,10.6 -24,33.8 -13.4,51.8 10.6,18 33.9,24 51.8,13.4 l 65.2,-38.5 c 18,-10.6 24,-33.8 13.4,-51.8 -10.6,-18 -33.8,-24 -51.8,-13.4 l -65.2,38.5 z m -260.8,153.9 c -18,10.6 -24,33.8 -13.4,51.8 10.6,18 33.8,24 51.8,13.4 l 65.2,-38.5 c 18,-10.6 24,-33.8 13.4,-51.8 -10.6,-18 -33.9,-24 -51.8,-13.4 l -65.2,38.5 z m -260.9,153.9 c -17.9,10.6 -23.9,33.9 -13.3,51.9 10.6,18 33.8,23.9 51.8,13.3 l 65.2,-38.4 c 18,-10.6 24,-33.9 13.4,-51.9 -10.6,-18 -33.9,-23.9 -51.9,-13.3 l -65.2,38.4 z m -260.8,154 c -18,10.6 -23.9,33.8 -13.3,51.8 10.6,18 33.8,24 51.8,13.4 l 65.2,-38.5 c 18,-10.6 23.9,-33.8 13.4,-51.8 -10.7,-18 -33.9,-24 -51.9,-13.4 l -65.2,38.5 z m -260.8,153.9 c -18,10.6 -24,33.9 -13.4,51.9 10.6,17.9 33.9,23.9 51.9,13.3 l 65.2,-38.4 c 18,-10.7 23.9,-33.9 13.3,-51.9 -10.6,-18 -33.8,-23.9 -51.8,-13.3 l -65.2,38.4 z m -260.8,154 c -18,10.6 -24,33.8 -13.4,51.8 10.6,18 33.9,24 51.9,13.3 l 65.1,-38.4 c 18,-10.6 24,-33.9 13.4,-51.8 -10.6,-18 -33.8,-24 -51.8,-13.4 l -65.2,38.5 z m -260.8,153.9 c -18,10.6 -24,33.8 -13.4,51.8 10.6,18 33.9,24 51.8,13.4 l 65.2,-38.5 c 18,-10.6 24,-33.8 13.4,-51.8 -10.6,-18 -33.8,-24 -51.8,-13.4 l -65.2,38.5 z m -260.8,153.9 c -18,10.6 -24,33.9 -13.4,51.9 10.6,18 33.8,23.9 51.8,13.3 l 65.2,-38.4 c 18,-10.6 24,-33.9 13.4,-51.9 -10.6,-17.9 -33.9,-23.9 -51.8,-13.3 l -65.2,38.4 z m -260.9,154 c -17.9,10.6 -23.9,33.8 -13.3,51.8 10.6,18 33.8,24 51.8,13.4 l 65.2,-38.5 c 18,-10.6 24,-33.8 13.4,-51.8 -10.6,-18 -33.9,-24 -51.9,-13.4 l -65.2,38.5 z m -260.8,153.9 c -18,10.6 -23.9,33.9 -13.3,51.8 10.6,18 33.8,24 51.8,13.4 l 65.2,-38.5 c 18,-10.6 23.9,-33.8 13.4,-51.8 -10.7,-18 -33.9,-24 -51.9,-13.4 l -65.2,38.5 z m -260.8,154 c -18,10.5 -24,33.8 -13.4,51.8 10.6,18 33.9,24 51.9,13.3 l 65.2,-38.4 c 17.9,-10.6 23.9,-33.9 13.3,-51.9 -10.6,-17.9 -33.8,-23.9 -51.8,-13.3 l -65.2,38.5 z m -260.8,153.9 c -18,10.6 -24,33.9 -13.4,51.9 10.6,17.9 33.9,23.9 51.9,13.3 l 65.1,-38.5 c 18,-10.6 24,-33.8 13.4,-51.8 -10.6,-18 -33.8,-24 -51.8,-13.4 l -65.2,38.5 z m -260.8,154 c -18,10.6 -24,33.9 -13.4,51.9 10.6,18 33.9,23.9 51.8,13.3 l 65.2,-38.5 c 18,-10.6 24,-33.8 13.4,-51.8 -10.6,-18 -33.8,-24 -51.8,-13.4 l -65.2,38.5 z m -260.9,154.1 c -18,10.6 -23.9,33.8 -13.3,51.8 10.5,18 33.8,24 51.8,13.4 l 65.2,-38.6 c 18,-10.6 23.9,-33.8 13.3,-51.8 -10.6,-18 -33.8,-24 -51.8,-13.3 l -65.2,38.5 z m -260.8,154 c -18,10.6 -24,33.8 -13.4,51.8 10.6,18 33.8,24 51.8,13.4 l 65.2,-38.5 c 18,-10.6 24,-33.9 13.4,-51.9 -10.6,-18 -33.9,-23.9 -51.8,-13.3 l -65.2,38.5 z m -260.9,154 c -18,10.6 -24,33.8 -13.4,51.8 10.6,18 33.9,24 51.9,13.4 l 65.2,-38.5 c 18,-10.6 23.9,-33.9 13.3,-51.9 -10.6,-17.9 -33.8,-23.9 -51.8,-13.3 l -65.2,38.5 z m -260.8,154 c -18,10.6 -24,33.8 -13.4,51.8 10.6,18 33.8,24 51.8,13.4 l 65.2,-38.5 c 18,-10.6 24,-33.9 13.4,-51.8 -10.6,-18 -33.9,-24 -51.9,-13.4 l -65.1,38.5 z m -260.9,154 c -18,10.6 -24,33.8 -13.4,51.8 10.6,18 33.9,24 51.9,13.4 l 65.2,-38.5 c 17.9,-10.6 23.9,-33.9 13.3,-51.8 -10.6,-18 -33.8,-24 -51.8,-13.4 l -65.2,38.5 z m -260.9,154 c -18,10.6 -24,33.9 -13.4,51.8 10.6,18 33.9,24 51.8,13.4 l 65.3,-38.5 c 18,-10.6 23.9,-33.8 13.3,-51.8 -10.6,-18 -33.8,-24 -51.8,-13.4 l -65.2,38.5 z m -261,154 c -17.9,10.6 -23.9,33.9 -13.3,51.9 10.6,17.9 33.8,23.9 51.8,13.3 l 65.2,-38.5 c 18,-10.6 24,-33.8 13.4,-51.8 -10.6,-18 -33.9,-24 -51.8,-13.4 l -65.3,38.5 z m -260.9,154.1 c -18,10.6 -24,33.8 -13.4,51.8 10.6,18 33.9,23.9 51.9,13.3 l 65.2,-38.4 c 18,-10.7 24,-33.9 13.4,-51.9 -10.6,-18 -33.9,-23.9 -51.9,-13.4 l -65.2,38.6 z m -195.6,155.5 -4.9,-75.6 5.1,75.6 h -0.2 z m -67.3,-74.5 c -20.9,-1 -38.7,15.2 -39.6,36 -1,20.9 15.1,38.7 36,39.6 l 17.1,0.8 h 1 0.5 l 1.7,0.1 24,-0.3 h 2.1 l 24.5,-1.7 2.3,-0.2 8.8,-1.1 c 20.7,-2.5 35.5,-21.5 33,-42.2 -2.6,-20.8 -21.5,-35.5 -42.3,-33 l -7.9,1 -22.6,1.5 -21.6,0.3 -17,-0.8 z m -252.3,-124.7 c -18,-10.6 -41.2,-4.6 -51.8,13.4 -10.6,18 -4.6,41.2 13.3,51.8 l 65.2,38.5 c 18,10.6 41.3,4.6 51.9,-13.4 10.6,-18 4.6,-41.2 -13.4,-51.8 l -65.2,-38.5 z m -260.8,-153.9 c -18,-10.6 -41.2,-4.6 -51.8,13.4 -10.6,17.9 -4.7,41.2 13.3,51.8 l 65.2,38.5 c 18,10.6 41.3,4.6 51.8,-13.4 10.7,-18 4.7,-41.2 -13.3,-51.8 l -65.2,-38.5 z m -260.8,-153.9 c -18,-10.6 -41.3,-4.6 -51.9,13.4 -10.6,17.9 -4.6,41.2 13.4,51.8 l 65.2,38.5 c 18,10.6 41.2,4.6 51.8,-13.4 10.6,-18 4.6,-41.2 -13.3,-51.8 l -65.2,-38.5 z m -260.8,-153.9 c -18,-10.6 -41.3,-4.6 -51.9,13.4 -10.6,17.9 -4.6,41.2 13.4,51.8 l 65.2,38.5 c 18,10.6 41.2,4.6 51.8,-13.4 10.6,-18 4.6,-41.2 -13.3,-51.8 l -65.2,-38.5 z m -260.9,-153.9 c -17.9,-10.6 -41.2,-4.6 -51.8,13.4 -10.6,18 -4.6,41.2 13.4,51.8 l 65.2,38.5 c 18,10.6 41.2,4.6 51.8,-13.4 10.6,-18 4.6,-41.2 -13.4,-51.8 l -65.2,-38.5 z m -260.8,-153.9 c -18,-10.6 -41.2,-4.6 -51.8,13.4 -10.6,18 -4.6,41.2 13.4,51.8 l 65.1,38.5 c 18,10.6 41.3,4.6 51.9,-13.4 10.6,-18 4.6,-41.2 -13.4,-51.8 l -65.2,-38.5 z m -260.8,-153.9 c -18,-10.7 -41.2,-4.7 -51.8,13.3 -10.6,18 -4.6,41.2 13.3,51.9 l 65.2,38.4 c 18,10.6 41.3,4.6 51.9,-13.3 10.6,-18 4.6,-41.3 -13.4,-51.9 l -65.2,-38.4 z m -260.8,-154 c -18,-10.6 -41.2,-4.6 -51.8,13.4 -10.6,18 -4.7,41.2 13.3,51.8 l 65.2,38.5 c 18,10.6 41.3,4.6 51.8,-13.4 10.7,-18 4.7,-41.2 -13.3,-51.8 l -65.2,-38.5 z m -260.83,-153.9 c -17.98,-10.6 -41.22,-4.6 -51.82,13.3 -10.61,18 -4.62,41.3 13.35,51.9 l 65.2,38.4 c 18,10.6 41.2,4.7 51.8,-13.3 10.6,-18 4.7,-41.3 -13.3,-51.8 l -65.23,-38.5 z m -260.81,-154 c -17.99,-10.6 -41.23,-4.6 -51.83,13.4 -10.61,18 -4.62,41.2 13.37,51.8 l 65.19,38.5 c 17.98,10.6 41.23,4.6 51.83,-13.4 10.6,-17.9 4.61,-41.2 -13.37,-51.8 l -65.19,-38.5 z m -260.82,-153.9 c -17.99,-10.6 -41.23,-4.6 -51.83,13.4 -10.61,18 -4.62,41.2 13.37,51.8 l 65.19,38.5 c 17.98,10.6 41.23,4.6 51.84,-13.4 10.59,-18 4.6,-41.2 -13.37,-51.8 l -65.2,-38.5 z m -260.81,-153.9 c -17.99,-10.6 -41.23,-4.6 -51.84,13.3 -10.59,18 -4.62,41.3 13.37,51.9 l 65.19,38.4 c 17.99,10.6 41.23,4.7 51.84,-13.3 10.59,-18 4.62,-41.3 -13.37,-51.9 l -65.19,-38.4 z m -260.82,-154 c -17.98,-10.6 -41.23,-4.6 -51.84,13.4 -10.59,18 -4.61,41.2 13.37,51.8 l 65.19,38.5 c 17.99,10.6 41.23,4.6 51.84,-13.4 10.6,-18 4.62,-41.2 -13.37,-51.8 l -65.19,-38.5 z m -260.82,-153.9 c -17.98,-10.6 -41.23,-4.6 -51.84,13.4 -10.59,17.9 -4.6,41.2 13.37,51.8 l 65.19,38.5 c 18,10.6 41.23,4.6 51.84,-13.4 10.6,-18 4.62,-41.2 -13.37,-51.9 l -65.19,-38.4 z m -260.82,-153.9 c -17.98,-10.7 -41.23,-4.7 -51.82,13.3 -10.61,18 -4.62,41.2 13.35,51.9 l 65.21,38.4 c 17.98,10.6 41.22,4.6 51.82,-13.4 10.61,-17.9 4.62,-41.2 -13.36,-51.8 l -65.2,-38.4 z m -260.82,-154 c -17.98,-10.6 -41.23,-4.6 -51.82,13.4 -10.6,18 -4.62,41.2 13.36,51.8 l 65.2,38.5 c 17.98,10.6 41.23,4.6 51.82,-13.4 10.61,-18 4.62,-41.2 -13.35,-51.8 l -65.21,-38.5 z m -260.82,-153.9 c -17.97,-10.6 -41.21,-4.6 -51.82,13.3 -10.6,18 -4.62,41.3 13.36,51.9 l 65.2,38.4 c 17.98,10.6 41.23,4.6 51.82,-13.3 10.61,-18 4.62,-41.3 -13.35,-51.9 l -65.21,-38.4 z m -260.8,-154 c -17.99,-10.6 -41.23,-4.6 -51.84,13.4 -10.6,18 -4.62,41.2 13.37,51.8 l 65.19,38.5 c 17.98,10.6 41.23,4.6 51.84,-13.4 10.59,-17.9 4.61,-41.2 -13.37,-51.8 l -65.19,-38.5 z m -260.82,-153.9 c -17.99,-10.6 -41.23,-4.6 -51.84,13.4 -10.6,17.9 -4.62,41.2 13.37,51.8 l 65.19,38.4 c 17.98,10.7 41.24,4.7 51.84,-13.3 10.59,-18 4.61,-41.2 -13.37,-51.8 l -65.19,-38.5 z m -260.82,-153.9 c -17.99,-10.6 -41.23,-4.7 -51.83,13.3 -10.6,18 -4.63,41.3 13.36,51.9 l 65.2,38.4 c 17.99,10.6 41.23,4.6 51.83,-13.3 10.59,-18 4.62,-41.3 -13.37,-51.9 l -65.19,-38.4 z m -260.82,-154 c -17.98,-10.6 -41.23,-4.6 -51.83,13.4 -10.59,18 -4.61,41.2 13.37,51.8 l 65.19,38.5 c 17.99,10.6 41.23,4.6 51.83,-13.4 10.61,-18 4.62,-41.2 -13.37,-51.8 l -65.19,-38.5 z M 6605.85,10394 c -17.97,-10.6 -41.23,-4.6 -51.83,13.4 -10.59,17.9 -4.61,41.2 13.37,51.8 l 65.19,38.4 c 17.99,10.6 41.23,4.7 51.83,-13.3 10.61,-18 4.63,-41.2 -13.37,-51.9 l -65.19,-38.4 z m -260.82,-154 c -17.97,-10.6 -41.23,-4.6 -51.82,13.4 -10.6,18 -4.62,41.2 13.36,51.8 l 65.2,38.5 c 17.98,10.6 41.22,4.6 51.83,-13.4 10.6,-17.9 4.62,-41.2 -13.36,-51.8 l -65.21,-38.5 z m -260.81,-153.9 c -17.98,-10.6 -41.23,-4.6 -51.83,13.4 -10.6,18 -4.62,41.2 13.36,51.8 l 65.21,38.5 c 17.97,10.6 41.23,4.6 51.82,-13.4 10.6,-18 4.62,-41.2 -13.36,-51.8 l -65.2,-38.5 z m -260.81,-153.93 c -17.99,-10.61 -41.23,-4.62 -51.83,13.37 -10.61,17.98 -4.63,41.21 13.37,51.82 l 65.19,38.44 c 17.97,10.6 41.23,4.6 51.82,-13.3 10.6,-18 4.62,-41.26 -13.36,-51.87 l -65.19,-38.46 z m -260.86,-154.01 c -17.99,-10.61 -41.23,-4.62 -51.83,13.35 -10.61,18 -4.62,41.23 13.37,51.84 l 65.19,38.51 c 17.99,10.59 41.23,4.6 51.83,-13.37 10.59,-17.98 4.62,-41.23 -13.37,-51.84 l -65.19,-38.49 z m -260.86,-154.02 c -17.97,-10.6 -41.23,-4.63 -51.83,13.36 -10.59,17.98 -4.61,41.24 13.37,51.83 l 65.19,38.5 c 17.99,10.61 41.23,4.62 51.83,-13.35 10.61,-17.99 4.63,-41.23 -13.37,-51.84 l -65.19,-38.5 z m -260.85,-154.01 c -17.98,-10.61 -41.24,-4.63 -51.83,13.37 -10.6,17.97 -4.62,41.21 13.36,51.82 l 65.2,38.5 c 17.98,10.61 41.23,4.62 51.83,-13.37 10.6,-17.97 4.62,-41.23 -13.36,-51.82 l -65.2,-38.5 z m -260.85,-154.01 c -17.99,-10.61 -41.23,-4.62 -51.84,13.35 -10.6,17.99 -4.62,41.23 13.37,51.84 l 65.2,38.5 c 17.97,10.59 41.23,4.61 51.83,-13.37 10.59,-17.97 4.61,-41.23 -13.37,-51.83 l -65.19,-38.49 z m -260.86,-154.03 c -17.98,-10.6 -41.23,-4.62 -51.83,13.37 -10.6,17.98 -4.61,41.23 13.37,51.82 l 65.19,38.51 c 17.99,10.61 41.23,4.62 51.83,-13.36 10.61,-17.99 4.62,-41.23 -13.37,-51.83 l -65.19,-38.51 z m -260.86,-154.01 c -17.97,-10.6 -41.23,-4.62 -51.82,13.36 -10.6,17.99 -4.62,41.23 13.36,51.84 l 65.2,38.5 c 17.98,10.61 41.22,4.62 51.82,-13.37 10.61,-17.98 4.62,-41.23 -13.35,-51.82 l -65.21,-38.51 z m -260.92,-154.01 c -17.99,-10.6 -41.23,-4.62 -51.84,13.36 -10.59,17.99 -4.62,41.23 13.37,51.84 l 65.23,38.5 c 17.98,10.59 41.23,4.61 51.84,-13.37 10.59,-17.98 4.61,-41.23 -13.37,-51.83 l -65.23,-38.5 z m -260.94,-154.02 c -17.98,-10.6 -41.22,-4.62 -51.82,13.37 -10.61,17.98 -4.62,41.23 13.35,51.82 l 65.25,38.51 c 17.97,10.6 41.23,4.62 51.82,-13.36 10.6,-17.99 4.62,-41.23 -13.36,-51.83 l -65.24,-38.51 z m -271.79,-137.73 -0.45,0.27 -1.75,1.14 -2.35,1.73 -1.62,1.4 -1.37,1.29 -1.28,1.36 -1.41,1.63 -1.73,2.35 -1.14,1.74 -0.27,0.45 -0.64,1.17 -0.61,1.1 -1.16,2.62 -0.31,0.8 -0.68,1.92 -0.19,0.6 -0.43,1.38 -0.06,0.41 c -0.64,2.61 -1.03,5.23 -1.14,7.87 v 2.72 c 0.07,2.62 0.5,5.27 1.14,7.88 l 0.06,0.42 0.43,1.36 0.19,0.62 0.68,1.92 0.31,0.8 1.16,2.6 0.61,1.1 0.64,1.17 0.15,0.27 0.5,0.8 0.41,0.6 0.61,0.91 1.1,1.48 0.56,0.73 0.72,0.82 0.39,0.46 1.39,1.47 2.08,1.93 0.8,0.69 1.25,0.94 0.26,0.23 0.68,0.45 2.47,1.59 37.63,22.23 c 17.99,10.6 41.23,4.62 51.83,-13.37 7.31,-12.38 6.74,-27.26 -0.22,-38.8 l 14.42,-8.52 c 17.98,-10.61 23.96,-33.85 13.36,-51.84 -10.59,-17.97 -33.85,-23.96 -51.82,-13.35 l -65.2,38.46 v 0" style="fill:#ffffff;fill-opacity:1;fill-rule:evenodd;stroke:none" id="path20"/>
      <path d="m 21727.1,8406.75 -9030.7,-5330.25 -34.4,-18.1 -37.1,-15.3 -39.5,-12.7 -41.5,-10 -43.3,-7.4 -44.5,-4.7 -45.6,-2.1 -32.9,0.4 v -438.5 l 32.9,-0.4 45.6,2.1 44.5,4.7 43.3,7.4 41.5,10 39.5,12.7 37.1,15.3 34.4,18.1 9030.7,5330.26 56.6,42.17 38.5,47.86 20.5,51.83 v 438.5 l -20.5,-51.84 -38.5,-47.85 -56.6,-42.18" style="fill:#bddef5;fill-opacity:1;fill-rule:evenodd;stroke:none" id="path22"/>
      <path d="m 13020.8,4492 c -255.9,0 -511.7,56.4 -706.9,169.1 -390.2,225.2 -390.2,590.7 0,816.2 195.2,112.7 451,169 706.9,169 255.8,0 511.6,-56.3 706.7,-169 390.1,-225.5 390.5,-591 0,-816.2 -195.1,-112.7 -450.9,-169.1 -706.7,-169.1" style="fill:#cee8f8;fill-opacity:1;fill-rule:evenodd;stroke:none" id="path24"/>
      <path d="m 5052.39,9364.43 207.93,-1055.81 c 0,-132.13 190.35,-239.27 425.12,-239.27 234.74,0 425.06,107.14 425.06,239.27 l 207.96,1055.81 H 5052.39" style="fill:#84a7dc;fill-opacity:1;fill-rule:evenodd;stroke:none" id="path26"/>
      <path d="m 6318.46,9364.43 c 0,-196.85 -283.42,-356.35 -633.02,-356.35 -349.63,0 -633.05,159.5 -633.05,356.35 0,196.74 283.42,356.26 633.05,356.26 349.6,0 633.02,-159.52 633.02,-356.26" style="fill:#a6c9ec;fill-opacity:1;fill-rule:evenodd;stroke:none" id="path28"/>
      <path d="m 5685.44,9560.65 c 260.55,0 477.83,-104.08 528.08,-242.26 7.14,19.6 10.82,40.01 10.82,60.87 0,167.57 -241.28,303.26 -538.9,303.26 -297.65,0.04 -538.93,-135.69 -538.93,-303.26 0,-20.86 3.75,-41.27 10.94,-60.87 50.12,138.18 267.36,242.26 527.99,242.26" style="fill:#84a7dc;fill-opacity:1;fill-rule:evenodd;stroke:none" id="path30"/>
      <path d="m 5685.44,9075.93 c 260.55,0 477.83,104.07 528.08,242.46 -50.25,138.18 -267.49,242.26 -528.08,242.26 -260.63,0 -477.87,-104.08 -527.99,-242.26 50.12,-138.39 267.36,-242.46 527.99,-242.46" style="fill:#7293d3;fill-opacity:1;fill-rule:evenodd;stroke:none" id="path32"/>
      <path d="m 5121.17,10760.1 c 0,0 91.89,-103.5 174.93,-285.9 82.9,-182.3 306.01,-1233.43 306.01,-1233.43 0,0 60.92,43.34 95.57,48.69 34.67,5.34 85.1,49.9 85.1,49.9 0,0 -157,779.74 -267.33,995.34 -192.44,376.1 -394.24,425.4 -394.28,425.4" style="fill:#7c9dd8;fill-opacity:1;fill-rule:evenodd;stroke:none" id="path34"/>
      <path d="m 5211.25,10993.5 c 0,0 -92.68,78.8 -112.82,97.7 -66.49,62.6 -142.02,149.3 -212.82,208 145.61,13.7 425.62,-187.4 425.62,-187.4 l -99.98,-118.3" style="fill:#bddef5;fill-opacity:1;fill-rule:evenodd;stroke:none" id="path36"/>
      <path d="m 5296.06,11170.6 c 0,0 39.18,260.3 184.94,363.3 -3.33,-165 -56.19,-422.1 -56.19,-422.1 l -128.75,58.8" style="fill:#bddef5;fill-opacity:1;fill-rule:evenodd;stroke:none" id="path38"/>
      <path d="m 5138.48,10911.4 c -72.8,82.1 -345.51,179.8 -345.51,179.8 -0.04,0 89.35,47.8 209.03,47.8 127.32,0 204.62,-47.8 204.62,-47.8 -0.04,0 -52.12,92.6 -68.22,172.5 -27.26,135.7 56.46,335.6 56.46,335.6 -0.04,0 99.8,-163.3 111.83,-230.4 11.93,-67 49.48,-188.8 49.48,-188.8 0,0 32.3,79 118.74,169.1 61.4,64.2 181.83,125.8 181.83,125.8 0,0 -88.06,-85.8 -104.53,-211.3 -22.79,-172.5 90.31,-376 -42.09,-480.9 -150.09,-118.9 -301.93,50.1 -371.64,128.6" style="fill:#cee8f8;fill-opacity:1;fill-rule:evenodd;stroke:none" id="path40"/>
      <path d="m 5510.12,10782.8 c 0,0.1 -53.43,35.2 -68.23,-34.9 23.92,-56.4 155.11,-314.2 178.47,-529.2 23.44,-215 79.4,-863.74 79.4,-863.74 l 62.65,12.67 c 0,0 -54.06,710.27 -105.67,968.57 -51.56,258.3 -146.62,446.6 -146.62,446.6" style="fill:#7c9dd8;fill-opacity:1;fill-rule:evenodd;stroke:none" id="path42"/>
      <path d="m 5244.14,10194.9 c 0,0 87.5,-74.6 155.72,-199.36 68.16,-124.74 244.58,-837.27 244.58,-837.27 l 53.2,1.02 c 0,0 -169.47,683.94 -225.08,822.92 -55.58,138.99 -177.3,270.89 -177.3,270.89 l -51.12,-58.2" style="fill:#94b7e5;fill-opacity:1;fill-rule:evenodd;stroke:none" id="path44"/>
      <path d="m 5893.52,9432.94 c 0,0 -59.81,74.6 -81.74,199.34 -21.88,124.75 65.99,837.32 65.99,837.32 l -53.57,-1.1 c 0,0 -84.24,-683.88 -80.19,-822.9 4.02,-139.01 76.82,-270.92 76.82,-270.92 l 72.69,58.26" style="fill:#7c9dd8;fill-opacity:1;fill-rule:evenodd;stroke:none" id="path46"/>
      <path d="m 4919.39,10290.9 c 0,0 190.02,-171.6 272.29,-160.3 82.34,11.5 137.85,68.3 130.76,140.3 -7.19,72 -258.43,268.3 -258.43,268.3 l -144.62,-248.3" style="fill:#bddef5;fill-opacity:1;fill-rule:evenodd;stroke:none" id="path48"/>
      <path d="m 4885.84,10548.3 c 0,0 -33.5,119.6 0,241.6 33.55,122 142.65,189.8 142.65,189.8 0,0 10.42,-109.1 35.52,-215.7 25.17,-106.6 41.31,-215.7 41.31,-215.7 0,0 70.72,36.4 163.74,36.4 92.87,0 213.61,-83.3 213.61,-83.3 0,0 -66.49,-62.2 -160.23,-86.5 -93.88,-24.3 -196.87,-53 -196.87,-53 0,0 41.39,-110.6 66.11,-195.6 24.83,-84.8 36.9,-245.98 36.9,-245.98 -0.02,0 -157.68,114.08 -200.09,180.08 -42.43,65.9 -109.1,152.7 -109.1,152.7 0,0 -76.15,-24.8 -153.22,-122.5 -77.08,-97.6 -92.76,-201.09 -92.76,-201.09 0,0 -87.46,176.29 -38.84,261.09 48.41,84.9 184.83,172.8 184.83,172.8 -0.04,0 -82.88,27.2 -145.99,51.5 -63.15,24.3 -148.07,68.6 -148.07,68.6 0,0 47.59,101.2 148.07,101.2 100.52,0 212.43,-36.4 212.43,-36.4" style="fill:#cee8f8;fill-opacity:1;fill-rule:evenodd;stroke:none" id="path50"/>
      <path d="m 4916.4,10460.2 c 0,0 -60.61,23.1 -118.25,29.8 -57.53,6.7 -87.83,-7.2 -87.83,-7.2 0,0 55.85,-32.7 103.7,-60.8 23.67,-13.9 99.34,-37.4 99.34,-37.4 0,0 -63.68,-36.4 -84.91,-51.5 -21.2,-15.2 -62.28,-60.6 -62.28,-60.6 0,0 135.04,51.4 147.19,54.5 12.08,3 45.48,23.4 45.48,23.4 -0.04,0 30.32,-76.5 60.61,-116.6 30.29,-40.2 72.77,-79.5 72.77,-79.5 -0.04,0 -17.01,100.6 -28.21,136.6 -11.29,36.1 -21.01,82.6 -21.01,82.6 0,0 34.56,45.5 88.59,63.4 70.45,23.3 137.47,43.2 137.47,43.2 0,0 -92.53,29.5 -139.74,25 -29,-2.8 -106.88,-44.9 -106.88,-44.9 0,0 -43.46,103.2 -57.63,221.5 -31.04,-69.2 -48.41,-221.5 -48.41,-221.5" style="fill:#bddef5;fill-opacity:1;fill-rule:evenodd;stroke:none" id="path52"/>
      <path d="m 4710.32,9686.42 c 0,0 90.18,133.94 278.16,137.39 187.89,3.53 494.19,-327.15 586.72,-502.74 12.41,-23.63 122.48,-161.78 122.48,-161.78 -0.04,0 -66.34,-46.33 -177.12,88.52 -110.74,134.82 -468.25,522.92 -810.24,438.61" style="fill:#94b7e5;fill-opacity:1;fill-rule:evenodd;stroke:none" id="path54"/>
      <path d="m 5697.86,9270 c 0,0 -5.65,254.23 37.25,508.8 42.9,254.6 184.92,596.7 320.48,741.1 135.52,144.4 360.66,190.9 360.66,190.9 0,0 -261.77,-372.7 -310.53,-494.8 -48.64,-122 -185.01,-635.74 -203.23,-717.56 -18.2,-81.78 -50,-209.44 -50,-209.44 -0.04,0 -66.72,-70.12 -154.63,-19" style="fill:#94b7e5;fill-opacity:1;fill-rule:evenodd;stroke:none" id="path56"/>
      <path d="m 6185.91,10474.2 c 0,0 -210.61,-306.7 -262.97,-530.56 -52.25,-223.98 -160.49,-692.11 -160.49,-692.11 l 47.14,9.53 c 0,0 109.56,506.41 158.03,682.58 48.57,176.16 218.29,530.56 218.29,530.56" style="fill:#7c9dd8;fill-opacity:1;fill-rule:evenodd;stroke:none" id="path58"/>
      <path d="m 4973.45,9705.77 c 0,0 84.96,-10.34 163.78,-67.96 78.74,-57.59 329.91,-390.16 476.4,-471.63 14.11,-7.91 43.11,-14.65 43.11,-14.65 0,0 -220.34,184.38 -295.3,293.38 -100.75,146.66 -233.38,307.54 -387.99,260.86" style="fill:#7c9dd8;fill-opacity:1;fill-rule:evenodd;stroke:none" id="path60"/>
      <path d="m 6027.55,11036 c 0,0 -181.5,-243 -236.14,-437.1 -54.67,-194.2 150.6,-229.8 186.73,-35.4 36.22,194.4 49.45,472.5 49.41,472.5" style="fill:#cee8f8;fill-opacity:1;fill-rule:evenodd;stroke:none" id="path62"/>
      <path d="m 10622,8400.66 c -221.6,0 -443.2,48.8 -612.2,146.4 -338.17,195.25 -338.17,511.71 0,706.96 6.6,3.78 13.2,7.54 20,11.21 3.1,-50.02 5.9,-101.39 8.1,-154.09 1.5,-7.27 3.6,-14.24 6.2,-20.86 -11.4,-58.38 -10,-133.23 2,-151.22 79,-87.34 186.4,-259.38 395.4,-259.42 7.4,0 14.9,0.23 22.6,0.68 90.5,16.86 115.9,60.88 81.7,129.79 -32.3,64.79 -125.6,126.87 -180,232.99 1.8,2.35 3.5,4.77 5,7.35 -19,99.42 -25.9,208.53 -23.6,324.23 60.6,11.7 123.1,19.42 186.1,23.14 -1.6,-12.09 -3.2,-24.09 -5,-36.01 5.4,-81.37 102.2,-120.25 190.1,-120.25 73.7,0 141,27.26 143.1,79.78 -0.7,20.14 -1.3,40.09 -1.8,59.97 137.1,-22.53 266.5,-64.97 374.5,-127.29 338.1,-195.25 338,-511.75 0,-706.96 -169.1,-97.6 -390.6,-146.4 -612.2,-146.4" style="fill:#cee8f8;fill-opacity:1;fill-rule:evenodd;stroke:none" id="path64"/>
      <path d="m 10574.2,12543 c 36.4,-34.1 68.2,-64.7 97.1,-93.6 165.9,-164.2 237.6,-245.1 497.7,-330.1 152.5,-94.8 336.9,-167 516.1,-210.4 69.4,-17.3 138.1,-30 203.4,-37.5 78.6,-15 125.5,141 61.9,185.5 -242.2,104.7 -372.3,196.5 -635.8,272.8 -235.3,252 -332.3,325.5 -558.4,511.1 l -182,-297.8" style="fill:#cee8f8;fill-opacity:1;fill-rule:evenodd;stroke:none" id="path66"/>
      <path d="m 11893.7,11921.8 c 68.7,-71.5 162.8,-143.5 229,-162 l 116.6,-11.8 c 47.1,-7.4 62.6,-1.3 67.2,5.7 3.6,5.3 0.3,11 0.3,11 66.3,-12.6 71.6,18.9 53.6,26.6 40.9,-13.5 64.6,18.8 41.7,30.7 26.6,2.5 36.9,32.4 -7.3,40.1 l -135,26.2 c -27.8,16.4 -45,27 -57.7,38 -12.2,10.7 -20.5,21.7 -28.2,38.1 27,10.2 57.2,25.7 88.8,54.8 l 3.7,5.3 c 12.6,19.2 4,40.9 -21.3,29 -58.1,-22 -88,-41.2 -135.9,-42.5 -51.9,11.9 -112,12.3 -176.3,7.4 -42.5,-20.4 -65.9,-47.7 -51.5,-76.9 l 12.3,-19.7" style="fill:#f4a186;fill-opacity:1;fill-rule:evenodd;stroke:none" id="path68"/>
      <path d="m 12275.6,11744.6 c -9.3,0 -21.1,1 -36.3,3.4 l -116.6,11.8 c -54,15.1 -126.6,65.8 -188.8,122.8 -14,12.8 -27.6,26 -40.2,39.2 l -12.3,19.7 c 41.8,-3.7 101.4,-21.7 131.7,-51.6 129.4,-129.3 143,-126.9 293.4,-136.2 -3.1,-4.7 -11.3,-9.1 -30.9,-9.1" style="fill:#f17f64;fill-opacity:1;fill-rule:evenodd;stroke:none" id="path70"/>
      <path d="m 12201.7,11926.3 c -32.7,5.4 -79,23.3 -88.4,41.3 1.4,-0.2 2.9,-0.3 4.7,-0.3 36,0 147.9,53.6 147.9,63.7 l 0.5,-6.5 -3.7,-5.3 c -31.6,-29.1 -61.8,-44.6 -88.8,-54.8 v 0 c 7.7,-16.4 16,-27.4 27.8,-38.1" style="fill:#f17f64;fill-opacity:1;fill-rule:evenodd;stroke:none" id="path72"/>
      <path d="m 11685.1,11908.9 c -179.2,43.4 -363.6,115.6 -516.1,210.4 -68.7,22.4 -124.3,44.6 -171.9,68.1 -31.9,96.5 -82,170.8 -119.1,262.7 119.1,-123.5 237.6,-229.1 367.8,-249.3 76.9,-119 239.3,-211.5 439.3,-291.9" style="fill:#bddef5;fill-opacity:1;fill-rule:evenodd;stroke:none" id="path74"/>
      <path d="m 10298.3,12321.5 -72.5,-2583.17 c 152.5,277.57 373.9,349.07 657.4,234.27 l 57.5,1374.2 -73.4,415 -23.7,506.2 -545.3,53.5" style="fill:#94b7e5;fill-opacity:1;fill-rule:evenodd;stroke:none" id="path76"/>
      <path d="m 10206.9,13009.7 c 0,0 -204,-224.4 -86,-520.2 118,-295.8 275.4,257.8 275.4,257.8 l -189.4,262.4" style="fill:#172035;fill-opacity:1;fill-rule:evenodd;stroke:none" id="path78"/>
      <path d="m 10562.3,9384.75 c -14.2,-37.06 -7.1,-83.97 0,-149.67 14,-42.01 48.7,-81.65 116.9,-104.71 79,-60.05 110.5,-162.3 210.4,-191.95 114.4,-33.93 183.6,10.56 174.5,78.68 -15.7,117.4 -148.6,169.49 -211.8,305.19 l -57.4,135.68 h -204.6 l -28,-73.22" style="fill:#172035;fill-opacity:1;fill-rule:evenodd;stroke:none" id="path80"/>
      <path d="m 10413.5,11046.5 139.7,-744.4 c -41.4,-168.9 27.1,-593.15 -24.9,-940.29 9.8,-149.47 328.5,-155.68 333.2,-40.47 -13.3,357.44 21.8,668.03 53,955.96 93.4,283.5 68.6,908.5 -112.1,1432.5 l -367.5,-189.9 -21.4,-473.4" style="fill:#244e9c;fill-opacity:1;fill-rule:evenodd;stroke:none" id="path82"/>
      <path d="m 10065.7,9149.79 c -32.3,-44.63 -36.6,-185.21 -19.6,-210.73 81.8,-90.45 194,-271.68 418,-258.74 90.5,16.86 115.9,60.88 81.7,129.79 -36,72.39 -148.3,141.41 -197.4,272.18 l -56.6,114.9 -226.1,-47.4" style="fill:#172035;fill-opacity:1;fill-rule:evenodd;stroke:none" id="path84"/>
      <path d="m 10843.6,11582.1 c -10.9,-106.8 -37.8,-215.2 -77.1,-308.2 -59.2,-140.9 -146.4,-247 -248.5,-260.9 -11.5,-427.5 22.1,-866.4 -95.8,-1023.67 -67.1,-343.42 -101.8,-675.11 -51.4,-938.88 -54,-88.4 -257.8,-78.15 -318.6,23.55 -6.7,11.16 -11.5,23.69 -14.3,37.14 -18.8,457.79 -87.68,814.67 67.8,1065.06 l -100.6,812.7 c -54.14,287.6 -6.7,435.9 142.6,575 18,16.6 37.4,33.2 58.3,49.9 l 619.8,25 17.8,-56.7" style="fill:#244e9c;fill-opacity:1;fill-rule:evenodd;stroke:none" id="path86"/>
      <path d="m 11014.2,12075.8 c 0.3,-88.4 -84.1,-168.9 -188.4,-154.9 -0.4,-85 -26.4,-203.8 0,-282.1 -42.6,-101.9 -99.2,-180.5 -211.7,-209.3 -112.7,-28.6 -337.5,-4.7 -466.4,134.4 21.5,157.9 -31.9,360.2 -87.6,529.8 -43,131.2 -87.29,243 -99.4,299.2 103.2,129.5 227,236.9 358.9,328.8 132,92 192.7,208.9 343.4,152.5 150.6,-56.4 168.2,-356.3 223.5,-474.6 55.1,-118.3 127.2,-200.6 127.7,-323.8" style="fill:#4f82cb;fill-opacity:1;fill-rule:evenodd;stroke:none" id="path88"/>
      <path d="m 10086.7,9062.9 -34.5,11.1 c -6.7,11.16 -11.5,23.69 -14.3,37.14 -9.4,229.77 -31.5,434.14 -31.4,612.34 0,28.66 0.5,56.64 1.8,83.94 31.4,-30.82 68.5,-57.59 110.9,-80.31 -35.5,-184.59 -36,-401.42 -32.5,-664.21" style="fill:#244e9c;fill-opacity:1;fill-rule:evenodd;stroke:none" id="path90"/>
      <path d="m 10814,11728.5 c 0,63.8 11.3,134.4 11.8,190.6 v 0 c -0.3,-55.3 -11.8,-126.2 -11.8,-190.6" style="fill:#808181;fill-opacity:1;fill-rule:evenodd;stroke:none" id="path92"/>
      <path d="m 10633.1,11060.1 c 0.1,3.6 0.3,7.4 0.4,11 52.4,47.1 97.7,118.8 133,202.8 39,92.5 65.9,200.2 76.9,306.5 v 0 c -11,-106.3 -37.9,-214 -76.9,-306.5 -34.6,-93.5 -78.7,-165.7 -133.4,-213.8" style="fill:#244e9c;fill-opacity:1;fill-rule:evenodd;stroke:none" id="path94"/>
      <path d="m 10633.5,11071.1 c 4.6,123.4 4.4,244.7 -3,363.1 101.7,32 154.8,107.8 195.3,204.6 v 0 l 17.8,-56.7 c -0.1,-0.6 -0.2,-1.1 -0.2,-1.7 -11,-106.3 -37.9,-214 -76.9,-306.5 -35.3,-84 -80.6,-155.7 -133,-202.8" style="fill:#244e9c;fill-opacity:1;fill-rule:evenodd;stroke:none" id="path96"/>
      <path d="m 10630.5,11434.2 c -4.3,68.6 -11.1,136.2 -20.7,202.7 -2.1,14 -4.2,27.9 -6.5,41.9 l 11.5,-39.9 -25.2,114.3 -2.4,11.5 c 0,0.1 -0.1,0.2 -0.1,0.3 94.6,7 177.6,66.7 184.1,169.2 l 54.6,-15.1 c -0.5,-56.2 -11.8,-126.8 -11.8,-190.6 0,-32.5 2.9,-63.4 11.8,-89.7 -40.5,-96.8 -93.6,-172.6 -195.3,-204.6" style="fill:#4f82cb;fill-opacity:1;fill-rule:evenodd;stroke:none" id="path98"/>
      <path d="m 10067.9,12069.6 c -2.6,8.2 -5.2,16.2 -7.8,24.1 l 3.3,0.9 c 1.6,-8.5 3.1,-16.8 4.5,-25" style="fill:#de1b30;fill-opacity:1;fill-rule:evenodd;stroke:none" id="path100"/>
      <path d="m 10508.7,9631.94 c -139.6,7.01 -263.8,34.27 -363.2,81.82 -134.3,64.01 -223.49,164.88 -244.66,302.84 90.07,346.8 76.6,771.3 59.82,1232.8 -19.61,353.1 198.84,509.4 85.14,919.5 -18.7,67.1 -46.18,141.2 -85.14,223.9 63.64,93.9 218.54,226.4 339.44,373.7 -59.9,-191.1 30.2,-447.6 187.3,-682.3 44,-102.3 76.6,-209.1 99.8,-319.5 l 2.4,-11.5 c 7.7,-38.3 14.6,-77.1 20.2,-116.3 89.1,-613.8 -69.8,-1324.4 -101.1,-2004.96" style="fill:#cee8f8;fill-opacity:1;fill-rule:evenodd;stroke:none" id="path102"/>
      <path d="m 11059,10161.6 c -37.6,-167.15 -57.2,-327.87 -215.4,-363.57 -74.7,697.87 27.2,1143.47 33,1657.17 0.3,33.1 0.3,66.3 -0.2,99.9 -0.2,16 -0.5,32.3 -1,48.7 -0.2,12 -0.6,23.9 -1.3,35.7 -0.1,10.9 -0.7,21.5 -1.2,32.4 -0.3,7.7 -0.7,15.5 -1.2,23.4 -0.7,11.9 -1.4,23.8 -2.1,35.9 -3.1,47.6 -7.4,96.1 -12.8,145.8 -1.5,14.2 -3.3,28.3 -5.1,42.3 -14.6,120 -37,246.9 -69.2,383.6 -78.8,197.8 -201.6,397.5 -328.9,530.8 116.8,108.4 291,64.3 378.4,-55.6 -26.4,-337.9 135.7,-427.1 183.6,-659.4 9.9,-48.5 1,-102.9 -33.2,-142.9 -15.4,-18 -36.1,-33.2 -62.3,-43.4 l -2.2,-1 -2.9,-257.9 c 52.9,-127.6 70.1,-303.6 78.4,-506.3 12.1,-301.8 5.1,-659.6 65.6,-1005.6" style="fill:#cee8f8;fill-opacity:1;fill-rule:evenodd;stroke:none" id="path104"/>
      <path d="m 10614.8,11638.9 -11.5,39.9 c -4.1,24.9 -8.8,49.8 -13.7,74.4 l 25.2,-114.3" style="fill:#4f82cb;fill-opacity:1;fill-rule:evenodd;stroke:none" id="path106"/>
      <path d="m 10084.1,10881 c -15.4,11.5 -31.9,21.9 -50.9,31.2 l -62.84,32.7 c -2.35,99.3 -5.95,201 -9.7,304.5 -0.87,15.2 -1.26,30 -1.28,44.5 -0.12,252 119.22,404.8 119.42,647 0,67.6 -9.3,142.2 -33,228 l 66.6,87.4 c 137.2,-208.7 207.2,-494.8 431.9,-494.8 13.7,0 28,1.1 42.9,3.2 l 2.4,-11.5 c 4.9,-24.6 9.6,-49.5 13.7,-74.4 l -0.1,0.2 c -41.9,6 -82.9,9.6 -122.6,9.6 -81.4,0 -156.9,-15.1 -222.8,-55.4 -196.8,-135.9 -207.1,-493.8 -173.7,-752.2 z m -25.8,-189.5 c -6.4,15.9 -11.4,30.9 -14.7,44.7 l -1.2,5 c -2,9.5 -3.1,18.3 -3,26.5 0,11.6 2.1,21.8 6.8,30.2 8.8,3 17.1,4.4 25.2,4.4 0.4,0 0.7,0 1.1,0 -5.2,-37.1 -10,-74 -14.2,-110.8 z m 87.2,-977.74 c -9,4.27 -17.8,8.7 -26.3,13.35 -42.4,22.72 -79.5,49.49 -110.9,80.31 -57.18,56.26 -94.71,125.99 -107.46,209.18 44.41,170.9 63.6,360.7 69.7,564.5 l 22.56,-27.9 c 4.09,-8 13.1,-13.3 20.9,-13.3 6.7,0 12.5,3.9 13.6,13.3 l 15.7,-17.1 c -24.5,-322.3 -3.2,-618.93 102.2,-822.34 v 0" style="fill:#bddef5;fill-opacity:1;fill-rule:evenodd;stroke:none" id="path108"/>
      <path d="m 9959.71,12391.6 c -124.02,-216.6 -193.81,-460.8 -215.79,-729.2 -34.5,-196.9 2.68,-555.1 91.77,-744.2 22.26,27.3 61.93,39.5 124.02,32.2 14.65,263.2 32.3,518.5 0,654.9 l 198.49,434.1 c 136.4,297.7 -86.8,493.9 -198.49,352.2" style="fill:#cee8f8;fill-opacity:1;fill-rule:evenodd;stroke:none" id="path110"/>
      <path d="m 10201.1,10745.8 c -10.8,-6.2 -26.8,-7.2 -42.2,5.6 -33.2,34.6 -67.9,61.9 -112.7,46.5 -8,-14.3 -8.6,-33.9 -3.8,-56.7 l 1.2,-5 c 11.6,-48.7 44.9,-112 78.9,-175.6 4,-10.7 1.2,-18.8 -4.6,-23.4 -7.6,-6.5 -20.7,-7.1 -30.8,-0.8 1.9,-17.7 -21.1,-24.5 -36.5,-8.4 l -23,25.2 c -2.6,-20.5 -26.9,-14.8 -34.54,0 l -43.53,54 c -29.79,28.6 -54.14,63.1 -75.11,102 -2.85,5.7 -5.8,11.2 -8.64,17 -20.33,64 -30.93,128.1 -30.17,192 15.02,53.1 62.58,61 124.1,32.2 l 73.49,-38.2 c 68.6,-33.5 103.3,-81.7 176.8,-141.3 6,-8.1 1,-19.1 -8.9,-25.1" style="fill:#f4a186;fill-opacity:1;fill-rule:evenodd;stroke:none" id="path112"/>
      <path d="m 10070.3,10518.9 c -6.4,0 -13.6,2.8 -19.7,9.1 l -7.3,8.1 -15.7,17.1 c -1.1,-9.4 -6.9,-13.3 -13.6,-13.3 -7.8,0 -16.81,5.3 -20.94,13.3 l -22.52,27.9 -21.01,26.1 c -29.79,28.6 -54.14,63.1 -75.11,102 11.66,-4.7 23.43,-6.8 35.31,-6.8 24.43,0 49.3,8.9 74.56,22.1 31.71,-73.8 88.91,-173.7 133.61,-187.3 -4,-3.4 -9.5,-5.2 -15.3,-5.2 -5.3,0 -10.7,1.4 -15.5,4.4 v 0 c 0.1,-0.6 0.2,-1.3 0.2,-2 -0.1,-9.6 -7.7,-15.5 -17,-15.5" style="fill:#f17f64;fill-opacity:1;fill-rule:evenodd;stroke:none" id="path114"/>
      <path d="m 10184.4,10741.4 c -8,0 -16.8,2.8 -25.5,10 -26.4,27.5 -53.8,50.5 -86.4,50.9 v 0 c 32.6,-0.4 60,-23.4 86.4,-50.9 8.7,-7.2 17.5,-10 25.5,-10" style="fill:#d9d9d8;fill-opacity:1;fill-rule:evenodd;stroke:none" id="path116"/>
      <path d="m 10042.4,10741.2 -18.4,78.3 c 8.9,2.1 17.4,3 25.7,3 67.9,0 116.8,-62.8 151.1,-76.7 -4.6,-2.7 -10.2,-4.4 -16.4,-4.4 -8,0 -16.8,2.8 -25.5,10 -26.4,27.5 -53.8,50.5 -86.4,50.9 -0.4,0 -0.7,0 -1.1,0 -8,0 -16.4,-1.4 -25.2,-4.4 -4.7,-8.4 -6.8,-18.6 -6.8,-30.2 0,-8.2 1,-17 3,-26.5" style="fill:#f17f64;fill-opacity:1;fill-rule:evenodd;stroke:none" id="path118"/>
      <path d="m 10920.1,11932.4 c 20,9.3 40.5,23.6 62.3,43.4 -15.4,-18 -36.1,-33.2 -62.3,-43.4" style="fill:#eaebec;fill-opacity:1;fill-rule:evenodd;stroke:none" id="path120"/>
      <path d="m 10876.6,11455.3 v 0 c 0.1,14.6 0.2,29.1 0.2,43.6 0,-14.5 0,-29 -0.2,-43.6" style="fill:#888a87;fill-opacity:1;fill-rule:evenodd;stroke:none" id="path122"/>
      <path d="m 10876.6,11455.2 c 0,0 0,0.1 0,0.1 v 0 c 0,0 0,-0.1 0,-0.1" style="fill:#3489a3;fill-opacity:1;fill-rule:evenodd;stroke:none" id="path124"/>
      <path d="m 10993.4,11167.2 c -29,126.2 -63.2,239.1 -116.8,288 v 0 c 0,0 0,0.1 0,0.1 0.2,14.6 0.2,29.1 0.2,43.6 0,18.7 -0.1,37.5 -0.4,56.2 v 0 c -0.2,16.2 -0.5,32.5 -1,48.7 v 0.1 c -0.2,11.9 -0.6,23.8 -1.3,35.6 v 0 c -0.1,10.9 -0.7,21.7 -1.2,32.4 v 0 c -0.2,7.8 -0.7,15.7 -1.2,23.4 v 0 c -0.6,12.1 -1.2,24 -2.1,35.9 v 0 c -3,49.1 -7.2,97.7 -12.8,145.8 v 0 c -1.5,14.2 -3.3,28.3 -5.1,42.3 3.6,-0.3 7.2,-0.5 10.9,-0.5 17.8,0 36.2,4 55.3,12.6 l -2.9,-257.9 c 52.9,-127.6 70.1,-303.6 78.4,-506.3" style="fill:#bddef5;fill-opacity:1;fill-rule:evenodd;stroke:none" id="path126"/>
      <path d="m 10439.6,12827.7 c 184,-231.4 317.5,-489.5 393.5,-778.1 l -55,531.7 -81.6,-19 40.8,61.3 -260.8,224.5 -36.9,-20.4" style="fill:#bddef5;fill-opacity:1;fill-rule:evenodd;stroke:none" id="path128"/>
      <path d="m 10336.6,12914.3 c -20,-68.5 -37.4,-163.8 -62.7,-234.6 -15,-80.7 134.3,-241.7 233.9,-234.5 70.5,13.9 69,151.1 79.4,234.4 l -250.6,234.7" style="fill:#f4a186;fill-opacity:1;fill-rule:evenodd;stroke:none" id="path130"/>
      <path d="m 10300.1,12766.5 c -98.8,-75.5 -107.9,-235.7 -75.6,-435.1 h 87.3 l -71.6,-75.1 c 132.3,-75.6 239.2,-267.6 343.1,-473.5 -48.6,428.4 -361.1,771.5 -283.2,983.7" style="fill:#bddef5;fill-opacity:1;fill-rule:evenodd;stroke:none" id="path132"/>
      <path d="m 10571,12396 c -31.5,0.1 -61,18.8 -87.5,50.5 6.1,-1 12,-1.5 17.7,-1.5 2.3,0 4.5,0 6.6,0.2 57.1,11.2 67,103.2 74.2,182 22.1,-35.1 43.1,-70.8 63.1,-107 8.1,-56.6 2.9,-99.8 -41.8,-117.7 -11,-4.4 -21.7,-6.5 -32.3,-6.5" style="fill:#4f82cb;fill-opacity:1;fill-rule:evenodd;stroke:none" id="path134"/>
      <path d="m 10604.9,12737.6 -118.9,102.4 117.3,-64.9 c -0.1,-12.4 0.5,-25 1.6,-37.5" style="fill:#eaebec;fill-opacity:1;fill-rule:evenodd;stroke:none" id="path136"/>
      <path d="m 10438.6,12818.7 -87.5,82 c -0.1,4.7 -0.1,9.4 -0.2,14.1 l 120,-66.5 c -4.1,-3.2 -8.2,-6.5 -12.2,-10 l -19.1,-10.6 c 1.3,-1.7 2.6,-3.3 3.9,-4.9 -1.6,-1.4 -3.2,-2.7 -4.9,-4.1" style="fill:#e8702c;fill-opacity:1;fill-rule:evenodd;stroke:none" id="path138"/>
      <path d="m 10468,12791.2 -29.4,27.5 c 1.7,1.4 3.3,2.7 4.9,4.1 8.3,-10.5 16.5,-21 24.5,-31.6" style="fill:#e61934;fill-opacity:1;fill-rule:evenodd;stroke:none" id="path140"/>
      <path d="m 10458.7,12838.3 c 4,3.5 8.1,6.8 12.2,10 l 3,-1.6 -15.2,-8.4" style="fill:#eaebec;fill-opacity:1;fill-rule:evenodd;stroke:none" id="path142"/>
      <path d="m 10645.1,12520.2 c -20,36.2 -41,71.9 -63.1,107 1.6,18.7 3.2,36.5 5.2,52.4 l -119.2,111.6 c -8,10.6 -16.2,21.1 -24.5,31.6 -1.3,1.6 -2.6,3.2 -3.9,4.9 l 19.1,10.6 15.2,8.4 12.1,-6.7 118.9,-102.4 c 6.5,-77.9 31.3,-155.7 40.2,-217.4" style="fill:#c6c3c3;fill-opacity:1;fill-rule:evenodd;stroke:none" id="path144"/>
      <path d="m 10501.3,12445 c -5.8,0 -11.7,0.5 -17.8,1.5 -77.2,92.4 -128.8,294.1 -132.4,454.2 l 87.5,-82 29.4,-27.5 119.2,-111.6 c -2,-15.9 -3.6,-33.7 -5.2,-52.4 -7.2,-78.8 -17.1,-170.8 -74.2,-182 -2.1,-0.2 -4.3,-0.2 -6.5,-0.2" style="fill:#f17f64;fill-opacity:1;fill-rule:evenodd;stroke:none" id="path146"/>
      <path d="m 10359.9,12804.6 c 70.4,-88.2 146.5,-163.4 271,-145.3 46.1,6.6 88.8,75.4 85.2,350.7 -1.2,93.4 -51.1,202.8 -93.9,254.7 -60.9,73.7 -165.2,101.3 -264.5,78.7 -140.8,-32.1 -208.9,-140.9 -192.4,-277.6 32.2,-186.2 112.3,-255.2 194.6,-261.2" style="fill:#f4a186;fill-opacity:1;fill-rule:evenodd;stroke:none" id="path148"/>
      <path d="m 10313.2,12821.7 c 0,0 32.2,7.6 59.8,51 27.6,43.5 31.5,94.8 37.4,152.3 128.7,13.1 264.7,107.1 264.7,150.5 -5.8,59.7 -42.4,114.2 -152,157.7 -122.1,46.2 -230.6,17.5 -317.7,-77.2 -136.2,-148 -13.2,-409.2 102.4,-456.6 l 5.4,22.3" style="fill:#172035;fill-opacity:1;fill-rule:evenodd;stroke:none" id="path150"/>
      <path d="m 10733.6,13054.9 c -11.5,30.3 -36.3,-13.4 -69.4,-45.8 -6.5,-6.4 -8.7,-13.8 -10.6,-22 -9,-1.8 -18.7,-9.1 -26.7,-20.2 -3.2,5.6 -17.4,1.4 -22.7,-1.8 -43.7,-26.6 -99.5,-36.6 -99.7,-73.8 0.2,-87.9 150,-57.6 126.9,63.9 l -0.5,2.5 c 6.4,9.2 14.1,15.1 21.5,16.3 v -2.9 c 8.7,-63.9 49.6,-51.9 73.6,-10.8 14.9,25.5 17.3,58 7.6,94.6 z m -116.8,-168.3 c -9.2,-16.7 -24.2,-29 -42.1,-34.9 -18.9,-6 -37.3,-3.6 -49.5,6.5 -9.1,7.7 -14,19.5 -14.1,34.2 0.2,18.4 20.1,28.9 52.9,44 14.3,6.5 28.6,14.5 42.7,22 14.8,7.8 16.5,1.5 18.2,-6 4.7,-24.9 2,-47.7 -8.1,-65.8 z m 106.2,81.9 c -9,-17.3 -21.2,-29.8 -32.5,-33.5 -21.3,-6.8 -31.1,21 -31.7,45.7 -0.2,8.3 4.4,18.1 9.1,22.6 8.8,8.4 17.1,17.5 25.1,26.3 12.9,14.2 19,23.4 27.1,26.1 2.4,0.7 5.5,1.2 7.3,-5 6.8,-28.8 9.7,-55.7 -4.4,-82.2 v 0" style="fill:#1f2e59;fill-opacity:1;fill-rule:evenodd;stroke:none" id="path152"/>
      <path d="m 10509.1,12888.4 -197.3,-4.7 -4.8,9.5 205.2,12.3 -3.1,-17.1" style="fill:#1f2e59;fill-opacity:1;fill-rule:evenodd;stroke:none" id="path154"/>
      <path d="m 10342.4,12856.7 c -8.8,13.7 -18.3,27.2 -30.9,37.6 -12.6,10.4 -28.7,17.4 -45,16.1 -4.4,-0.3 -8.7,-1.2 -12.5,-3.3 -8.7,-4.8 -13.4,-15 -13.8,-24.9 -0.3,-9.9 3,-19.6 6.9,-28.7 7.5,-17.3 17.7,-33.7 31.7,-46.3 14,-12.6 32.2,-21.2 51,-21.4 7.4,-0.2 15.3,1.2 20.8,6.1 4.2,3.8 6.6,9.3 7.6,14.9 3,17.6 -6.2,34.8 -15.8,49.9" style="fill:#f4a186;fill-opacity:1;fill-rule:evenodd;stroke:none" id="path156"/>
      <path d="m 8093.75,7046.11 c -198.88,0 -397.76,43.87 -549.53,131.45 -303.38,175.1 -303.38,459.2 0,634.56 151.77,87.62 350.65,131.31 549.53,131.31 198.88,0 397.72,-43.69 549.42,-131.31 303.23,-175.36 303.56,-459.46 0,-634.56 -151.7,-87.58 -350.54,-131.45 -549.42,-131.45" style="fill:#cee8f8;fill-opacity:1;fill-rule:evenodd;stroke:none" id="path158"/>
      <path d="m 8351.15,11225.9 c 0,-10 -6.13,-21.7 -13.66,-26 -7.57,-4.5 -13.7,0.2 -13.7,10.2 0,10.1 6.13,21.8 13.7,26.2 7.57,4.4 13.66,-0.3 13.66,-10.4" style="fill:#3b2221;fill-opacity:1;fill-rule:evenodd;stroke:none" id="path160"/>
      <path d="m 8349.68,11220.4 c 0,-6.3 -3.75,-13.5 -8.37,-16.1 -4.65,-2.7 -8.4,0.1 -8.4,6.3 0,6.2 3.75,13.4 8.4,16.2 4.66,2.6 8.37,-0.2 8.37,-6.4" style="fill:#8b5a57;fill-opacity:1;fill-rule:evenodd;stroke:none" id="path162"/>
      <path d="m 8486.66,10415.2 c 68.07,68.7 116.91,153.3 133.04,251.1 -83.94,151.9 -167.68,691.8 -374.7,790.6 -119.34,56.9 -202.55,5.8 -202.55,5.8 l 281.71,-661 c 0,0 120.93,-339.9 162.5,-386.5" style="fill:#bddef5;fill-opacity:1;fill-rule:evenodd;stroke:none" id="path164"/>
      <path d="m 8344.8,9370.14 c 0,0 -36.57,-230.54 -38.02,-333.7 -1.55,-103.16 -3.26,-148.79 -25.77,-275.74 -21.21,-119.71 -52.93,-599.96 -53.76,-758.83 -0.8,-158.73 96.62,-306.43 132.84,-363.79 36.27,-57.35 -78.9,-147.08 -166.35,-63.44 -87.5,83.7 -96.62,100.05 -145.96,126.25 -49.36,26.27 -85.89,139.17 -46.91,264.41 39.08,125.14 20,372.24 -21.42,588.69 -41.54,216.49 18.86,491.49 -5.45,556.2 -24.31,64.74 370.8,259.95 370.8,259.95" style="fill:#f4a186;fill-opacity:1;fill-rule:evenodd;stroke:none" id="path166"/>
      <path d="m 8360.09,7638.08 c 0,0 107.64,-89.65 143.64,-133.42 35.97,-43.72 -75.49,-108.13 -181.45,-71.21 -106.01,36.84 -193.13,136.83 -277.22,211.97 -82.38,73.72 -104.94,100.11 -100.82,184.61 2.01,41.65 44.93,85.42 44.93,85.42 0,0 26.21,-171.39 147.1,-243.26 115.29,-68.52 162.71,-79.04 223.82,-34.11" style="fill:#172035;fill-opacity:1;fill-rule:evenodd;stroke:none" id="path168"/>
      <path d="m 8008.15,9184.01 c 0,0 -12.83,-231.7 -14.39,-334.86 -1.47,-103.17 -17.79,-136.12 -48.42,-253.74 -30.56,-117.67 -53.95,-620.86 -54.75,-779.65 -0.8,-158.82 96.58,-306.52 132.86,-363.84 36.26,-57.35 -78.91,-147.04 -166.33,-63.41 -87.49,83.71 -96.66,100.03 -145.98,126.26 -49.38,26.21 -85.99,139.18 -46.91,264.31 39.07,125.24 20.02,372.34 -21.43,588.79 -41.5,216.45 27.56,492.83 12.42,560.25 -37.15,165.87 -126.73,421.27 -33.43,477.15 97.79,58.61 386.36,-221.29 386.36,-221.26" style="fill:#f4a186;fill-opacity:1;fill-rule:evenodd;stroke:none" id="path170"/>
      <path d="m 8023.45,7451.92 c 0,0 107.63,-89.61 143.6,-133.41 35.93,-43.77 -75.42,-108.13 -181.43,-71.26 -105.97,36.92 -193.13,136.9 -277.16,212.02 -82.44,73.75 -104.96,100.06 -100.87,184.61 2,41.6 44.94,85.45 44.94,85.45 0,0 26.19,-171.47 147.08,-243.3 115.29,-68.56 162.76,-79.08 223.84,-34.11" style="fill:#172035;fill-opacity:1;fill-rule:evenodd;stroke:none" id="path172"/>
      <path d="m 8407.98,10156.7 c 0,0 9.43,-164.38 13.68,-376.66 5.18,-260.74 -35.18,-571.68 -35.18,-571.68 0,0 -387.57,-299.89 -525.23,-251.02 -222.62,79.1 -333.32,253.97 -333.32,253.97 0,0 -5.15,594.71 104.38,983.09 109.58,388.4 767.04,165 775.67,-37.7" style="fill:#244e9c;fill-opacity:1;fill-rule:evenodd;stroke:none" id="path174"/>
      <path d="m 7492.99,11121.8 c 20.37,81.2 269.06,251.7 269.06,251.7 0.04,0 138.88,-110.7 187.87,-149.1 46.87,-36.7 125.01,-130.9 131.72,-138.9 l 1.16,0.1 c -1.05,15.6 -10.4,139.7 -59.02,272.2 -15.25,41.7 7.99,163.6 7.99,163.6 0.04,0 19.43,4.9 47.6,10 42.24,-46.9 125.39,-171.2 170.48,-222.8 43.46,-49.6 212.39,-204.8 164.8,-365.3 -14.08,-47.7 -31.54,-89.1 -56.79,-148.1 -28.32,-66.3 -26.54,-192.6 -22.97,-261.2 4.15,-78.8 77.38,-286.4 77.38,-286.4 0,0 -180.71,-209.3 -374.48,-200.8 -226.25,10.1 -386.66,169.8 -386.66,169.8 0,0 54.17,342.2 46.91,483.6 0,0 -272.44,153.3 -205.05,421.6" style="fill:#4f82cb;fill-opacity:1;fill-rule:evenodd;stroke:none" id="path176"/>
      <path d="m 8053.66,11410.4 c 0,0 149.39,-200.9 212.69,-309 47.22,-80.6 49.9,-469.8 48.19,-662.9 -0.56,-66 52.41,-1548.35 52.41,-1548.35 0.03,0 140.12,82.5 160.68,156.63 24.76,387.19 -60.05,911.17 -105.49,1334.12 -7.53,69.8 -17.75,243.6 -22.06,348.5 -8.57,212.4 68.41,274.8 -16.82,430.1 -85.25,155.4 -281.56,326.9 -281.56,326.9 l -48.04,-76" style="fill:#cee8f8;fill-opacity:1;fill-rule:evenodd;stroke:none" id="path178"/>
      <path d="m 7678.91,11315.8 c 0,0 223.34,-195 306.11,-368.1 82.84,-173.1 122.02,-891 122.02,-891 0,0 29.95,-969.56 9.19,-1247.61 -216.51,-192.33 -565.62,36.2 -633.99,91.77 0.03,228.42 28.16,704.46 45.69,942.08 10.41,142.61 76.56,299.46 28.96,536.36 -86.09,428.2 -105.55,629.3 -94.99,686.1 28.74,153 217.01,250.4 217.01,250.4" style="fill:#cee8f8;fill-opacity:1;fill-rule:evenodd;stroke:none" id="path180"/>
      <path d="m 8053.66,11410.4 c 0,0 141.48,-217.6 176.77,-325.5 35.28,-107.8 84.5,-564.9 84.5,-564.9 0,0 26.61,189.8 33.85,247.6 7.3,57.8 0,242.7 0,242.7 l -50.81,22.1 33.12,122.5 c 0,0 -68.53,105 -128.23,180.9 -59.62,75.8 -75.3,76.7 -86.43,83.5 -11.18,6.9 -62.77,-8.9 -62.77,-8.9" style="fill:#bddef5;fill-opacity:1;fill-rule:evenodd;stroke:none" id="path182"/>
      <path d="m 8320.91,11822.9 c 0,0 11.77,-77 -9.47,-190.1 -10.6,-56.5 -46.94,-124.4 -46.94,-124.4 l -247.16,114.8 303.57,199.7" style="fill:#172035;fill-opacity:1;fill-rule:evenodd;stroke:none" id="path184"/>
      <path d="m 8046.35,11502.6 c 0,0 -1.81,-139.8 22.91,-214.4 20.63,-32.3 41.64,-134.1 29.26,-222.8 -45.85,25.9 -121.23,105.1 -164.31,146.1 -52.14,49.7 -189.95,148.4 -189.95,148.4 l 24.85,413.4 277.24,-270.7" style="fill:#f17f64;fill-opacity:1;fill-rule:evenodd;stroke:none" id="path186"/>
      <path d="m 7903.66,12001.8 c 94.84,65.2 312.41,77 380.63,-150.6 71.44,-238.7 -155.14,-521.3 -265.84,-466.1 -62.02,31 -190.44,136.5 -221.98,261.8 -35.43,141.1 33.55,304.2 107.19,354.9" style="fill:#f4a186;fill-opacity:1;fill-rule:evenodd;stroke:none" id="path188"/>
      <path d="m 7711.82,11947.6 c 41.34,68.1 134.9,159.2 201.6,183.1 133.72,47.6 221.67,-3.2 339.61,-122.9 71.02,-71.9 101.19,-154.2 94.98,-282 0,0 -197.43,-126.9 -313.4,-145.1 -53.69,-8.4 -125.84,26.8 -167.91,50.1 -7.95,-58.4 -16.28,-124.7 -17.79,-156.3 -3.14,-63.3 12.91,-156.5 12.91,-156.5 0,0 -170.45,41.1 -217.31,117.9 -46.87,76.7 -7.43,388.7 67.31,511.7" style="fill:#172035;fill-opacity:1;fill-rule:evenodd;stroke:none" id="path190"/>
      <path d="m 8798.44,10874.7 -18.06,10.2 -0.23,-0.3 c -7.2,5.3 -16.81,7.5 -26.2,2.1 l -283.46,-163.6 c -55.66,-32.2 -100.71,-79.8 -129.74,-137.1 l -193.16,-381.8 c -9.2,-18.1 10.82,-37 28.4,-26.9 l 256.61,148.1 c 80.26,46.4 145.34,115.2 187.25,197.9 l 158.94,314.1 11.13,-12.6 8.52,49.9" style="fill:#94b7e5;fill-opacity:1;fill-rule:evenodd;stroke:none" id="path192"/>
      <path d="m 8198.01,10165.1 256.63,148.2 c 80.33,46.3 145.38,115 187.25,197.8 l 167.75,331.6 c 10.87,21.4 -12.79,43.8 -33.62,31.8 l -283.49,-163.6 c -55.66,-32.2 -100.71,-79.9 -129.74,-137.2 L 8169.62,10192 c -9.13,-18.1 10.83,-37 28.39,-26.9" style="fill:#7c9dd8;fill-opacity:1;fill-rule:evenodd;stroke:none" id="path194"/>
      <path d="m 8753.61,10666.5 c 39.07,-7.1 26.27,-107.5 -22.64,-154.4 -48.99,-47 -128.57,-70.4 -143.87,-12.8 -15.33,57.6 51.53,188.1 166.51,167.2" style="fill:#f4a186;fill-opacity:1;fill-rule:evenodd;stroke:none" id="path196"/>
      <path d="m 8533.68,10670.6 159.47,92 55.2,102.1 -159.35,-92.1 -55.32,-102" style="fill:#7293d3;fill-opacity:1;fill-rule:evenodd;stroke:none" id="path198"/>
      <path d="m 8748.35,10864.7 -51.49,28.2 -158.94,-91.2 51.08,-29.1 159.35,92.1" style="fill:#94b7e5;fill-opacity:1;fill-rule:evenodd;stroke:none" id="path200"/>
      <path d="m 8537.92,10801.7 51.08,-29.1 -55.32,-102 -16.28,14.3 40.25,78.5 -30.21,18.4 10.48,19.9" style="fill:#84a7dc;fill-opacity:1;fill-rule:evenodd;stroke:none" id="path202"/>
      <path d="m 7857.16,9956.17 56.38,-80.52 -284.41,-241.48 -37.33,91.85 265.36,230.15" style="fill:#bddef5;fill-opacity:1;fill-rule:evenodd;stroke:none" id="path204"/>
      <path d="m 7744.26,11359.9 -102.6,-66.6 c 0,0 96.35,-95.5 128.31,-166.2 31.95,-70.7 73.41,-192.8 73.41,-192.8 l 109.31,-22.6 -43.17,-83.3 175.36,-466.6 c 0,0 50.33,403.6 -67.54,648.5 -118,245 -273.08,349.6 -273.08,349.6" style="fill:#bddef5;fill-opacity:1;fill-rule:evenodd;stroke:none" id="path206"/>
      <path d="m 8238.68,11286.9 c -13.78,70.3 -51.23,116 -87.31,145.2 -6.25,-5.6 -12.79,-10.8 -19.46,-15.9 35.14,-27.1 69.93,-68.9 82.57,-134.1 22.72,-116.2 79.43,-409 79.43,-409 l 24.12,4.7 c 0,0 -56.63,292.8 -79.35,409.1" style="fill:#7c9dd8;fill-opacity:1;fill-rule:evenodd;stroke:none" id="path208"/>
      <path d="m 8250.67,10832.5 c 0,-44.1 24.81,-79.9 55.33,-79.9 30.54,0 55.2,35.8 55.2,79.9 0,44.1 -24.66,79.8 -55.2,79.8 -30.52,0 -55.33,-35.7 -55.33,-79.8" style="fill:#ffffff;fill-opacity:1;fill-rule:evenodd;stroke:none" id="path210"/>
      <path d="m 8272.71,10831.3 c 0,-36.1 20.33,-65.5 45.32,-65.5 25.03,0 45.32,29.4 45.32,65.5 0,36.1 -20.29,65.4 -45.32,65.4 -24.95,0 -45.32,-29.3 -45.32,-65.4" style="fill:#7c9dd8;fill-opacity:1;fill-rule:evenodd;stroke:none" id="path212"/>
      <path d="m 8352.72,10882.3 c -3.94,6.4 -22.23,21.7 -42.64,13.4 -17.37,-7 7.95,-128.7 7.95,-128.7 0,0 24.31,-5.2 43.17,29.4 18.92,34.5 3.63,66.3 -8.48,85.9" style="fill:#7c9dd8;fill-opacity:1;fill-rule:evenodd;stroke:none" id="path214"/>
      <path d="m 8295.08,10831.3 c 0,-31.7 17.77,-57.4 39.69,-57.4 21.95,0 39.72,25.7 39.72,57.4 0,31.7 -17.77,57.3 -39.72,57.3 -21.92,0.1 -39.69,-25.6 -39.69,-57.3" style="fill:#ffffff;fill-opacity:1;fill-rule:evenodd;stroke:none" id="path216"/>
      <path d="m 7920.81,10776 c -24.09,79.4 -61.94,179.3 -122.44,301.8 -69.75,141.1 -62.81,216.2 -44.8,254.4 3.88,8.1 8.56,14.6 13.29,20.8 -7.72,3 -15.17,6.9 -22.29,11.4 -4.74,-6.4 -9.2,-13.3 -12.87,-21 -30.07,-62.6 -15,-155.7 44.63,-276.5 59.1,-119.5 96.21,-217.6 119.83,-295.5 l 4.73,1.9 c 7.35,1.6 7.53,1 0.54,-1.9 6.31,2.8 12.79,4.1 19.38,4.6" style="fill:#7c9dd8;fill-opacity:1;fill-rule:evenodd;stroke:none" id="path218"/>
      <path d="m 7826.87,10577.4 211.23,94 -23.52,52.4 -211.18,-94 23.47,-52.4" style="fill:#bddef5;fill-opacity:1;fill-rule:evenodd;stroke:none" id="path220"/>
      <path d="m 7951.02,10264.5 25.36,19.5 c -0.87,1.1 -84.88,111.7 -130.16,269 -15.37,53.2 -19.31,100.1 -11.47,135.7 8.71,39.2 30.75,63.3 67.42,73.9 51.99,15.1 118.7,10.4 174.23,-159 56.34,-171.8 24.99,-282.1 24.7,-283.1 l 30.67,-9.1 c 1.42,4.9 34.4,120.9 -24.95,302.1 -48.62,148.3 -118.51,207.1 -213.54,179.8 -47.55,-13.6 -78.59,-47.4 -89.69,-97.7 -9.08,-40.8 -4.93,-93.1 11.89,-151.5 47.03,-163.4 131.94,-274.9 135.54,-279.6" style="fill:#ffffff;fill-opacity:1;fill-rule:evenodd;stroke:none" id="path222"/>
      <path d="m 8087.65,10314.5 c 0.72,-15.9 14.32,-28.2 30.18,-27.4 15.98,0.8 28.2,14.3 27.41,30.2 -0.8,16 -14.32,28.2 -30.21,27.4 -15.95,-0.8 -28.25,-14.3 -27.38,-30.2" style="fill:#8e8f87;fill-opacity:1;fill-rule:evenodd;stroke:none" id="path224"/>
      <path d="m 7934.86,10272.8 c 0.78,-15.9 14.34,-28.1 30.25,-27.3 15.93,0.7 28.17,14.2 27.36,30.2 -0.8,16 -14.3,28.2 -30.25,27.4 -15.87,-0.8 -28.17,-14.3 -27.36,-30.3" style="fill:#8e8f87;fill-opacity:1;fill-rule:evenodd;stroke:none" id="path226"/>
      <path d="m 8206.43,10339.9 c 0,0 88.88,43.8 160.59,58.5 71.63,14.6 150.46,28.4 85.79,-77.2 -64.66,-105.5 -238.93,-163.3 -276.72,-165.3 -37.7,-1.9 -95.56,-13.7 -95.56,-13.7 l 125.9,197.7" style="fill:#f4a186;fill-opacity:1;fill-rule:evenodd;stroke:none" id="path228"/>
      <path d="m 8221.99,10408.4 c 0,0 -410.97,105.1 -439.03,106.5 -18.52,157.8 -16.2,327.9 -31.92,467.8 -1.43,36.1 -3.52,65.1 -6.78,82.7 -16.57,89 -117.21,192.9 -164.84,172.6 -65,-27.8 -135.99,-76.3 -148.37,-220.5 -6.85,-79.5 28.25,-476.7 96.88,-676.2 37.41,-108.9 187.38,-175.7 277.56,-189.6 147.2,-22.5 254.83,-40.4 364.33,-27.4 91.65,56.3 52.17,284 52.17,284.1" style="fill:#bddef5;fill-opacity:1;fill-rule:evenodd;stroke:none" id="path230"/>
      <path d="m 16217.6,7115.47 -1658.8,963.41 c -44.5,25.71 -66.7,59.93 -67.4,95.94 v 125.28 c 0.4,22.64 9.2,13.25 26.3,3.9 15.9,-8.75 39,-17.49 69.1,-0.12 l 1455.8,560.04 c 115.3,66.55 289.8,73.78 389.7,16.08 l 1114.9,-653.12 c 16.1,-9.32 30.1,5 41.2,19.34 11.9,15.27 20.5,30.56 25,17.13 2.8,-8.65 1,-123.32 1.2,-132.26 1,-44.78 -31.4,-92.26 -95.4,-129.22 l -911.8,-870.24 c -115.4,-66.64 -289.9,-73.82 -389.8,-16.16" style="fill:#84a7dc;fill-opacity:1;fill-rule:evenodd;stroke:none" id="path232"/>
      <path d="m 16217.6,7238.48 -1658.8,963.37 c -99.9,57.7 -87.4,158.45 28,225.04 l 1455.8,559.98 c 115.3,66.61 289.8,73.84 389.7,16.14 l 1114.9,-653.12 c 99.9,-57.69 87.3,-158.44 -28,-225.05 l -911.8,-870.2 c -115.4,-66.64 -289.9,-73.86 -389.8,-16.16" style="fill:#cee8f8;fill-opacity:1;fill-rule:evenodd;stroke:none" id="path234"/>
      <path d="m 17547.2,8349.89 -1114.9,653.12 c -45.2,26.16 -105.8,38.96 -169.3,38.96 -76.5,0 -157.3,-18.67 -220.4,-55.1 l -733.4,-282.12 v 0 l 733.4,282.16 c 63.1,36.39 143.9,55.06 220.4,55.06 63.5,0 124.1,-12.8 169.3,-38.96 z m 67.4,-97.76 c 0,36.62 -22.1,71.6 -67.4,97.76 45.3,-26.16 67.4,-61.14 67.4,-97.76 v 0" style="fill:#e0f0fb;fill-opacity:1;fill-rule:evenodd;stroke:none" id="path236"/>
      <path d="m 17070.1,7696.23 c -29.3,6.44 -56.4,16.14 -79.4,29.38 l -1658.8,963.42 c -8.5,4.89 -15.9,10.23 -22.7,15.72 l 733.4,282.12 c 63.1,36.43 143.9,55.1 220.4,55.1 63.5,0 124.1,-12.8 169.3,-38.96 l 1114.9,-653.12 c 45.3,-26.16 67.4,-61.14 67.4,-97.76 0,-41.38 -28.3,-84.88 -83.6,-120.13 -3.8,-2.42 -7.7,-4.81 -11.8,-7.16 v 0 l -449.1,-428.61" style="fill:#bddef5;fill-opacity:1;fill-rule:evenodd;stroke:none" id="path238"/>
      <path d="m 17519.2,8145.75 -911.9,-870.21 c -115.3,-66.63 -289.8,-73.87 -389.7,-16.17 l -1658.8,963.39 c -41.4,23.92 -63.2,55.3 -66.7,88.55 -5.1,-40.82 16.7,-80.57 66.7,-109.46 l 1658.8,-963.37 c 99.9,-57.7 274.4,-50.48 389.7,16.16 l 911.9,870.2 c 67.5,38.96 99.5,89.62 94.6,136.49 -5.1,-40.66 -37.1,-82.38 -94.6,-115.58" style="fill:#ffffff;fill-opacity:1;fill-rule:evenodd;stroke:none" id="path240"/>
      <path d="m 18791,7185.32 -4510.3,2606.13 c -230.6,133.11 -417.5,490.25 -417.5,797.75 v 3449.4 c 0,307.5 186.9,448.8 417.5,315.7 L 18791,11748.2 c 230.6,-133.2 417.5,-490.4 417.5,-797.8 V 7500.91 c 0,-307.42 -186.9,-448.75 -417.5,-315.59" style="fill:#a6c9ec;fill-opacity:1;fill-rule:evenodd;stroke:none" id="path242"/>
      <path d="M 18844.8,7425.46 14398,9994.49 c -185.6,117.91 -300.4,353.61 -300.4,594.71 l 0.1,3472.1 c 0,57.1 62.2,92.6 111.5,63.8 5.7,-3.4 10.2,-6 13,-7.7 l 4451.5,-2572.3 c 220.9,-127.3 300.3,-353.6 300.3,-594.7 V 7489.22 c 0,-61.3 -66.3,-99.69 -119.4,-69.37 -4.3,2.39 -7.6,4.33 -9.8,5.61" style="fill:#84a7dc;fill-opacity:1;fill-rule:evenodd;stroke:none" id="path244"/>
      <path d="m 18673.7,11545.1 -4451.5,2572.3 c -2.7,1.7 -7.3,4.3 -13,7.7 -49.3,28.8 -111.6,-6.7 -111.6,-63.8 l 0.1,-3472.1 c 0,-241.1 114.7,-476.8 300.3,-594.71 l 4446.8,-2569.03 c 2.2,-1.28 5.5,-3.22 9.8,-5.61 53.1,-30.32 119.4,8.07 119.4,69.33 v 3461.22 c 0,241.1 -79.4,467.4 -300.3,594.7 z m 253.4,-4055.88 c 0,-20.4 -17.2,-33.05 -33.1,-33.05 -5.6,0 -11.1,1.47 -16.3,4.43 l -4456.2,2574.5 c -167.6,106.5 -276.9,324.4 -276.9,554.1 v 3472.1 c 0,16.8 14.1,27.1 27.2,27.1 4.7,0 9.3,-1.3 13.6,-3.8 l 4464.8,-2580.1 c 228.9,-131.9 276.9,-374.1 276.9,-554.1 v -3461.18 0" style="fill:#7c9dd8;fill-opacity:1;fill-rule:evenodd;stroke:none" id="path246"/>
      <path d="M 18909.3,11811 14399,14417.1 c -91.2,52.7 -175.6,62.4 -244.3,35.9 -8.7,-3.4 -125.1,-65.2 -133.3,-69.7 l -0.6,-0.4 c 71.3,34.7 161.5,28.2 259.9,-28.6 L 18791,11748.2 c 230.6,-133.2 417.5,-490.4 417.5,-797.8 V 7500.91 c 0,-191.83 -72.8,-318.96 -183.6,-355.13 9,-0.45 20.3,3.04 36.6,12.51 5.3,3.03 131.6,74.27 136.7,77.8 79.3,55.57 128.6,169.69 128.6,327.71 l 0.1,3449.5 c 0,307.4 -187,664.6 -417.6,797.7" style="fill:#84a7dc;fill-opacity:1;fill-rule:evenodd;stroke:none" id="path248"/>
      <path d="m 18811,11758.2 -4510.3,2606.1 c -94.5,54.6 -181.5,62.4 -251.4,32.1 59.7,9.5 128.3,-4.9 201.3,-47.1 l 4510.3,-2606.1 c 230.6,-133.2 417.5,-490.4 417.5,-797.8 V 7495.92 c 0,-181.35 -65.3,-304.24 -166,-347.78 128.8,20.44 216.1,152.76 216.1,362.84 v 3449.42 c 0,307.5 -186.9,664.6 -417.5,797.8" style="fill:#ffffff;fill-opacity:1;fill-rule:evenodd;stroke:none" id="path250"/>
      <path d="m 17640.4,8674.54 95.7,-55.28 v 81.02 l -95.7,55.32 z m -287.6,165.3 229.6,-131.84 v 81.03 l -229.6,131.86 v -81.05 z m -751,432.43 246.3,-142.12 v 80.97 l -246.3,142.21 v -81.06 z m -301.3,173.01 243.4,-139.54 v 81.02 l -243.4,139.54 v -81.02 z m 605.4,-348.6 389,-223.37 v 81.02 l -389,223.36 v -81.01 z m -1345.6,775.79 v 81.05 l 682.3,-393.71 v -81.06 l -682.3,393.72 z m -57.9,114.48 v -81.03 l -348,204.98 v 81 l 348,-204.95 z m 957.5,-313.86 -1305.5,764.91 v -123 l 1305.5,-764.91 v 123 0" style="fill:#ffffff;fill-opacity:1;fill-rule:evenodd;stroke:none" id="path252"/>
      <path d="m 6804.47,11808.6 657.02,-377.5 -232.12,619.8 z" style="fill:#cee8f8;fill-opacity:1;fill-rule:evenodd;stroke:none" id="path254"/>
      <path d="m 7461.49,11431.1 -216.06,84.8 -521.29,276.2 177.1,-39.1 560.25,-321.9" style="fill:#a6c9ec;fill-opacity:1;fill-rule:evenodd;stroke:none" id="path256"/>
      <path d="m 8016.25,13002.3 v 0 c 49.79,28.7 89.99,98.5 89.84,155.7 -0.18,57.2 -40.67,80.4 -90.4,51.6 -49.79,-28.7 -90.12,-98.5 -89.93,-155.7 0.16,-57.2 40.71,-80.3 90.49,-51.6 z M 7517,12921.7 v 0 c -49.8,-28.7 -90,-98.5 -89.85,-155.7 0.15,-57.2 40.63,-80.4 90.41,-51.6 49.86,28.8 90.07,98.5 89.92,155.7 -0.16,57.2 -40.67,80.4 -90.48,51.6 z m -498.63,-287.9 v 0 c -49.78,-28.7 -89.99,-98.5 -89.83,-155.7 0.14,-57.2 40.61,-80.3 90.41,-51.6 49.79,28.8 90.07,98.5 89.91,155.8 -0.15,57.2 -40.74,80.3 -90.49,51.5 z m -418.79,-1054.9 -3.98,1400 1839.5,1062 3.98,-1400 -472.5,-272.8 -1367,-789.2 v 0" style="fill:#cee8f8;fill-opacity:1;fill-rule:evenodd;stroke:none" id="path258"/>
      <path d="m 8015.69,13209.6 c 49.73,28.8 90.22,5.6 90.4,-51.6 0.15,-57.2 -40.05,-127 -89.84,-155.7 -49.78,-28.7 -90.33,-5.6 -90.49,51.6 -0.19,57.2 40.14,127 89.93,155.7" style="fill:#fffbed;fill-opacity:1;fill-rule:evenodd;stroke:none" id="path260"/>
      <path d="m 7517,12921.7 c 49.81,28.8 90.32,5.6 90.48,-51.6 0.15,-57.2 -40.06,-126.9 -89.92,-155.7 -49.78,-28.8 -90.26,-5.6 -90.41,51.6 -0.15,57.2 40.05,127 89.85,155.7" style="fill:#fffbed;fill-opacity:1;fill-rule:evenodd;stroke:none" id="path262"/>
      <path d="m 7018.37,12633.8 c 49.75,28.8 90.34,5.7 90.49,-51.5 0.16,-57.3 -40.12,-127 -89.91,-155.8 -49.8,-28.7 -90.27,-5.6 -90.41,51.6 -0.16,57.2 40.05,127 89.83,155.7" style="fill:#fffbed;fill-opacity:1;fill-rule:evenodd;stroke:none" id="path264"/>
      <path d="m 8435.1,14040.9 -107.76,62.6 -1839.49,-1062 107.75,-62.6 1839.5,1062" style="fill:#a6c9ec;fill-opacity:1;fill-rule:evenodd;stroke:none" id="path266"/>
      <path d="m 6595.6,12978.9 -107.75,62.6 3.97,-1400 107.76,-62.6 -3.98,1400" style="fill:#a6c9ec;fill-opacity:1;fill-rule:evenodd;stroke:none" id="path268"/>
      <path d="m 7517.56,12714.4 c -49.78,-28.8 -90.26,-5.6 -90.41,51.6 -0.15,57.2 40.05,127 89.85,155.7 49.81,28.8 90.32,5.6 90.48,-51.6 0.15,-57.2 -40.06,-126.9 -89.92,-155.7" style="fill:#ffffff;fill-opacity:1;fill-rule:evenodd;stroke:none" id="path270"/>
      <path d="m 7925.76,13053.9 c -0.19,57.2 40.14,127 89.93,155.7 49.73,28.8 90.22,5.6 90.4,-51.6 0.15,-57.2 -40.05,-127 -89.84,-155.7 -49.78,-28.7 -90.33,-5.6 -90.49,51.6" style="fill:#ffffff;fill-opacity:1;fill-rule:evenodd;stroke:none" id="path272"/>
      <path d="m 7018.95,12426.5 c -49.8,-28.7 -90.27,-5.6 -90.41,51.6 -0.16,57.2 40.05,127 89.83,155.7 49.75,28.8 90.34,5.7 90.49,-51.5 0.16,-57.3 -40.12,-127 -89.91,-155.8" style="fill:#ffffff;fill-opacity:1;fill-rule:evenodd;stroke:none" id="path274"/>
      <path d="m 17196.4,11301.8 -1.6,-0.3 z m -1909.2,1406.9 -1.8,-16.2 c 1.8,5.4 2.4,10.9 1.8,16.2 z m -699.1,-84.4 c -18.2,10.1 -24.7,33.1 -14.6,51.3 10.1,18.2 33.1,24.7 51.3,14.6 l 255.8,-141.8 107.2,164.5 c 11.3,17.4 34.8,22.4 52.2,11.1 9.7,-6.3 15.5,-16.2 16.9,-26.8 l 42,-317.6 115,337.1 c 6.6,19.7 28.1,30.4 47.9,23.7 14.3,-4.9 23.8,-17.5 25.4,-31.7 l 72.5,-453.4 50.9,93.5 c 10,18.2 32.9,25 51.2,15 9,-4.9 15.3,-12.9 18,-22 l 68.9,-224.6 257.5,-9.9 c 12.8,-0.5 23.9,-7.3 30.4,-17.4 l 133.7,-190.7 78.9,213.3 c 7.1,19.6 28.9,29.7 48.5,22.5 11.3,-4.1 19.4,-13.1 22.9,-23.7 l 156.8,-475.9 196.8,156.4 c 14.8,11.8 35.9,10.6 49.4,-2.1 l 177.3,-166.9 135.4,205.5 c 11.5,17.4 34.8,22.2 52.2,10.8 10,-6.5 15.8,-17 16.8,-28 h 0.1 l 49,-511 129.2,598.7 c 4.4,20.4 24.6,33.4 45,29 16.5,-3.5 28.2,-17.5 29.7,-33.6 l 62.7,-511.3 136.8,24.1 c 17.3,3 33.9,-6.2 40.9,-21.5 l 108.9,-210.2 255.8,-12.8 c 14.5,-0.7 26.7,-9.5 32.4,-21.9 h 0.1 l 187.1,-404.7 187.8,-15.3 c 6.6,-0.6 12.7,-2.7 17.8,-6.1 l 342.9,-190.1 c 18.2,-10.1 24.8,-33.1 14.7,-51.3 -10.2,-18.2 -33.1,-24.8 -51.3,-14.7 l -338,187.4 -201.9,16.4 v 0.1 c -13.2,1 -25.4,9 -31.3,21.8 l -186.8,404.1 -253.9,12.8 c -13.4,0.4 -26.1,7.8 -32.6,20.4 l -106.8,206.3 -147.2,-25.9 -3.5,-0.6 c -20.7,-2.5 -39.7,12.2 -42.2,33 l -40.4,329.6 -133.2,-617.4 h -0.2 c -3.4,-15.6 -16.5,-28.1 -33.3,-29.6 -20.7,-2 -39.2,13.3 -41.1,34 l -62.1,646.8 -99.8,-151.4 c -1.5,-2.7 -3.3,-5.2 -5.5,-7.5 -14.2,-15.2 -38.2,-15.9 -53.4,-1.6 l -186.1,175.2 -211.7,-168.2 c -3.8,-3.4 -8.4,-6.2 -13.6,-7.9 -19.8,-6.5 -41.2,4.2 -47.8,24.1 l -139.9,424.6 -66.3,-179.4 -0.1,0.1 c -2.5,-7.1 -7.2,-13.4 -13.8,-18 -17,-11.8 -40.6,-7.7 -52.4,9.3 l -165.3,235.7 -264.6,10.2 c -16,0.1 -30.8,10.5 -35.7,26.6 l -50.4,164.4 -60.9,-111.9 c -5.4,-9.9 -15.3,-17.2 -27.2,-19.1 -20.6,-3.3 -40,10.8 -43.2,31.3 l -66.3,414.6 -118,-345.9 v 0 c -4.6,-13.2 -16.1,-23.4 -30.9,-25.3 -20.6,-2.7 -39.6,11.9 -42.3,32.5 l -49.7,376.3 -70.8,-108.5 c -10.6,-16.5 -32.5,-22.1 -49.9,-12.4 l -286.7,158.9 v 0" style="fill:#ffffff;fill-opacity:1;fill-rule:evenodd;stroke:none" id="path276"/>
      <path d="m 17196.4,10231.3 -1.6,-0.3 z m -1909.2,1407 -1.8,-16.3 c 1.8,5.5 2.4,11 1.8,16.3 z m -699.1,-84.5 c -18.2,10.1 -24.7,33.1 -14.6,51.3 10.1,18.2 33.1,24.8 51.3,14.7 l 255.8,-141.9 107.2,164.5 c 11.3,17.5 34.8,22.4 52.2,11.1 9.7,-6.2 15.5,-16.2 16.9,-26.8 l 42,-317.6 115,337.2 c 6.6,19.7 28.1,30.3 47.9,23.6 14.3,-4.8 23.8,-17.5 25.4,-31.6 l 72.5,-453.5 50.9,93.5 c 10,18.3 32.9,25 51.2,15.1 9,-4.9 15.3,-13 18,-22 l 68.9,-224.6 257.5,-10 c 12.8,-0.4 23.9,-7.3 30.4,-17.3 l 133.7,-190.8 78.9,213.4 c 7.1,19.6 28.9,29.6 48.5,22.5 11.3,-4.2 19.4,-13.1 22.9,-23.7 l 156.8,-475.9 196.8,156.3 c 14.8,11.8 35.9,10.6 49.4,-2 l 177.3,-166.9 135.4,205.4 c 11.5,17.4 34.8,22.2 52.2,10.8 10,-6.5 15.8,-16.9 16.8,-27.9 h 0.1 l 49,-511 129.2,598.7 c 4.4,20.4 24.6,33.4 45,29 16.5,-3.6 28.2,-17.6 29.7,-33.7 l 62.7,-511.2 136.8,24.1 c 17.3,3 33.9,-6.3 40.9,-21.5 l 108.9,-210.2 255.8,-12.9 c 14.5,-0.6 26.7,-9.5 32.4,-21.9 h 0.1 l 187.1,-404.69 187.8,-15.3 c 6.6,-0.53 12.7,-2.65 17.8,-6.06 l 342.9,-190.1 c 18.2,-10.1 24.8,-33.08 14.7,-51.29 -10.2,-18.21 -33.1,-24.76 -51.3,-14.65 l -338,187.32 -201.9,16.44 v 0.07 c -13.2,1.03 -25.4,8.98 -31.3,21.81 l -186.8,404.05 -253.9,12.8 c -13.4,0.4 -26.1,7.8 -32.6,20.5 l -106.8,206.3 -147.2,-26 -3.5,-0.6 c -20.7,-2.5 -39.7,12.3 -42.2,33 l -40.4,329.7 -133.2,-617.5 -0.2,0.04 c -3.4,-15.64 -16.5,-28.07 -33.3,-29.61 -20.7,-1.94 -39.2,13.28 -41.1,34 l -62.1,646.87 -99.8,-151.5 c -1.5,-2.6 -3.3,-5.1 -5.5,-7.4 -14.2,-15.2 -38.2,-15.9 -53.4,-1.7 l -186.1,175.2 -211.7,-168.2 c -3.8,-3.4 -8.4,-6.2 -13.6,-7.9 -19.8,-6.5 -41.2,4.3 -47.8,24.1 l -139.9,424.6 -66.3,-179.3 h -0.1 c -2.5,-7 -7.2,-13.3 -13.8,-17.9 -17,-11.9 -40.6,-7.7 -52.4,9.3 l -165.3,235.6 -264.6,10.2 c -16,0.2 -30.8,10.6 -35.7,26.7 l -50.4,164.4 -60.9,-111.9 c -5.4,-9.9 -15.3,-17.3 -27.2,-19.2 -20.6,-3.3 -40,10.8 -43.2,31.4 l -66.3,414.6 -118,-346 v 0.1 c -4.6,-13.2 -16.1,-23.4 -30.9,-25.4 -20.6,-2.7 -39.6,11.9 -42.3,32.6 l -49.7,376.2 -70.8,-108.5 c -10.6,-16.5 -32.5,-22.1 -49.9,-12.4 l -286.7,158.9 v 0" style="fill:#ffffff;fill-opacity:1;fill-rule:evenodd;stroke:none" id="path278"/>
      <path d="m 13100.4,14046.4 -32.7,37.2 137.2,72.1 4.7,2.4 9.2,4.9 0.5,-0.4 c 255.6,119.8 534.5,-411.9 565.3,-472.8 l 56.7,29.8 9.2,4.8 3.1,1.7 0.1,-0.1 c 114.8,56.9 358.9,104.6 569.4,-344.4 159.6,-340.3 90.1,-543.1 -23.8,-660.5 -7.4,-7.6 -14.9,-15 -22.7,-21.9 -34.7,-31 -72,-54.9 -107.7,-73.3 l 0.2,-0.1 -190.3,-98 -13.8,29.8 c -123.1,-37.8 -277.4,-103.9 -277.4,-103.9 0,0.1 -225.8,357.5 -349,526.3 -50.1,68.5 -153.8,222.5 -240.3,399.9 -7.7,15.9 -15.2,31.9 -22.5,48 -98.7,215.6 -163.6,456.5 -75.4,618.5" style="fill:#a6c9ec;fill-opacity:1;fill-rule:evenodd;stroke:none" id="path280"/>
      <path d="m 13361.9,13785 133.9,-914.1 83.9,150.5 99.2,-57.1 91.8,584.7 133.9,-914.2 83.9,150.4 253.4,-146.3 c 113.9,117.4 183.4,320.2 23.8,660.5 -286.4,611 -635.5,302.2 -635.5,302.2 0,0 -349,711.8 -635.5,431.6 -159.4,-156 -90.1,-438.7 23.6,-687.5 l 251.7,-145.3 91.9,584.6" style="fill:#cee8f8;fill-opacity:1;fill-rule:evenodd;stroke:none" id="path282"/>
      <path d="m 13893.5,12543.6 -121.4,828.8 -71.6,-455.5 -105,60.7 -110.8,-198 -121.5,828.9 -71.5,-455.5 -250.8,144.8 c 86.5,-177.5 190.2,-331.5 240.3,-400 123.2,-168.8 349,-526.2 349,-526.2 0,0 225.9,96.6 349.1,123.2 49.9,10.7 153.5,44.8 240,122.2 l -215.5,124.4 -110.3,-197.8" style="fill:#cee8f8;fill-opacity:1;fill-rule:evenodd;stroke:none" id="path284"/>
      <path d="m 13988.5,12785.2 -83.9,-150.4 -133.9,914.2 -91.8,-584.7 -99.2,57.1 -83.9,-150.5 -133.9,914.1 -91.9,-584.6 -251.7,145.4 c 7.4,-16.2 14.9,-32.2 22.6,-48 l 250.8,-144.8 71.5,455.5 121.5,-828.9 110.8,198 105,-60.7 71.6,455.5 121.4,-828.8 110.3,197.8 215.5,-124.4 c 7.7,6.9 15.2,14.3 22.6,21.9 l -253.4,146.3" style="fill:#ffffff;fill-opacity:1;fill-rule:evenodd;stroke:none" id="path286"/>
      <path d="m 12994.8,5470.4 -55.9,-195.5 c 0,0 -104.7,-190.7 0,-253.5 104.7,-62.9 404.9,39.5 404.9,39.5 0,0 367.6,93.1 276.9,283.9 0,0 -59.1,93 -216.9,46.5 -157.7,-46.5 -220.5,60.5 -220.5,60.5 l -188.5,18.6" style="fill:#172035;fill-opacity:1;fill-rule:evenodd;stroke:none" id="path288"/>
      <path d="m 13539.1,6326.7 c -96.5,-212.8 -225.3,-720.7 -274.4,-910.5 l -0.6,-3.9 c -2.2,-8.2 -3.6,-14.3 -5.3,-20.2 -6.7,-25.4 -10.9,-41.9 -12.8,-47.4 -75.4,-226.5 -307.1,-69.8 -307.1,-69.8 -51.1,577.1 265.2,1172.6 265.2,1172.6 l -84.3,290.47 -73.8,253.99 c 0,0 0,-358.18 0,-397.82 0,-215.24 -120,-754.44 -196,-1072.94 -20.6,-87.7 -37.9,-158.3 -48.8,-201.1 -7,-29 -11.2,-45.2 -11.2,-45.2 l -233.9,37.4 c -3.4,16 -6.5,32.7 -8.7,50.3 -58.4,425.5 154.1,1368.89 154.1,1368.89 0,0 0,0 -111.7,437.51 -111.6,437.24 88.6,744.4 88.6,744.4 l 804.9,-539.43 55.8,-37.37 c 0,0 116.5,-753.94 0,-1009.9" style="fill:#244e9c;fill-opacity:1;fill-rule:evenodd;stroke:none" id="path290"/>
      <path d="m 12587.6,4851.5 c 0,0 -76.8,-16.3 -79.1,67.5 -2.3,83.8 -39.6,460.7 97.7,490.9 137.3,30.3 195.5,-51.2 211.8,-151.2 16.2,-100.1 41.8,-335.1 41.8,-335.1 0,0 0,-51.1 -55.8,-51.1 -55.8,0 -216.4,-21 -216.4,-21" style="fill:#172035;fill-opacity:1;fill-rule:evenodd;stroke:none" id="path292"/>
      <path d="m 13183.1,9039.51 102.4,227.95 c 0,0 -60.4,183.81 41.9,293.15 102.4,109.38 321.1,139.59 321.1,139.59 0,0 111.7,-151.22 104.7,-251.24 -7,-100.03 -48.9,-339.72 -107,-358.35 -58.2,-18.58 -71.5,-23.88 -88.5,-74.46 -16.8,-50.47 -6.6,-193.58 -6.6,-193.58 l -368,216.94" style="fill:#f4a186;fill-opacity:1;fill-rule:evenodd;stroke:none" id="path294"/>
      <path d="m 14291.8,7947.02 131.5,45.4 c 0,0 57,25.63 76.8,51.18 19.8,25.59 36,51.15 83.7,52.37 47.8,1.13 81.5,4.6 100.1,15.13 18.6,10.5 59.3,-3.51 27.9,-37.25 l 122.2,11.62 46.5,-10.49 15.1,-12.75 c 12.7,-15.29 5.7,-30.13 -17,-31.43 h -35.3 l -72.2,-11.62 5.9,-14.01 62.8,5.91 31,-7.31 24.8,-19.53 c 15.3,-20.41 7.2,-40.71 -13.3,-32.91 l -27.4,13.15 h -69.8 l -7,-17.46 h 62.1 l 34.5,-17.42 11.6,-19.79 c 8.9,-18.59 -2,-35.64 -19.5,-23.85 l -27,19.23 -62.8,2.27 -23.3,-23.28 3.1,-4.36 41.6,-13.49 20.4,-26.27 c 14,-23.01 -3.4,-43.5 -24.4,-26.76 l -20.9,17.41 c 0,0 -152.4,-22.1 -201.3,0 -48.9,22.15 -205.9,-10.44 -211.7,-8.1 -5.8,2.28 -68.7,124.41 -68.7,124.41" style="fill:#f4a186;fill-opacity:1;fill-rule:evenodd;stroke:none" id="path296"/>
      <path d="m 12108.7,9843.5 54.1,151.82 c 0,0 1.8,214.68 14,259.98 12.2,45.4 30.2,75.1 30.2,75.1 12.2,25 27.6,31.4 41.3,15.7 l 38.4,50.6 c 16.7,13.6 39.6,17.4 47,2.1 l 28,31.6 c 25.1,29.4 50.7,29.4 43.1,1.2 l -48.3,-153.5 80,154.8 c 21.8,39.4 49.7,33 39.8,-3.1 0,0 -63.9,-176.2 -67.4,-216.3 -3.5,-40.2 0,-71.6 0,-71.6 0,0 34.9,20.9 52.3,57.6 17.5,36.6 66.3,71.5 80.3,52.4 13.9,-19.2 -38.4,-64.6 -41.9,-89.1 -3.5,-24.4 -20.8,-106.4 -59.2,-127.4 -38.5,-20.9 -125.1,-67.53 -136.8,-141.02 -11.6,-73.56 -29.1,-134.63 -29.1,-134.63 l -165.8,83.75" style="fill:#f4a186;fill-opacity:1;fill-rule:evenodd;stroke:none" id="path298"/>
      <path d="m 13013.3,9046.4 c -9.3,0 -167.5,163.86 -167.5,163.86 0,0 -423.5,127.01 -605,124.66 0,0 102.4,556.1 95.4,584 0,0 -125.6,58.22 -218.7,27.94 0,0 -279.2,-604.97 -221,-844.59 0,0 171.1,-215.26 727.8,-301.62 0,0 0,0 1.8,-291.11 1.9,-291.18 387.2,488.06 387.2,488.06 v 48.8" style="fill:#cee8f8;fill-opacity:1;fill-rule:evenodd;stroke:none" id="path300"/>
      <path d="m 12151,6384.6 c 0,0 409.1,-316.3 767.5,-400.1 61.5,-14.3 142.6,-20.1 230.6,-15.9 195.6,9.3 426.1,67.2 556.7,188.9 46,305.5 84.6,487.9 -110.1,1290.56 0,0 -87.3,392.8 -34,703.4 l 1.9,12.76 c 7.8,42.52 18.2,83.45 32.1,121.31 115.5,316.31 194.7,346.07 194.7,346.07 0,0 -251.1,246.44 -474.4,360.06 -223.6,112.74 -377,207.76 -470.5,218.6 -92.7,10.83 -201.6,-353.43 -223.2,-759.82 -44.8,-837.42 -215.2,-1169.99 -471.3,-2065.84" style="fill:#bddef5;fill-opacity:1;fill-rule:evenodd;stroke:none" id="path302"/>
      <path d="m 13116.4,9095.46 c 0,0 69.2,59.82 120.4,57.47 -37.8,-61.97 251.7,-194.14 312.8,-188.76 0,0 4.4,-38.73 27.4,-146.45 -293.7,146.02 -408.2,232.16 -460.6,277.74" style="fill:#ffffff;fill-opacity:1;fill-rule:evenodd;stroke:none" id="path304"/>
      <path d="m 13233.2,9176.71 c 0,0 20.9,-84.96 117.5,-104.68 96.6,-19.8 191,-77.88 271.2,138.49 l 59.2,61.56 51.2,189.67 c 0,0 132.6,173.32 -11.7,288.49 -144.2,115.21 -339.7,59.33 -473.4,-89.6 -133.9,-148.87 -60.5,-336.7 -38.5,-399.27 22.1,-62.55 24.5,-84.66 24.5,-84.66" style="fill:#172035;fill-opacity:1;fill-rule:evenodd;stroke:none" id="path306"/>
      <path d="m 13669.3,9306.98 c 0.8,11.18 0.7,24.31 -8.2,31.05 -6.9,5.19 -16.9,4.32 -24.3,0 -7.4,-4.35 -12.7,-11.59 -17.1,-18.94 -20.8,-34.85 -27.4,-77.98 -18,-117.54 3.5,-14.69 10.9,-30.67 25.4,-34.98 15.7,-4.77 32.5,7.49 38.8,22.74 7.4,17.91 3,33.47 0.3,51.38 -3.3,20.93 1.8,45.2 3.1,66.29" style="fill:#f4a186;fill-opacity:1;fill-rule:evenodd;stroke:none" id="path308"/>
      <path d="m 13149.1,5968.6 c -39.3,9.3 -67.5,15.1 -80.3,15.9 570.9,535.31 199.3,2015.94 419.1,2357.39 l 75.7,-177.67 -1.9,-12.76 c -12.5,-72.76 -17.3,-150.07 -17.2,-225.82 0.1,-247.28 51.2,-477.58 51.2,-477.58 112.9,-465.59 147.4,-722.51 147.4,-915.75 0,-139.91 -18,-246.51 -37.3,-374.81 -130.6,-121.7 -361.1,-179.6 -556.7,-188.9" style="fill:#bddef5;fill-opacity:1;fill-rule:evenodd;stroke:none" id="path310"/>
      <path d="m 13487.9,8341.75 c 0,0 4.7,-577.4 200.1,-698.33 195.5,-120.99 767.9,158.22 767.9,158.22 0,0 32.6,134.93 -32.6,190.78 l -553.8,-49.45 c 0,0 24.5,593.72 -79.1,688.52 -103.6,94.81 -302.5,-289.74 -302.5,-289.74" style="fill:#cee8f8;fill-opacity:1;fill-rule:evenodd;stroke:none" id="path312"/>
    </g>
  </g>
</svg>