<?xml version="1.0" standalone="no"?>
<!DOCTYPE svg PUBLIC "-//W3C//DTD SVG 20010904//EN"
 "http://www.w3.org/TR/2001/REC-SVG-20010904/DTD/svg10.dtd">
<svg version="1.0" xmlns="http://www.w3.org/2000/svg"
 width="1279.000000pt" height="435.000000pt" viewBox="0 0 1279.000000 435.000000"
 preserveAspectRatio="xMidYMid meet">

<g transform="translate(0.000000,435.000000) scale(0.100000,-0.100000)"
fill="#000000" stroke="none">
<path d="M2120 4290 c0 -5 5 -10 10 -10 6 0 10 5 10 10 0 6 -4 10 -10 10 -5 0
-10 -4 -10 -10z"/>
<path d="M2194 4281 c15 -17 58 -33 136 -51 16 -4 29 0 37 10 10 13 15 13 42
-3 32 -19 51 -16 51 9 0 18 -56 19 -111 2 -33 -9 -42 -9 -58 6 -10 9 -25 14
-33 11 -8 -3 -23 3 -33 15 -10 11 -25 20 -33 20 -13 0 -12 -3 2 -19z"/>
<path d="M2330 4289 c0 -5 9 -9 20 -9 11 0 20 2 20 4 0 2 -9 6 -20 9 -11 3
-20 1 -20 -4z"/>
<path d="M2010 4280 c8 -5 24 -9 35 -9 l20 0 -20 9 c-11 5 -27 9 -35 9 -13 1
-13 0 0 -9z"/>
<path d="M2491 4261 c-9 -6 -10 -11 -2 -15 6 -4 16 -4 23 0 6 4 25 11 42 15
30 7 30 7 -9 8 -22 0 -46 -3 -54 -8z"/>
<path d="M1815 4250 c-3 -5 1 -10 9 -10 8 0 18 5 21 10 3 6 -1 10 -9 10 -8 0
-18 -4 -21 -10z"/>
<path d="M2038 4243 c-21 -9 -38 -20 -38 -25 0 -5 4 -7 8 -4 5 3 23 -8 41 -25
19 -16 36 -28 38 -25 3 3 -7 16 -21 29 -33 30 -32 35 1 39 14 2 28 9 31 16 5
15 -13 14 -60 -5z"/>
<path d="M1747 4244 c-14 -14 -8 -64 8 -64 16 0 18 23 6 53 -3 10 -10 15 -14
11z"/>
<path d="M1920 4230 c0 -17 -7 -20 -52 -21 l-53 -1 60 -14 c52 -13 133 -10 97
3 -7 3 -17 16 -22 29 -11 29 -30 32 -30 4z"/>
<path d="M2665 4240 c3 -5 16 -10 28 -9 21 0 21 1 2 9 -28 12 -37 12 -30 0z"/>
<path d="M2124 4229 c-8 -14 14 -29 45 -29 23 0 24 1 6 20 -20 22 -40 26 -51
9z"/>
<path d="M2568 4233 c7 -3 16 -2 19 1 4 3 -2 6 -13 5 -11 0 -14 -3 -6 -6z"/>
<path d="M1632 4209 c5 -17 48 -25 48 -10 0 6 -4 11 -9 11 -5 0 -17 3 -27 7
-12 4 -15 2 -12 -8z"/>
<path d="M2630 4210 c0 -5 5 -10 10 -10 6 0 10 5 10 10 0 6 -4 10 -10 10 -5 0
-10 -4 -10 -10z"/>
<path d="M2277 4196 c-3 -8 -3 -16 0 -19 9 -10 33 5 33 19 0 18 -26 18 -33 0z"/>
<path d="M2520 4200 c-21 -7 -19 -8 18 -9 23 -1 42 4 42 9 0 12 -24 12 -60 0z"/>
<path d="M2814 4194 c4 -9 1 -23 -6 -31 -10 -12 -9 -18 7 -30 18 -13 21 -12
25 9 4 15 13 23 27 23 38 1 35 12 -7 29 -50 20 -54 20 -46 0z"/>
<path d="M2675 4190 c-8 -13 3 -30 21 -30 18 0 18 14 0 29 -10 8 -16 9 -21 1z"/>
<path d="M1483 4173 c-24 -9 -13 -19 22 -20 36 -1 47 10 19 21 -18 7 -23 7
-41 -1z"/>
<path d="M2620 4170 c0 -5 5 -10 10 -10 6 0 10 5 10 10 0 6 -4 10 -10 10 -5 0
-10 -4 -10 -10z"/>
<path d="M1660 4160 c0 -5 6 -10 14 -10 8 0 18 5 21 10 3 6 -3 10 -14 10 -12
0 -21 -4 -21 -10z"/>
<path d="M1784 4161 c3 -5 15 -7 26 -4 28 7 25 13 -6 13 -14 0 -23 -4 -20 -9z"/>
<path d="M2160 4155 c-8 -9 -8 -15 -2 -15 18 0 42 12 42 21 0 14 -26 10 -40
-6z"/>
<path d="M2375 4160 c3 -5 18 -10 33 -10 21 0 24 2 12 10 -20 13 -53 13 -45 0z"/>
<path d="M2560 4160 c0 -5 5 -10 10 -10 6 0 10 5 10 10 0 6 -4 10 -10 10 -5 0
-10 -4 -10 -10z"/>
<path d="M2257 4153 c-10 -10 -8 -45 2 -39 11 7 21 46 12 46 -4 0 -11 -3 -14
-7z"/>
<path d="M2893 4136 c2 -6 17 -12 33 -14 16 -1 45 -7 64 -13 22 -7 44 -7 60
-1 22 8 20 9 -17 9 -24 0 -48 5 -55 10 -18 15 -89 22 -85 9z"/>
<path d="M1568 4132 c-10 -2 -18 -8 -18 -13 0 -12 47 -12 54 0 7 11 -13 19
-36 13z"/>
<path d="M1870 4121 c-15 -29 1 -31 39 -4 l34 23 -31 0 c-21 0 -35 -7 -42 -19z"/>
<path d="M2490 4131 c0 -11 26 -22 34 -14 3 3 3 10 0 14 -7 12 -34 11 -34 0z"/>
<path d="M2612 4133 c-6 -3 -10 -9 -6 -14 7 -12 44 -12 44 0 0 11 -21 19 -38
14z"/>
<path d="M1435 4114 c-11 -8 -30 -12 -41 -10 -17 5 -23 0 -28 -19 -4 -14 -13
-25 -21 -25 -8 0 -15 -7 -15 -15 0 -13 4 -14 23 -4 12 6 30 18 39 26 9 9 32
18 50 22 19 4 34 14 36 24 4 21 -16 22 -43 1z"/>
<path d="M1690 4120 c0 -5 7 -7 15 -4 8 4 15 8 15 10 0 2 -7 4 -15 4 -8 0 -15
-4 -15 -10z"/>
<path d="M1730 4126 c0 -9 30 -14 35 -6 4 6 -3 10 -14 10 -12 0 -21 -2 -21 -4z"/>
<path d="M1975 4110 c3 -5 8 -10 11 -10 2 0 4 5 4 10 0 6 -5 10 -11 10 -5 0
-7 -4 -4 -10z"/>
<path d="M2854 4107 c4 -11 -2 -29 -14 -44 -26 -33 -15 -49 16 -24 28 22 114
27 147 9 14 -7 22 -5 32 9 15 21 9 39 -9 24 -6 -5 -38 -10 -71 -10 -53 0 -63
4 -83 27 -17 19 -22 21 -18 9z"/>
<path d="M1290 4088 c-19 -13 -46 -33 -60 -45 -24 -23 -24 -23 -3 -23 13 0 30
12 43 30 12 17 27 30 33 30 7 0 21 7 31 15 32 24 -4 18 -44 -7z"/>
<path d="M2115 4100 c-3 -5 1 -10 10 -10 9 0 13 5 10 10 -3 6 -8 10 -10 10 -2
0 -7 -4 -10 -10z"/>
<path d="M2375 4100 c-3 -5 3 -10 14 -10 12 0 21 5 21 10 0 6 -6 10 -14 10 -8
0 -18 -4 -21 -10z"/>
<path d="M1796 4091 c-3 -5 1 -12 10 -15 20 -8 29 -1 19 13 -8 13 -22 14 -29
2z"/>
<path d="M2475 4090 c-4 -6 3 -10 14 -10 25 0 27 6 6 13 -8 4 -17 2 -20 -3z"/>
<path d="M1626 4074 c-9 -22 3 -32 14 -14 12 19 12 30 1 30 -5 0 -12 -7 -15
-16z"/>
<path d="M2700 4080 c0 -11 14 -11 50 0 22 7 21 8 -12 9 -21 1 -38 -3 -38 -9z"/>
<path d="M1469 4049 c-15 -16 -21 -29 -15 -29 17 0 60 47 49 53 -4 3 -20 -8
-34 -24z"/>
<path d="M3150 4061 c0 -8 34 -21 55 -21 11 1 -35 29 -47 30 -5 0 -8 -4 -8 -9z"/>
<path d="M1928 4035 c-3 -14 -1 -25 3 -25 5 0 9 4 9 9 0 5 3 16 6 25 3 9 2 16
-4 16 -5 0 -12 -11 -14 -25z"/>
<path d="M2555 4050 c-3 -5 1 -10 10 -10 9 0 13 5 10 10 -3 6 -8 10 -10 10 -2
0 -7 -4 -10 -10z"/>
<path d="M2040 4040 c0 -5 5 -10 10 -10 6 0 10 5 10 10 0 6 -4 10 -10 10 -5 0
-10 -4 -10 -10z"/>
<path d="M1514 4028 c-3 -4 13 -8 35 -8 23 0 41 3 41 8 0 10 -70 11 -76 0z"/>
<path d="M2480 4020 c0 -5 5 -10 11 -10 5 0 7 5 4 10 -3 6 -8 10 -11 10 -2 0
-4 -4 -4 -10z"/>
<path d="M2655 4020 c3 -5 10 -10 16 -10 5 0 9 5 9 10 0 6 -7 10 -16 10 -8 0
-12 -4 -9 -10z"/>
<path d="M1141 4011 c-9 -6 -10 -10 -2 -16 9 -5 9 -10 0 -21 -10 -12 -4 -13
35 -9 59 6 60 -8 6 -66 -22 -23 -37 -45 -35 -48 8 -7 95 81 95 95 0 7 -11 21
-25 32 -14 11 -25 25 -25 31 0 13 -29 14 -49 2z"/>
<path d="M1279 3994 c-21 -23 -22 -26 -5 -23 19 4 56 49 39 49 -5 0 -20 -12
-34 -26z"/>
<path d="M1731 3999 c-9 -15 -19 -19 -36 -15 -13 3 -27 2 -30 -4 -4 -6 8 -10
29 -10 26 0 38 6 46 21 15 27 8 34 -9 8z"/>
<path d="M2943 4009 c-8 -8 -1 -20 25 -45 20 -19 40 -34 44 -34 15 0 -3 27
-26 40 -16 8 -22 18 -19 31 6 21 -7 25 -24 8z"/>
<path d="M1580 3989 c0 -5 5 -7 10 -4 6 3 10 8 10 11 0 2 -4 4 -10 4 -5 0 -10
-5 -10 -11z"/>
<path d="M1350 3975 c7 -8 16 -15 20 -15 3 0 7 7 7 15 0 8 -9 15 -20 15 -16 0
-17 -3 -7 -15z"/>
<path d="M2655 3980 c3 -5 10 -10 16 -10 5 0 9 5 9 10 0 6 -7 10 -16 10 -8 0
-12 -4 -9 -10z"/>
<path d="M2810 3986 c0 -2 7 -6 15 -10 8 -3 15 -1 15 4 0 6 -7 10 -15 10 -8 0
-15 -2 -15 -4z"/>
<path d="M2888 3978 c9 -9 15 -9 24 0 9 9 7 12 -12 12 -19 0 -21 -3 -12 -12z"/>
<path d="M3074 3975 c-18 -14 -17 -14 14 -15 22 0 32 5 32 15 0 19 -21 19 -46
0z"/>
<path d="M1410 3970 c0 -5 9 -10 20 -10 11 0 20 5 20 10 0 6 -9 10 -20 10 -11
0 -20 -4 -20 -10z"/>
<path d="M1810 3970 c0 -5 7 -7 15 -4 8 4 15 8 15 10 0 2 -7 4 -15 4 -8 0 -15
-4 -15 -10z"/>
<path d="M3192 3957 c3 -24 21 -27 26 -4 2 8 -4 17 -13 21 -13 4 -16 1 -13
-17z"/>
<path d="M1075 3960 c-3 -5 -1 -10 4 -10 6 0 11 5 11 10 0 6 -2 10 -4 10 -3 0
-8 -4 -11 -10z"/>
<path d="M2585 3950 c3 -5 13 -10 21 -10 8 0 12 5 9 10 -3 6 -13 10 -21 10 -8
0 -12 -4 -9 -10z"/>
<path d="M2825 3950 c3 -5 8 -10 11 -10 2 0 4 5 4 10 0 6 -5 10 -11 10 -5 0
-7 -4 -4 -10z"/>
<path d="M3296 3945 c4 -8 10 -15 15 -15 5 0 9 7 9 15 0 8 -7 15 -15 15 -9 0
-12 -6 -9 -15z"/>
<path d="M1528 3943 c7 -3 16 -2 19 1 4 3 -2 6 -13 5 -11 0 -14 -3 -6 -6z"/>
<path d="M1345 3930 c-3 -5 -1 -10 4 -10 6 0 11 5 11 10 0 6 -2 10 -4 10 -3 0
-8 -4 -11 -10z"/>
<path d="M1032 3911 c-24 -14 29 -18 68 -4 l35 12 -45 0 c-25 1 -51 -3 -58 -8z"/>
<path d="M3285 3900 c3 -5 13 -10 21 -10 8 0 12 5 9 10 -3 6 -13 10 -21 10 -8
0 -12 -4 -9 -10z"/>
<path d="M980 3890 c0 -5 7 -7 15 -4 8 4 15 8 15 10 0 2 -7 4 -15 4 -8 0 -15
-4 -15 -10z"/>
<path d="M1490 3890 c0 -5 5 -10 10 -10 6 0 10 5 10 10 0 6 -4 10 -10 10 -5 0
-10 -4 -10 -10z"/>
<path d="M3372 3888 c-16 -16 -15 -28 3 -28 8 0 15 2 15 4 0 2 3 11 6 20 7 19
-7 21 -24 4z"/>
<path d="M3187 3883 c-12 -11 -8 -23 7 -23 7 0 19 7 26 15 10 12 9 15 -7 15
-11 0 -23 -3 -26 -7z"/>
<path d="M1265 3870 c-3 -5 -2 -10 4 -10 5 0 13 5 16 10 3 6 2 10 -4 10 -5 0
-13 -4 -16 -10z"/>
<path d="M3030 3869 c0 -5 5 -7 10 -4 6 3 10 8 10 11 0 2 -4 4 -10 4 -5 0 -10
-5 -10 -11z"/>
<path d="M930 3860 c0 -5 5 -10 10 -10 6 0 10 5 10 10 0 6 -4 10 -10 10 -5 0
-10 -4 -10 -10z"/>
<path d="M1015 3860 c-3 -5 1 -10 10 -10 9 0 13 5 10 10 -3 6 -8 10 -10 10 -2
0 -7 -4 -10 -10z"/>
<path d="M2635 3860 c3 -5 8 -10 11 -10 2 0 4 5 4 10 0 6 -5 10 -11 10 -5 0
-7 -4 -4 -10z"/>
<path d="M2020 3852 c0 -5 7 -13 16 -16 10 -4 14 -1 12 6 -5 15 -28 23 -28 10z"/>
<path d="M3110 3850 c0 -5 5 -10 11 -10 5 0 7 5 4 10 -3 6 -8 10 -11 10 -2 0
-4 -4 -4 -10z"/>
<path d="M3280 3853 c0 -13 29 -38 35 -31 3 3 -4 13 -15 23 -11 10 -20 13 -20
8z"/>
<path d="M3450 3851 c0 -12 39 -25 48 -16 7 7 -17 25 -35 25 -7 0 -13 -4 -13
-9z"/>
<path d="M1630 3840 c0 -5 5 -10 10 -10 6 0 10 5 10 10 0 6 -4 10 -10 10 -5 0
-10 -4 -10 -10z"/>
<path d="M1048 3833 c-10 -2 -18 -9 -18 -14 0 -15 53 -6 58 9 4 12 -8 14 -40
5z"/>
<path d="M866 3822 c-3 -6 3 -12 15 -15 12 -3 19 -1 16 6 -5 15 -24 20 -31 9z"/>
<path d="M931 3801 c-26 -37 -27 -49 -1 -26 13 12 27 15 44 11 34 -8 41 8 11
28 -31 21 -30 21 -54 -13z"/>
<path d="M3355 3821 c-6 -10 25 -31 46 -31 8 0 5 7 -6 20 -20 22 -31 25 -40
11z"/>
<path d="M3425 3820 c3 -5 10 -10 16 -10 5 0 9 5 9 10 0 6 -7 10 -16 10 -8 0
-12 -4 -9 -10z"/>
<path d="M2825 3810 c4 -6 11 -8 16 -5 14 9 11 15 -7 15 -8 0 -12 -5 -9 -10z"/>
<path d="M1460 3798 c0 -18 18 -34 28 -24 3 4 -2 14 -11 23 -16 16 -17 16 -17
1z"/>
<path d="M3461 3778 c-1 -18 5 -29 17 -33 11 -3 24 -17 31 -31 6 -15 14 -24
18 -21 3 4 0 13 -7 22 -17 20 -6 43 25 55 15 6 23 15 20 20 -8 13 -47 2 -58
-16 -11 -20 -22 -17 -35 9 -11 22 -11 22 -11 -5z"/>
<path d="M1140 3779 c0 -5 5 -7 10 -4 6 3 10 8 10 11 0 2 -4 4 -10 4 -5 0 -10
-5 -10 -11z"/>
<path d="M1352 3779 c2 -6 8 -10 13 -10 5 0 11 4 13 10 2 6 -4 11 -13 11 -9 0
-15 -5 -13 -11z"/>
<path d="M1737 3770 c3 -11 7 -20 9 -20 2 0 4 9 4 20 0 11 -4 20 -9 20 -5 0
-7 -9 -4 -20z"/>
<path d="M817 3773 c-14 -13 -7 -33 11 -33 26 0 34 11 21 27 -13 14 -22 16
-32 6z"/>
<path d="M3150 3772 c0 -13 27 -35 39 -30 5 1 -2 11 -15 21 -13 10 -24 14 -24
9z"/>
<path d="M1180 3760 c0 -5 5 -10 10 -10 6 0 10 5 10 10 0 6 -4 10 -10 10 -5 0
-10 -4 -10 -10z"/>
<path d="M1418 3763 c7 -3 16 -2 19 1 4 3 -2 6 -13 5 -11 0 -14 -3 -6 -6z"/>
<path d="M960 3750 c-8 -5 -12 -11 -9 -14 7 -8 49 5 49 15 0 12 -21 11 -40 -1z"/>
<path d="M3611 3726 c-9 -10 -8 -15 3 -19 16 -7 26 1 26 20 0 17 -14 17 -29
-1z"/>
<path d="M1065 3720 c-3 -5 -1 -10 4 -10 6 0 11 5 11 10 0 6 -2 10 -4 10 -3 0
-8 -4 -11 -10z"/>
<path d="M1780 3719 c0 -5 5 -7 10 -4 6 3 10 8 10 11 0 2 -4 4 -10 4 -5 0 -10
-5 -10 -11z"/>
<path d="M3374 3721 c8 -12 66 -32 66 -22 0 4 -5 12 -12 19 -14 14 -62 17 -54
3z"/>
<path d="M753 3708 c-13 -6 -23 -15 -23 -20 0 -15 27 -8 45 12 20 22 12 25
-22 8z"/>
<path d="M3030 3710 c0 -5 5 -10 11 -10 5 0 7 5 4 10 -3 6 -8 10 -11 10 -2 0
-4 -4 -4 -10z"/>
<path d="M845 3679 c-20 -20 -25 -29 -15 -29 22 0 60 29 60 46 0 21 -11 17
-45 -17z"/>
<path d="M3550 3706 c0 -9 73 -47 84 -43 6 2 -9 14 -33 25 -47 23 -51 24 -51
18z"/>
<path d="M1155 3690 c-3 -5 -2 -10 4 -10 5 0 13 5 16 10 3 6 2 10 -4 10 -5 0
-13 -4 -16 -10z"/>
<path d="M736 3649 c-15 -12 -25 -23 -23 -25 8 -8 67 28 62 37 -8 12 -8 12
-39 -12z"/>
<path d="M890 3649 c0 -5 5 -7 10 -4 6 3 10 8 10 11 0 2 -4 4 -10 4 -5 0 -10
-5 -10 -11z"/>
<path d="M1250 3650 c0 -5 5 -10 10 -10 6 0 10 5 10 10 0 6 -4 10 -10 10 -5 0
-10 -4 -10 -10z"/>
<path d="M2755 3650 c-3 -5 -1 -10 4 -10 6 0 11 5 11 10 0 6 -2 10 -4 10 -3 0
-8 -4 -11 -10z"/>
<path d="M3510 3650 c0 -5 5 -10 11 -10 5 0 7 5 4 10 -3 6 -8 10 -11 10 -2 0
-4 -4 -4 -10z"/>
<path d="M3366 3630 c-15 -5 -16 -9 -7 -14 7 -5 18 -3 24 3 14 14 6 20 -17 11z"/>
<path d="M3565 3610 c-3 -5 1 -10 9 -10 9 0 16 5 16 10 0 6 -4 10 -9 10 -6 0
-13 -4 -16 -10z"/>
<path d="M3630 3617 c0 -2 9 -14 20 -27 11 -13 20 -32 20 -44 0 -13 3 -17 10
-10 17 17 -8 84 -30 84 -11 0 -20 -2 -20 -3z"/>
<path d="M3730 3604 c0 -11 7 -29 15 -40 14 -19 14 -19 15 2 0 11 -7 29 -15
40 -14 19 -14 19 -15 -2z"/>
<path d="M652 3599 c-36 -11 -35 -29 2 -29 22 0 46 17 46 32 0 9 -5 9 -48 -3z"/>
<path d="M1075 3600 c-3 -5 -1 -10 4 -10 6 0 11 5 11 10 0 6 -2 10 -4 10 -3 0
-8 -4 -11 -10z"/>
<path d="M3036 3594 c-4 -10 -1 -14 6 -12 15 5 23 28 10 28 -5 0 -13 -7 -16
-16z"/>
<path d="M727 3573 c-16 -15 -5 -25 21 -18 41 10 51 25 16 25 -17 0 -34 -3
-37 -7z"/>
<path d="M845 3570 c-3 -5 -1 -10 4 -10 6 0 11 5 11 10 0 6 -2 10 -4 10 -3 0
-8 -4 -11 -10z"/>
<path d="M960 3570 c0 -5 5 -10 10 -10 6 0 10 5 10 10 0 6 -4 10 -10 10 -5 0
-10 -4 -10 -10z"/>
<path d="M887 3563 c-4 -3 -7 -11 -7 -17 0 -6 5 -5 12 2 6 6 9 14 7 17 -3 3
-9 2 -12 -2z"/>
<path d="M3275 3540 c3 -5 8 -10 11 -10 2 0 4 5 4 10 0 6 -5 10 -11 10 -5 0
-7 -4 -4 -10z"/>
<path d="M3557 3543 c-12 -11 -8 -23 8 -23 8 0 15 7 15 15 0 16 -12 20 -23 8z"/>
<path d="M1670 3524 c-204 -55 -356 -199 -426 -404 -27 -77 -25 -271 2 -350
36 -103 83 -176 167 -258 162 -159 222 -201 656 -460 11 -6 -19 -31 -115 -93
-71 -47 -166 -115 -212 -152 l-83 -67 -47 24 c-144 72 -279 73 -422 1 -44 -22
-260 -227 -281 -267 -18 -33 -3 -59 70 -132 57 -57 76 -69 102 -69 36 0 68 33
69 70 0 13 -16 41 -37 64 l-36 40 59 61 c32 33 84 77 114 97 54 35 58 36 150
36 86 0 100 -3 142 -28 90 -53 149 -150 150 -248 2 -93 -26 -152 -118 -248
l-81 -86 -43 39 c-36 32 -47 37 -74 32 -38 -8 -56 -30 -56 -71 0 -26 13 -44
74 -103 103 -100 101 -100 245 46 134 135 174 200 192 310 15 92 0 190 -41
271 l-29 58 62 50 c94 76 158 120 290 199 l121 73 45 -26 c138 -78 435 -292
479 -345 8 -11 4 -28 -21 -78 -29 -61 -31 -72 -32 -175 0 -108 1 -113 38 -187
155 -315 600 -310 753 8 108 226 -4 493 -243 575 -105 36 -262 20 -348 -37
-30 -20 -15 -28 -147 82 -83 70 -239 183 -283 207 -17 9 -43 27 -59 39 l-28
24 124 72 c342 196 594 404 667 550 53 107 65 158 65 277 0 155 -30 244 -127
373 -188 249 -567 295 -824 102 -29 -22 -55 -40 -59 -40 -4 0 -30 18 -58 40
-61 46 -138 83 -221 105 -74 19 -212 18 -285 -1z m248 -141 c86 -21 163 -67
232 -137 67 -69 102 -74 147 -23 34 39 117 106 158 129 38 20 154 48 202 48
106 0 248 -65 324 -148 147 -161 163 -386 41 -562 -89 -127 -398 -353 -717
-524 l-70 -38 -170 98 c-281 160 -491 312 -589 425 -51 58 -92 148 -106 235
-37 215 120 445 341 499 76 18 129 18 207 -2z m1332 -1812 c101 -52 161 -176
139 -284 -37 -180 -219 -276 -381 -203 -96 43 -168 149 -168 246 0 49 30 130
65 176 78 102 221 129 345 65z"/>
<path d="M3057 1410 c-54 -42 -43 -126 21 -163 61 -36 132 9 132 82 0 53 -7
69 -41 86 -39 21 -82 19 -112 -5z"/>
<path d="M3630 3530 c0 -5 7 -10 16 -10 8 0 12 5 9 10 -3 6 -10 10 -16 10 -5
0 -9 -4 -9 -10z"/>
<path d="M3765 3520 c3 -5 8 -10 11 -10 2 0 4 5 4 10 0 6 -5 10 -11 10 -5 0
-7 -4 -4 -10z"/>
<path d="M565 3510 c-7 -12 2 -30 16 -30 5 0 9 9 9 20 0 21 -15 27 -25 10z"/>
<path d="M3830 3508 c0 -9 7 -19 16 -22 15 -6 15 -4 3 11 -7 10 -15 20 -16 22
-2 2 -3 -3 -3 -11z"/>
<path d="M630 3499 c0 -5 5 -7 10 -4 6 3 10 8 10 11 0 2 -4 4 -10 4 -5 0 -10
-5 -10 -11z"/>
<path d="M730 3489 c0 -5 5 -7 10 -4 6 3 10 8 10 11 0 2 -4 4 -10 4 -5 0 -10
-5 -10 -11z"/>
<path d="M9710 3493 c-251 -41 -413 -107 -576 -234 -209 -164 -347 -381 -414
-649 -31 -123 -34 -340 -6 -465 43 -195 128 -381 219 -482 l20 -23 -24 -26
c-83 -91 -136 -135 -173 -145 -33 -9 -70 -40 -191 -159 -82 -82 -196 -193
-251 -247 -113 -109 -134 -141 -134 -207 0 -40 5 -51 43 -90 29 -31 53 -46 80
-51 77 -15 97 0 376 274 245 241 261 259 275 309 15 51 24 63 129 161 l26 24
38 -30 c121 -95 262 -161 448 -210 100 -26 390 -26 490 0 96 25 200 63 260 95
395 210 627 582 627 1007 0 438 -221 809 -607 1019 -113 61 -217 96 -354 120
-86 15 -239 19 -301 9z m350 -47 c205 -40 397 -144 558 -303 178 -176 283
-391 317 -652 19 -148 19 -186 -4 -312 -29 -161 -61 -247 -142 -384 -103 -176
-274 -335 -454 -424 -123 -61 -192 -84 -316 -105 -316 -53 -615 25 -882 228
l-36 28 -77 -76 c-43 -42 -81 -76 -86 -76 -13 0 -98 81 -98 94 0 6 34 45 75
86 41 41 75 78 75 82 0 4 -23 38 -51 75 -162 216 -246 544 -205 803 16 99 50
233 66 255 4 6 13 26 20 45 44 111 176 289 282 381 167 144 356 232 563 264
106 17 286 13 395 -9z m-1199 -2053 c50 -48 59 -61 59 -92 0 -33 -16 -51 -256
-286 -141 -137 -269 -256 -286 -263 -56 -24 -128 2 -157 55 -15 30 -14 78 4
112 8 16 123 135 257 266 213 208 277 263 311 265 5 0 35 -25 68 -57z"/>
<path d="M9735 3314 c-94 -10 -245 -55 -335 -100 -107 -53 -243 -168 -325
-275 -259 -335 -259 -822 0 -1159 137 -178 317 -293 555 -357 103 -27 320 -24
435 6 301 78 553 300 662 581 53 137 58 166 58 350 -1 177 -8 226 -55 345 -94
243 -302 452 -540 545 -134 52 -320 78 -455 64z m239 -39 c114 -19 201 -47
296 -98 206 -109 370 -298 444 -513 22 -63 56 -231 56 -276 0 -19 -53 -46
-236 -119 l-105 -42 -22 21 c-31 29 -70 42 -130 42 -50 1 -53 2 -87 48 -32 43
-35 53 -35 119 0 65 -3 75 -31 109 -96 119 -284 52 -284 -100 0 -43 -3 -47
-62 -96 -49 -39 -70 -50 -98 -50 -44 0 -57 10 -100 78 -30 49 -32 57 -22 86
17 45 15 121 -3 156 -25 48 -81 80 -140 80 -60 0 -105 -24 -137 -75 l-23 -35
-151 0 c-83 0 -153 3 -157 6 -3 3 -2 14 3 23 4 9 16 37 24 62 32 90 119 222
202 306 216 218 507 316 798 268z m-487 -600 c41 -27 65 -75 60 -121 -14 -139
-195 -171 -252 -45 -53 119 83 237 192 166z m569 -91 c40 -19 74 -73 74 -118
0 -39 -35 -95 -70 -113 -14 -7 -40 -13 -58 -13 -120 0 -184 129 -105 212 47
50 98 61 159 32z m-797 -62 c10 -28 27 -62 37 -73 42 -47 124 -62 191 -34 19
8 36 15 38 15 1 0 16 -22 33 -49 33 -50 39 -71 22 -71 -5 0 -25 -16 -44 -35
-95 -95 -23 -275 111 -275 146 0 220 159 126 271 l-27 32 43 38 c50 45 61 47
87 18 54 -61 149 -71 219 -23 20 13 37 24 39 24 1 0 17 -20 35 -45 l33 -46
-31 -34 c-50 -58 -52 -153 -3 -211 46 -55 143 -71 206 -33 54 31 80 82 81 153
0 53 2 60 25 69 56 23 89 37 179 76 60 26 98 38 104 32 11 -11 -17 -181 -43
-256 -84 -244 -273 -453 -498 -551 -31 -14 -64 -29 -73 -34 -42 -22 -215 -50
-313 -50 -297 0 -556 130 -740 370 -148 194 -213 449 -175 693 6 40 16 75 23
79 6 5 75 7 154 5 l143 -2 18 -53z m465 -241 c40 -26 55 -57 56 -109 0 -82
-48 -132 -127 -132 -50 0 -82 18 -110 59 -41 61 -27 134 34 175 46 32 105 34
147 7z m633 -41 c45 -27 66 -73 60 -127 -8 -76 -70 -121 -151 -109 -92 14
-137 119 -86 202 34 54 118 70 177 34z"/>
<path d="M663 3475 c-8 -22 6 -33 17 -15 13 20 12 30 0 30 -6 0 -13 -7 -17
-15z"/>
<path d="M3715 3480 c-3 -6 1 -13 10 -16 19 -8 30 0 20 15 -8 14 -22 14 -30 1z"/>
<path d="M771 3464 c0 -11 3 -14 6 -6 3 7 2 16 -1 19 -3 4 -6 -2 -5 -13z"/>
<path d="M895 3470 c-3 -5 -1 -10 4 -10 6 0 11 5 11 10 0 6 -2 10 -4 10 -3 0
-8 -4 -11 -10z"/>
<path d="M3640 3455 c7 -9 15 -13 17 -11 7 7 -7 26 -19 26 -6 0 -6 -6 2 -15z"/>
<path d="M541 3436 c-8 -9 -11 -19 -7 -23 9 -9 29 13 24 27 -2 8 -8 7 -17 -4z"/>
<path d="M790 3440 c-8 -5 -12 -12 -9 -15 8 -8 39 5 39 16 0 11 -11 11 -30 -1z"/>
<path d="M3292 3429 c2 -7 10 -15 17 -17 8 -3 12 1 9 9 -2 7 -10 15 -17 17 -8
3 -12 -1 -9 -9z"/>
<path d="M925 3410 c-4 -6 4 -19 17 -29 30 -25 35 -18 10 14 -12 15 -23 21
-27 15z"/>
<path d="M3807 3413 c-9 -9 12 -33 29 -33 17 0 18 12 2 28 -14 14 -22 15 -31
5z"/>
<path d="M3886 3395 c-3 -8 6 -37 19 -64 14 -27 25 -58 25 -69 0 -22 25 -47
39 -38 5 3 22 1 37 -4 35 -14 41 -7 15 19 -17 17 -25 19 -41 11 -28 -15 -40
-5 -40 34 0 19 -7 39 -15 46 -8 7 -15 28 -15 46 0 35 -13 46 -24 19z"/>
<path d="M647 3394 c-9 -10 12 -46 24 -39 14 9 11 45 -4 45 -8 0 -17 -3 -20
-6z"/>
<path d="M3770 3391 c0 -5 5 -13 10 -16 6 -3 10 -2 10 4 0 5 -4 13 -10 16 -5
3 -10 2 -10 -4z"/>
<path d="M3640 3380 c0 -5 5 -10 11 -10 5 0 7 5 4 10 -3 6 -8 10 -11 10 -2 0
-4 -4 -4 -10z"/>
<path d="M515 3369 c-4 -6 -5 -13 -2 -16 7 -7 27 6 27 18 0 12 -17 12 -25 -2z"/>
<path d="M3710 3354 c0 -8 5 -12 10 -9 6 3 10 10 10 16 0 5 -4 9 -10 9 -5 0
-10 -7 -10 -16z"/>
<path d="M580 3350 c0 -5 5 -10 10 -10 6 0 10 5 10 10 0 6 -4 10 -10 10 -5 0
-10 -4 -10 -10z"/>
<path d="M755 3350 c-3 -5 -1 -10 4 -10 6 0 11 5 11 10 0 6 -2 10 -4 10 -3 0
-8 -4 -11 -10z"/>
<path d="M3685 3331 c-3 -5 -1 -12 5 -16 5 -3 10 1 10 9 0 18 -6 21 -15 7z"/>
<path d="M3850 3331 c0 -5 5 -13 10 -16 6 -3 10 -2 10 4 0 5 -4 13 -10 16 -5
3 -10 2 -10 -4z"/>
<path d="M405 3280 l-16 -31 31 16 c30 16 36 35 12 43 -6 2 -18 -11 -27 -28z"/>
<path d="M511 3292 c-7 -13 -11 -26 -8 -28 8 -8 29 25 25 38 -3 8 -9 4 -17
-10z"/>
<path d="M3770 3300 c0 -5 5 -10 11 -10 5 0 7 5 4 10 -3 6 -8 10 -11 10 -2 0
-4 -4 -4 -10z"/>
<path d="M3830 3267 c0 -7 7 -22 15 -33 12 -16 14 -17 15 -2 0 23 -11 48 -21
48 -5 0 -9 -6 -9 -13z"/>
<path d="M457 3264 c-9 -15 -2 -67 10 -71 6 -2 15 3 22 11 9 11 9 17 -2 28 -8
7 -16 20 -19 28 -2 8 -7 10 -11 4z"/>
<path d="M610 3219 c0 -5 5 -7 10 -4 6 3 10 8 10 11 0 2 -4 4 -10 4 -5 0 -10
-5 -10 -11z"/>
<path d="M390 3189 c0 -5 5 -7 10 -4 6 3 10 8 10 11 0 2 -4 4 -10 4 -5 0 -10
-5 -10 -11z"/>
<path d="M686 3181 c-4 -7 -5 -15 -2 -18 9 -9 19 4 14 18 -4 11 -6 11 -12 0z"/>
<path d="M3810 3180 c0 -5 5 -10 11 -10 5 0 7 5 4 10 -3 6 -8 10 -11 10 -2 0
-4 -4 -4 -10z"/>
<path d="M527 3173 c-10 -9 -9 -23 2 -23 5 0 11 7 15 15 5 15 -5 20 -17 8z"/>
<path d="M4000 3168 c0 -7 4 -19 9 -27 11 -17 25 3 17 24 -7 18 -26 20 -26 3z"/>
<path d="M4050 3170 c0 -5 5 -10 10 -10 6 0 10 5 10 10 0 6 -4 10 -10 10 -5 0
-10 -4 -10 -10z"/>
<path d="M423 3120 c-2 -49 9 -66 21 -34 7 19 -3 84 -13 84 -3 0 -7 -23 -8
-50z"/>
<path d="M3940 3164 c0 -19 24 -84 32 -84 11 0 10 17 -2 25 -5 3 -10 17 -10
30 0 13 -4 27 -10 30 -5 3 -10 3 -10 -1z"/>
<path d="M3560 3150 c0 -5 5 -10 11 -10 5 0 7 5 4 10 -3 6 -8 10 -11 10 -2 0
-4 -4 -4 -10z"/>
<path d="M310 3110 c-14 -27 -8 -34 20 -25 12 4 20 13 18 23 -5 24 -25 25 -38
2z"/>
<path d="M4036 3111 c-19 -21 -21 -52 -4 -69 9 -9 5 -17 -16 -37 -15 -14 -34
-25 -43 -25 -13 0 -13 -3 -3 -15 11 -13 17 -11 46 13 29 23 33 32 30 64 -2 21
2 45 10 57 18 25 2 36 -20 12z"/>
<path d="M500 3103 c1 -18 18 -35 24 -24 4 6 4 16 1 21 -7 12 -25 13 -25 3z"/>
<path d="M3832 3099 c2 -6 8 -10 13 -10 5 0 11 4 13 10 2 6 -4 11 -13 11 -9 0
-15 -5 -13 -11z"/>
<path d="M360 3080 c0 -5 5 -10 10 -10 6 0 10 5 10 10 0 6 -4 10 -10 10 -5 0
-10 -4 -10 -10z"/>
<path d="M605 3080 c-3 -5 -1 -10 4 -10 6 0 11 5 11 10 0 6 -2 10 -4 10 -3 0
-8 -4 -11 -10z"/>
<path d="M4080 3066 c0 -13 7 -26 15 -29 19 -8 25 4 18 31 -7 30 -33 28 -33
-2z"/>
<path d="M3755 3050 c3 -5 8 -10 11 -10 2 0 4 5 4 10 0 6 -5 10 -11 10 -5 0
-7 -4 -4 -10z"/>
<path d="M705 3040 c-3 -5 -1 -10 4 -10 6 0 11 5 11 10 0 6 -2 10 -4 10 -3 0
-8 -4 -11 -10z"/>
<path d="M396 3032 c-7 -12 22 -38 31 -28 4 3 0 14 -9 22 -9 10 -18 12 -22 6z"/>
<path d="M282 3005 c-6 -14 -16 -25 -22 -25 -5 0 -10 -5 -10 -10 0 -13 57 28
64 47 10 24 -21 13 -32 -12z"/>
<path d="M3905 3020 c3 -5 8 -10 11 -10 2 0 4 5 4 10 0 6 -5 10 -11 10 -5 0
-7 -4 -4 -10z"/>
<path d="M500 3000 c0 -5 5 -10 11 -10 5 0 7 5 4 10 -3 6 -8 10 -11 10 -2 0
-4 -4 -4 -10z"/>
<path d="M4100 3000 c0 -5 5 -10 11 -10 5 0 7 5 4 10 -3 6 -8 10 -11 10 -2 0
-4 -4 -4 -10z"/>
<path d="M387 2983 c-4 -3 -7 -17 -7 -30 0 -13 -5 -32 -12 -43 -7 -10 -9 -23
-4 -27 13 -14 36 29 36 69 0 39 -2 43 -13 31z"/>
<path d="M4148 2965 c-4 -16 -2 -34 3 -39 14 -15 18 -3 10 34 l-7 35 -6 -30z"/>
<path d="M3680 2940 c0 -5 5 -10 11 -10 5 0 7 5 4 10 -3 6 -8 10 -11 10 -2 0
-4 -4 -4 -10z"/>
<path d="M4065 2940 c-7 -12 2 -30 16 -30 5 0 9 9 9 20 0 21 -15 27 -25 10z"/>
<path d="M253 2893 c-3 -10 -8 -22 -11 -26 -2 -5 5 -3 17 5 12 7 21 18 21 25
0 19 -20 16 -27 -4z"/>
<path d="M7770 2850 l0 -60 155 0 c152 0 155 0 160 -22 3 -13 4 -221 3 -463
l-3 -440 -154 -3 c-97 -1 -160 -7 -168 -14 -9 -7 -13 -28 -11 -62 l3 -51 385
0 385 0 0 60 0 60 -147 3 -148 3 0 524 0 525 -230 0 -230 0 0 -60z"/>
<path d="M300 2870 c0 -5 5 -10 10 -10 6 0 10 5 10 10 0 6 -4 10 -10 10 -5 0
-10 -4 -10 -10z"/>
<path d="M430 2870 c0 -5 5 -10 10 -10 6 0 10 5 10 10 0 6 -4 10 -10 10 -5 0
-10 -4 -10 -10z"/>
<path d="M4110 2851 c0 -11 5 -23 10 -26 6 -4 10 5 10 19 0 14 -4 26 -10 26
-5 0 -10 -9 -10 -19z"/>
<path d="M3931 2844 c0 -11 3 -14 6 -6 3 7 2 16 -1 19 -3 4 -6 -2 -5 -13z"/>
<path d="M4156 2835 c-7 -20 3 -45 19 -45 21 0 27 17 15 40 -13 24 -26 26 -34
5z"/>
<path d="M336 2831 c-4 -7 -5 -15 -2 -18 9 -9 19 4 14 18 -4 11 -6 11 -12 0z"/>
<path d="M251 2791 c-30 -19 -56 -151 -31 -151 7 0 8 13 4 35 -5 29 -2 38 20
58 14 13 26 29 26 35 0 15 26 22 37 11 7 -7 12 -5 16 5 5 13 -1 16 -26 16 -18
0 -38 -4 -46 -9z"/>
<path d="M650 2790 c0 -5 5 -10 11 -10 5 0 7 5 4 10 -3 6 -8 10 -11 10 -2 0
-4 -4 -4 -10z"/>
<path d="M4040 2794 c1 -15 38 -59 45 -52 3 3 -5 18 -19 33 -15 16 -26 24 -26
19z"/>
<path d="M4160 2765 c-4 -41 3 -58 38 -96 36 -37 37 -41 34 -101 -2 -35 -8
-68 -12 -73 -5 -6 -2 -21 5 -35 13 -23 14 -21 15 38 0 41 6 71 16 88 12 18 14
28 6 36 -6 6 -8 16 -5 24 2 7 0 21 -6 31 -6 10 -11 12 -11 6 0 -7 -6 -13 -13
-13 -12 0 -29 28 -55 90 -9 22 -11 23 -12 5z"/>
<path d="M4204 2765 c-7 -17 4 -37 17 -30 12 8 12 45 -1 45 -6 0 -13 -7 -16
-15z"/>
<path d="M178 2754 c-5 -4 -8 -16 -8 -28 0 -14 3 -17 11 -9 6 6 9 19 7 28 -1
9 -6 13 -10 9z"/>
<path d="M3850 2740 c0 -5 9 -10 20 -10 11 0 20 5 20 10 0 6 -9 10 -20 10 -11
0 -20 -4 -20 -10z"/>
<path d="M3950 2716 c0 -9 7 -19 15 -23 25 -9 27 2 5 22 -18 17 -20 17 -20 1z"/>
<path d="M316 2694 c-3 -8 -14 -14 -23 -13 -34 3 -37 -1 -16 -16 21 -14 24
-14 43 5 21 21 26 40 11 40 -5 0 -12 -7 -15 -16z"/>
<path d="M4108 2693 c-10 -2 -18 -8 -18 -13 0 -5 7 -7 15 -3 24 9 55 -26 55
-62 0 -17 6 -40 14 -51 13 -17 14 -15 9 26 -6 40 -40 111 -53 109 -3 -1 -13
-3 -22 -6z"/>
<path d="M375 2670 c3 -5 8 -10 11 -10 2 0 4 5 4 10 0 6 -5 10 -11 10 -5 0 -7
-4 -4 -10z"/>
<path d="M170 2630 c0 -11 5 -20 10 -20 6 0 10 9 10 20 0 11 -4 20 -10 20 -5
0 -10 -9 -10 -20z"/>
<path d="M610 2640 c0 -5 5 -10 11 -10 5 0 7 5 4 10 -3 6 -8 10 -11 10 -2 0
-4 -4 -4 -10z"/>
<path d="M250 2611 c0 -20 44 -90 53 -84 5 3 2 10 -7 15 -10 6 -16 22 -16 43
0 24 -5 35 -15 35 -8 0 -15 -4 -15 -9z"/>
<path d="M4063 2613 c-40 -8 -26 -26 16 -20 23 3 44 0 51 -7 9 -8 11 -6 8 9
-3 21 -31 27 -75 18z"/>
<path d="M11517 2609 c-90 -21 -177 -84 -233 -168 -14 -23 -31 -41 -35 -41 -5
0 -9 47 -9 105 0 98 -1 105 -20 105 -20 0 -20 -7 -20 -600 0 -593 0 -600 20
-600 19 0 20 7 20 261 0 143 4 259 9 257 4 -2 28 -28 52 -58 160 -198 454
-210 640 -27 65 65 97 121 120 209 24 91 24 136 -1 231 -41 164 -169 290 -330
326 -54 13 -161 12 -213 0z m293 -69 c93 -47 176 -146 205 -245 82 -272 -110
-541 -385 -540 -197 1 -347 135 -382 341 -10 60 -9 85 4 153 40 203 146 300
363 334 34 5 151 -21 195 -43z"/>
<path d="M12336 2606 c-50 -19 -112 -80 -127 -124 -27 -81 -2 -173 61 -226 37
-30 65 -44 187 -89 167 -62 216 -105 229 -199 9 -62 -9 -110 -56 -152 -74 -67
-207 -83 -299 -37 -45 23 -109 92 -123 132 -10 29 -31 38 -43 19 -8 -13 38
-100 71 -134 68 -68 191 -98 295 -72 147 38 215 133 194 271 -5 35 -17 58 -47
91 -44 48 -80 67 -227 123 -56 21 -117 49 -137 62 -74 50 -98 160 -49 232 28
41 57 59 125 77 86 23 211 -33 256 -114 7 -13 16 -17 28 -13 17 7 17 8 1 35
-30 46 -68 83 -110 105 -52 26 -173 33 -229 13z"/>
<path d="M138 2575 c-3 -14 -1 -25 3 -25 5 0 9 11 9 25 0 14 -2 25 -4 25 -2 0
-6 -11 -8 -25z"/>
<path d="M207 2573 c-10 -10 -8 -53 2 -53 8 0 20 32 21 53 0 9 -14 9 -23 0z"/>
<path d="M5011 2550 c-163 -59 -261 -186 -286 -371 -7 -56 16 -173 47 -238 26
-54 98 -134 150 -167 138 -88 351 -84 479 8 53 38 109 99 109 119 0 19 -88 71
-103 62 -6 -4 -21 -19 -33 -33 -49 -58 -169 -95 -261 -80 -71 12 -112 33 -161
83 -116 118 -106 338 20 440 116 93 281 87 392 -14 l51 -46 45 27 c25 14 46
33 48 42 7 39 -103 130 -201 167 -78 28 -218 29 -296 1z"/>
<path d="M7032 2551 c-73 -27 -112 -53 -165 -110 -87 -93 -125 -211 -112 -345
17 -181 125 -313 304 -371 40 -13 76 -16 145 -13 80 3 100 8 167 41 54 26 91
52 123 88 26 29 45 57 43 63 -2 5 -25 23 -50 39 l-48 29 -43 -40 c-80 -74
-162 -99 -265 -81 -109 20 -183 84 -221 194 -24 70 -25 114 -4 186 27 93 84
155 172 189 109 42 229 17 313 -66 l46 -46 52 32 c28 17 51 36 51 41 0 26
-108 122 -169 151 -60 29 -76 33 -176 35 -90 3 -120 0 -163 -16z"/>
<path d="M5714 2546 c-5 -12 15 -68 61 -171 8 -16 48 -111 91 -210 42 -99 101
-236 130 -304 30 -68 54 -129 54 -135 0 -6 -27 -74 -60 -153 -33 -78 -60 -147
-60 -152 0 -7 28 -11 71 -11 l70 0 20 48 c12 26 27 61 34 77 7 17 63 149 125
295 62 146 155 364 207 484 51 121 91 226 89 233 -4 9 -25 13 -64 13 -66 0
-77 -8 -105 -75 -202 -491 -239 -576 -251 -572 -5 2 -20 28 -32 58 -13 30 -71
169 -130 309 -58 140 -111 261 -116 268 -15 17 -127 16 -134 -2z"/>
<path d="M500 2524 c0 -8 5 -12 10 -9 6 3 10 10 10 16 0 5 -4 9 -10 9 -5 0
-10 -7 -10 -16z"/>
<path d="M4190 2530 c0 -5 -8 -10 -18 -10 -19 0 -42 -18 -42 -34 0 -5 8 -2 18
7 10 10 26 17 35 17 9 0 17 7 17 15 0 8 -2 15 -5 15 -3 0 -5 -4 -5 -10z"/>
<path d="M330 2520 c0 -5 5 -10 10 -10 6 0 10 5 10 10 0 6 -4 10 -10 10 -5 0
-10 -4 -10 -10z"/>
<path d="M4021 2501 c-8 -6 -9 -11 -3 -15 6 -3 14 -1 17 5 9 14 2 20 -14 10z"/>
<path d="M4097 2503 c-10 -9 -9 -23 2 -23 5 0 11 7 15 15 5 15 -5 20 -17 8z"/>
<path d="M4267 2488 c-7 -23 -1 -38 14 -38 12 0 12 47 0 54 -5 3 -11 -4 -14
-16z"/>
<path d="M140 2471 c0 -20 18 -31 50 -31 28 0 29 23 2 37 -34 18 -52 16 -52
-6z"/>
<path d="M390 2464 c0 -8 5 -12 10 -9 6 3 10 10 10 16 0 5 -4 9 -10 9 -5 0
-10 -7 -10 -16z"/>
<path d="M4191 2444 c0 -11 3 -14 6 -6 3 7 2 16 -1 19 -3 4 -6 -2 -5 -13z"/>
<path d="M311 2424 c0 -11 3 -14 6 -6 3 7 2 16 -1 19 -3 4 -6 -2 -5 -13z"/>
<path d="M120 2391 c-7 -21 -10 -45 -7 -52 3 -9 6 -6 6 6 1 11 8 31 17 44 10
14 13 26 7 32 -6 6 -14 -5 -23 -30z"/>
<path d="M240 2405 c0 -8 5 -15 10 -15 6 0 10 7 10 15 0 8 -4 15 -10 15 -5 0
-10 -7 -10 -15z"/>
<path d="M4120 2401 c0 -11 5 -23 10 -26 6 -3 10 3 10 14 0 11 -4 23 -10 26
-5 3 -10 -3 -10 -14z"/>
<path d="M4257 2413 c-4 -3 -7 -15 -7 -25 0 -13 7 -18 25 -18 14 0 25 4 25 8
0 14 -36 43 -43 35z"/>
<path d="M4050 2375 c0 -16 27 -32 37 -21 7 7 -16 36 -28 36 -5 0 -9 -7 -9
-15z"/>
<path d="M4210 2382 c0 -7 9 -31 20 -54 21 -43 19 -60 -8 -56 -9 2 -18 -4 -19
-13 -3 -12 6 -15 42 -15 25 -1 45 3 45 7 0 4 3 14 6 23 4 10 1 16 -7 16 -13 0
-40 34 -67 85 -6 11 -12 14 -12 7z"/>
<path d="M155 2371 c-7 -12 7 -42 29 -61 13 -10 16 -10 16 5 0 23 -37 68 -45
56z"/>
<path d="M242 2329 c2 -7 10 -15 17 -17 8 -3 12 1 9 9 -2 7 -10 15 -17 17 -8
3 -12 -1 -9 -9z"/>
<path d="M310 2325 c-7 -9 -10 -18 -7 -21 10 -11 37 5 37 21 0 19 -14 19 -30
0z"/>
<path d="M420 2320 c0 -8 5 -22 10 -30 9 -13 10 -13 10 0 0 8 -5 22 -10 30 -9
13 -10 13 -10 0z"/>
<path d="M4176 2315 c4 -8 10 -12 15 -9 11 6 2 24 -11 24 -5 0 -7 -7 -4 -15z"/>
<path d="M3930 2309 c0 -5 5 -7 10 -4 6 3 10 8 10 11 0 2 -4 4 -10 4 -5 0 -10
-5 -10 -11z"/>
<path d="M4133 2293 c-15 -6 -17 -43 -3 -43 12 0 24 25 18 38 -1 5 -9 7 -15 5z"/>
<path d="M104 2267 c-9 -24 6 -44 18 -22 7 11 6 21 -1 28 -7 7 -12 6 -17 -6z"/>
<path d="M154 2269 c-3 -6 -1 -16 5 -22 8 -8 11 -5 11 11 0 24 -5 28 -16 11z"/>
<path d="M217 2273 c-4 -3 -7 -13 -7 -21 0 -9 -7 -24 -17 -34 -9 -10 -13 -21
-9 -25 11 -11 33 19 39 55 7 33 5 37 -6 25z"/>
<path d="M260 2225 c0 -19 5 -35 10 -35 6 0 10 16 10 35 0 19 -4 35 -10 35 -5
0 -10 -16 -10 -35z"/>
<path d="M3850 2220 c0 -5 5 -10 10 -10 6 0 10 5 10 10 0 6 -4 10 -10 10 -5 0
-10 -4 -10 -10z"/>
<path d="M4109 2188 c4 -28 6 -29 9 -9 2 13 0 27 -5 32 -6 6 -7 -3 -4 -23z"/>
<path d="M4180 2185 c0 -24 24 -44 37 -31 9 8 -14 56 -27 56 -5 0 -10 -11 -10
-25z"/>
<path d="M4246 2149 c-9 -28 -21 -57 -26 -65 -9 -9 -6 -15 9 -24 12 -6 21 -19
21 -28 0 -24 -35 -95 -54 -112 -18 -14 -21 -40 -6 -40 5 0 19 20 31 44 11 24
29 52 40 62 10 9 19 25 19 34 0 10 7 23 15 30 16 13 10 35 -6 24 -16 -9 -39
16 -39 42 0 16 8 28 25 36 28 13 30 19 13 36 -20 20 -27 14 -42 -39z"/>
<path d="M100 2180 c0 -5 5 -10 10 -10 6 0 10 5 10 10 0 6 -4 10 -10 10 -5 0
-10 -4 -10 -10z"/>
<path d="M145 2153 c3 -16 11 -32 17 -38 8 -7 9 -4 4 8 -3 10 -6 27 -6 38 0
10 -5 19 -11 19 -7 0 -9 -10 -4 -27z"/>
<path d="M300 2153 c0 -5 7 -18 15 -29 15 -18 15 -18 13 5 -3 23 -28 44 -28
24z"/>
<path d="M4140 2138 c0 -9 5 -20 11 -23 17 -11 20 0 4 21 -13 17 -14 17 -15 2z"/>
<path d="M485 2120 c3 -5 8 -10 11 -10 2 0 4 5 4 10 0 6 -5 10 -11 10 -5 0 -7
-4 -4 -10z"/>
<path d="M116 2085 c-11 -30 -6 -45 14 -45 11 0 20 -6 20 -12 0 -7 3 -23 6
-35 4 -14 -1 -28 -16 -43 -14 -14 -19 -28 -15 -41 9 -28 25 -23 25 7 0 22 4
25 21 21 18 -5 20 -2 14 16 -4 12 -9 37 -12 55 -3 17 -9 32 -13 32 -5 0 -10
12 -12 27 -3 31 -23 41 -32 18z"/>
<path d="M207 2093 c-11 -10 -8 -51 3 -58 6 -3 10 0 10 7 0 7 3 23 6 36 6 21
-5 30 -19 15z"/>
<path d="M570 2059 c0 -5 5 -7 10 -4 6 3 10 8 10 11 0 2 -4 4 -10 4 -5 0 -10
-5 -10 -11z"/>
<path d="M4121 2038 c0 -9 -4 -25 -7 -35 -5 -14 -4 -15 5 -7 7 7 11 22 8 35
-2 13 -5 16 -6 7z"/>
<path d="M4190 2031 c14 -11 27 -15 29 -10 4 13 2 15 -29 23 l-25 7 25 -20z"/>
<path d="M285 2030 c-4 -6 -2 -17 4 -23 15 -15 25 -2 13 19 -7 12 -11 13 -17
4z"/>
<path d="M370 1995 c0 -8 4 -15 10 -15 5 0 7 7 4 15 -4 8 -8 15 -10 15 -2 0
-4 -7 -4 -15z"/>
<path d="M471 1974 c0 -11 3 -14 6 -6 3 7 2 16 -1 19 -3 4 -6 -2 -5 -13z"/>
<path d="M4140 1980 c0 -5 5 -10 11 -10 5 0 7 5 4 10 -3 6 -8 10 -11 10 -2 0
-4 -4 -4 -10z"/>
<path d="M250 1950 c0 -5 5 -10 10 -10 6 0 10 5 10 10 0 6 -4 10 -10 10 -5 0
-10 -4 -10 -10z"/>
<path d="M211 1913 c1 -34 2 -35 9 -13 11 36 11 50 0 50 -5 0 -10 -17 -9 -37z"/>
<path d="M330 1930 c0 -5 5 -10 10 -10 6 0 10 5 10 10 0 6 -4 10 -10 10 -5 0
-10 -4 -10 -10z"/>
<path d="M4105 1909 c-9 -29 4 -38 21 -15 18 25 18 36 0 36 -8 0 -18 -9 -21
-21z"/>
<path d="M230 1853 c1 -16 8 -39 16 -53 l15 -25 -6 30 c-4 17 -7 40 -8 53 -3
32 -17 27 -17 -5z"/>
<path d="M3885 1870 c3 -5 11 -10 16 -10 6 0 7 5 4 10 -3 6 -11 10 -16 10 -6
0 -7 -4 -4 -10z"/>
<path d="M4025 1869 c-11 -17 1 -21 15 -4 8 9 8 15 2 15 -6 0 -14 -5 -17 -11z"/>
<path d="M155 1836 c-16 -33 -12 -68 5 -49 9 10 23 83 16 83 -3 0 -12 -16 -21
-34z"/>
<path d="M290 1861 c0 -6 5 -13 10 -16 6 -3 10 1 10 9 0 9 -4 16 -10 16 -5 0
-10 -4 -10 -9z"/>
<path d="M4220 1849 c0 -24 15 -24 40 -1 18 16 17 17 -11 18 -22 1 -29 -3 -29
-17z"/>
<path d="M4011 1824 c0 -11 3 -14 6 -6 3 7 2 16 -1 19 -3 4 -6 -2 -5 -13z"/>
<path d="M4135 1831 c-3 -6 10 -17 30 -27 28 -13 35 -22 35 -45 0 -37 18 -47
22 -12 2 20 9 29 26 31 14 2 22 10 22 23 0 19 -15 26 -24 10 -8 -12 -53 -2
-67 15 -13 16 -35 18 -44 5z"/>
<path d="M190 1797 c0 -23 18 -57 30 -57 16 0 11 23 -10 50 -16 21 -20 22 -20
7z"/>
<path d="M510 1800 c0 -5 5 -10 10 -10 6 0 10 5 10 10 0 6 -4 10 -10 10 -5 0
-10 -4 -10 -10z"/>
<path d="M292 1763 l-2 -38 15 29 c18 35 19 46 2 46 -8 0 -14 -15 -15 -37z"/>
<path d="M370 1792 c0 -5 9 -17 20 -27 22 -20 26 -9 6 18 -14 18 -26 22 -26 9z"/>
<path d="M157 1744 c-8 -8 4 -37 21 -50 11 -8 13 -21 8 -49 -7 -34 -6 -37 11
-29 10 4 35 8 55 7 26 -1 35 3 32 12 -8 20 -35 27 -51 14 -11 -9 -17 -9 -26 0
-9 10 -8 14 6 22 24 14 21 24 -8 37 -14 6 -25 18 -25 27 0 15 -12 20 -23 9z"/>
<path d="M4127 1743 c-11 -10 -8 -43 3 -43 6 0 10 11 10 25 0 26 -2 29 -13 18z"/>
<path d="M3840 1714 c0 -8 5 -12 10 -9 6 3 10 10 10 16 0 5 -4 9 -10 9 -5 0
-10 -7 -10 -16z"/>
<path d="M4023 1695 c-8 -22 6 -33 17 -15 13 20 12 30 0 30 -6 0 -13 -7 -17
-15z"/>
<path d="M326 1681 c-4 -7 -5 -15 -2 -18 9 -9 19 4 14 18 -4 11 -6 11 -12 0z"/>
<path d="M4150 1661 c0 -17 5 -19 38 -14 38 6 60 18 50 29 -3 3 -15 0 -27 -8
-16 -10 -23 -10 -33 0 -17 17 -28 15 -28 -7z"/>
<path d="M600 1640 c0 -5 5 -10 10 -10 6 0 10 5 10 10 0 6 -4 10 -10 10 -5 0
-10 -4 -10 -10z"/>
<path d="M3750 1639 c0 -5 5 -7 10 -4 6 3 10 8 10 11 0 2 -4 4 -10 4 -5 0 -10
-5 -10 -11z"/>
<path d="M426 1623 c-6 -14 -5 -15 5 -6 7 7 10 15 7 18 -3 3 -9 -2 -12 -12z"/>
<path d="M4080 1616 c-5 -13 -14 -27 -19 -31 -16 -9 -13 -25 4 -25 8 0 15 -9
15 -20 0 -11 5 -20 10 -20 16 0 12 40 -5 46 -21 8 -19 21 5 27 12 3 20 14 20
26 0 28 -18 27 -30 -3z"/>
<path d="M380 1625 c0 -18 19 -40 26 -32 4 4 0 15 -9 24 -9 10 -17 13 -17 8z"/>
<path d="M300 1601 c0 -5 5 -13 10 -16 6 -3 10 -2 10 4 0 5 -4 13 -10 16 -5 3
-10 2 -10 -4z"/>
<path d="M4000 1584 c0 -8 5 -12 10 -9 6 3 10 10 10 16 0 5 -4 9 -10 9 -5 0
-10 -7 -10 -16z"/>
<path d="M4158 1588 c-22 -18 -34 -59 -16 -56 8 2 14 -8 16 -24 2 -16 7 -28
12 -28 12 0 20 42 13 68 -3 12 0 29 7 37 10 12 10 15 -2 15 -8 0 -21 -6 -30
-12z"/>
<path d="M247 1548 c-3 -18 -1 -37 4 -42 6 -6 9 -5 9 3 0 8 7 11 20 8 24 -6
26 10 4 41 -21 30 -31 28 -37 -10z"/>
<path d="M352 1554 c1 -9 9 -19 16 -22 9 -3 13 2 10 14 -1 9 -9 19 -16 22 -9
3 -13 -2 -10 -14z"/>
<path d="M3805 1560 c-4 -6 -3 -16 3 -22 6 -6 12 -6 17 2 4 6 3 16 -3 22 -6 6
-12 6 -17 -2z"/>
<path d="M3957 1503 c-4 -3 -7 -11 -7 -17 0 -6 5 -5 12 2 6 6 9 14 7 17 -3 3
-9 2 -12 -2z"/>
<path d="M4041 1487 c-21 -23 -21 -57 1 -57 5 0 6 5 3 10 -4 6 1 22 10 36 22
34 14 40 -14 11z"/>
<path d="M310 1490 c0 -5 5 -10 10 -10 6 0 10 5 10 10 0 6 -4 10 -10 10 -5 0
-10 -4 -10 -10z"/>
<path d="M512 1488 c6 -18 28 -21 28 -4 0 9 -7 16 -16 16 -9 0 -14 -5 -12 -12z"/>
<path d="M3985 1480 c-3 -5 -1 -10 4 -10 6 0 11 5 11 10 0 6 -2 10 -4 10 -3 0
-8 -4 -11 -10z"/>
<path d="M240 1466 c0 -8 5 -18 10 -21 6 -3 10 1 10 9 0 8 -4 18 -10 21 -5 3
-10 -1 -10 -9z"/>
<path d="M409 1462 c5 -9 19 -26 32 -37 22 -20 22 -20 11 0 -26 45 -66 80 -43
37z"/>
<path d="M3927 1473 c-4 -3 -7 -11 -7 -17 0 -6 5 -5 12 2 6 6 9 14 7 17 -3 3
-9 2 -12 -2z"/>
<path d="M4102 1458 c-7 -7 -12 -17 -12 -23 0 -15 -63 -75 -78 -75 -7 0 -12
-4 -12 -10 0 -5 11 -10 25 -10 17 0 29 8 37 25 6 14 19 25 28 25 10 0 20 10
23 23 2 12 8 30 12 40 8 20 -5 23 -23 5z"/>
<path d="M287 1437 c-8 -21 4 -107 14 -101 5 3 9 18 9 35 0 22 5 29 20 29 20
0 20 1 4 25 -18 27 -39 33 -47 12z"/>
<path d="M635 1430 c3 -5 8 -10 11 -10 2 0 4 5 4 10 0 6 -5 10 -11 10 -5 0 -7
-4 -4 -10z"/>
<path d="M3962 1408 c6 -18 28 -21 28 -4 0 9 -7 16 -16 16 -9 0 -14 -5 -12
-12z"/>
<path d="M372 1398 c2 -6 10 -14 16 -16 7 -2 10 2 6 12 -7 18 -28 22 -22 4z"/>
<path d="M3630 1365 c0 -8 5 -15 10 -15 6 0 10 7 10 15 0 8 -4 15 -10 15 -5 0
-10 -7 -10 -15z"/>
<path d="M4088 1329 c-25 -24 -26 -27 -10 -31 13 -4 22 3 31 24 17 38 12 39
-21 7z"/>
<path d="M460 1335 c-7 -8 -19 -14 -28 -13 -8 2 -17 -3 -19 -9 -7 -20 42 -16
60 5 10 10 17 22 17 25 0 12 -17 7 -30 -8z"/>
<path d="M360 1309 c7 -11 14 -18 17 -15 8 8 -5 36 -17 36 -7 0 -7 -6 0 -21z"/>
<path d="M3855 1319 c-10 -15 1 -23 20 -15 9 3 13 10 10 16 -8 13 -22 13 -30
-1z"/>
<path d="M800 1300 c0 -5 5 -10 10 -10 6 0 10 5 10 10 0 6 -4 10 -10 10 -5 0
-10 -4 -10 -10z"/>
<path d="M580 1291 c0 -5 5 -13 10 -16 6 -3 10 -2 10 4 0 5 -4 13 -10 16 -5 3
-10 2 -10 -4z"/>
<path d="M3900 1285 c0 -8 2 -15 4 -15 2 0 6 7 10 15 3 8 1 15 -4 15 -6 0 -10
-7 -10 -15z"/>
<path d="M4020 1280 c0 -5 -9 -10 -20 -10 -10 0 -24 -9 -30 -19 -8 -16 -6 -21
10 -26 11 -3 24 -4 29 -1 5 4 16 0 24 -8 16 -16 27 -11 27 11 0 7 -9 13 -21
13 -18 0 -20 4 -15 25 4 14 4 25 1 25 -3 0 -5 -4 -5 -10z"/>
<path d="M740 1266 c0 -9 5 -16 10 -16 6 0 10 4 10 9 0 6 -4 13 -10 16 -5 3
-10 -1 -10 -9z"/>
<path d="M3930 1270 c0 -5 5 -10 10 -10 6 0 10 5 10 10 0 6 -4 10 -10 10 -5 0
-10 -4 -10 -10z"/>
<path d="M430 1236 c0 -19 5 -38 10 -41 6 -4 10 8 10 29 0 19 -4 38 -10 41 -6
4 -10 -8 -10 -29z"/>
<path d="M545 1260 c3 -5 8 -10 11 -10 2 0 4 5 4 10 0 6 -5 10 -11 10 -5 0 -7
-4 -4 -10z"/>
<path d="M356 1234 c-8 -20 33 -94 51 -94 20 0 15 28 -7 42 -12 8 -20 24 -20
40 0 31 -14 37 -24 12z"/>
<path d="M3810 1229 c0 -5 5 -7 10 -4 6 3 10 8 10 11 0 2 -4 4 -10 4 -5 0 -10
-5 -10 -11z"/>
<path d="M675 1190 c3 -5 8 -10 11 -10 2 0 4 5 4 10 0 6 -5 10 -11 10 -5 0 -7
-4 -4 -10z"/>
<path d="M772 1188 c3 -7 13 -15 24 -17 16 -3 17 -1 5 13 -16 19 -34 21 -29 4z"/>
<path d="M595 1180 c-3 -5 -3 -15 1 -21 6 -11 23 6 24 24 0 10 -18 9 -25 -3z"/>
<path d="M3985 1171 c-3 -5 -1 -12 4 -15 5 -3 11 1 15 9 6 16 -9 21 -19 6z"/>
<path d="M3813 1134 c-1 -40 12 -35 22 9 5 20 3 27 -7 27 -9 0 -14 -12 -15
-36z"/>
<path d="M452 1144 c4 -21 22 -23 26 -1 2 10 -3 17 -13 17 -10 0 -15 -6 -13
-16z"/>
<path d="M3750 1150 c0 -5 5 -10 10 -10 6 0 10 5 10 10 0 6 -4 10 -10 10 -5 0
-10 -4 -10 -10z"/>
<path d="M3887 1154 c-4 -4 -7 -14 -7 -23 0 -11 3 -12 11 -4 6 6 10 16 7 23
-2 6 -7 8 -11 4z"/>
<path d="M536 1141 c-4 -6 -1 -21 6 -33 l13 -23 3 24 c4 26 -12 49 -22 32z"/>
<path d="M3927 1144 c-8 -8 3 -34 14 -34 5 0 9 9 9 20 0 19 -11 26 -23 14z"/>
<path d="M3620 1120 c-14 -11 -22 -20 -18 -20 14 0 58 23 58 32 0 13 -13 9
-40 -12z"/>
<path d="M775 1120 c3 -5 8 -10 11 -10 2 0 4 5 4 10 0 6 -5 10 -11 10 -5 0 -7
-4 -4 -10z"/>
<path d="M3952 1099 c-27 -33 -16 -38 19 -10 16 13 21 23 14 29 -6 6 -18 0
-33 -19z"/>
<path d="M3872 1073 c-6 -16 -11 -40 -10 -55 1 -55 -56 -106 -64 -57 -4 30
-33 48 -50 30 -11 -10 -9 -16 10 -28 23 -16 31 -66 12 -78 -12 -7 -14 -45 -2
-45 16 0 32 25 32 50 0 19 8 30 25 38 25 12 41 39 55 97 4 17 10 40 14 53 11
32 -9 27 -22 -5z"/>
<path d="M675 1080 c-8 -13 4 -32 16 -25 12 8 12 35 0 35 -6 0 -13 -4 -16 -10z"/>
<path d="M450 1055 c14 -15 30 -23 40 -20 21 7 41 -30 38 -70 -3 -26 1 -30 25
-33 15 -2 27 -9 27 -17 0 -7 11 -20 25 -29 24 -16 25 -15 25 3 0 10 -7 24 -15
31 -8 7 -15 21 -15 31 0 10 -8 34 -17 53 -13 28 -19 33 -30 24 -7 -6 -15 -9
-16 -7 -2 2 -11 17 -21 33 -14 22 -20 26 -27 15 -7 -11 -12 -12 -29 -1 -31 19
-36 14 -10 -13z m130 -76 c0 -5 -7 -9 -15 -9 -9 0 -15 9 -15 21 0 18 2 19 15
9 8 -7 15 -16 15 -21z"/>
<path d="M612 1059 c2 -7 10 -15 17 -17 8 -3 12 1 9 9 -2 7 -10 15 -17 17 -8
3 -12 -1 -9 -9z"/>
<path d="M3781 1051 c-10 -6 -10 -10 -1 -16 13 -8 24 -1 19 14 -3 6 -10 7 -18
2z"/>
<path d="M715 1023 c4 -10 10 -28 12 -40 3 -13 9 -23 14 -23 5 0 9 2 9 4 0 11
-31 76 -36 76 -3 0 -3 -8 1 -17z"/>
<path d="M3670 1009 c0 -5 5 -7 10 -4 6 3 10 8 10 11 0 2 -4 4 -10 4 -5 0 -10
-5 -10 -11z"/>
<path d="M3910 1005 c-6 -8 -10 -20 -8 -26 2 -6 12 0 21 15 18 27 8 37 -13 11z"/>
<path d="M815 1000 c3 -5 8 -10 11 -10 2 0 4 5 4 10 0 6 -5 10 -11 10 -5 0 -7
-4 -4 -10z"/>
<path d="M630 970 c0 -5 7 -10 16 -10 8 0 12 5 9 10 -3 6 -10 10 -16 10 -5 0
-9 -4 -9 -10z"/>
<path d="M920 931 c0 -6 5 -13 10 -16 6 -3 10 1 10 9 0 9 -4 16 -10 16 -5 0
-10 -4 -10 -9z"/>
<path d="M690 910 c0 -19 11 -26 23 -14 8 8 -3 34 -14 34 -5 0 -9 -9 -9 -20z"/>
<path d="M740 921 c0 -13 29 -35 37 -28 7 8 -15 37 -28 37 -5 0 -9 -4 -9 -9z"/>
<path d="M870 886 c0 -14 5 -28 10 -31 6 -3 10 5 10 19 0 14 -4 28 -10 31 -6
3 -10 -5 -10 -19z"/>
<path d="M3527 903 c-4 -3 -7 -16 -7 -27 1 -21 1 -21 15 -2 8 11 15 23 15 28
0 10 -14 11 -23 1z"/>
<path d="M3830 900 c0 -5 5 -10 10 -10 6 0 10 5 10 10 0 6 -4 10 -10 10 -5 0
-10 -4 -10 -10z"/>
<path d="M3690 880 c0 -23 22 -27 39 -6 9 11 8 15 -5 20 -26 10 -34 7 -34 -14z"/>
<path d="M3375 880 c3 -5 8 -10 11 -10 2 0 4 5 4 10 0 6 -5 10 -11 10 -5 0 -7
-4 -4 -10z"/>
<path d="M3640 870 c0 -5 5 -10 10 -10 6 0 10 5 10 10 0 6 -4 10 -10 10 -5 0
-10 -4 -10 -10z"/>
<path d="M621 851 c-11 -7 -11 -12 0 -30 17 -26 29 -27 29 -3 0 26 -14 42 -29
33z"/>
<path d="M780 833 c0 -10 66 -53 80 -53 5 0 10 5 10 10 0 6 -6 10 -14 10 -7 0
-25 9 -39 20 -27 21 -37 25 -37 13z"/>
<path d="M1150 820 c0 -5 5 -10 10 -10 6 0 10 5 10 10 0 6 -4 10 -10 10 -5 0
-10 -4 -10 -10z"/>
<path d="M3220 810 c0 -5 5 -10 10 -10 6 0 10 5 10 10 0 6 -4 10 -10 10 -5 0
-10 -4 -10 -10z"/>
<path d="M3410 811 c0 -24 21 -61 34 -61 8 0 16 -6 19 -12 2 -8 8 -9 13 -4 5
5 4 11 -3 13 -7 3 -13 11 -13 18 0 7 -7 15 -15 19 -8 3 -15 12 -15 21 0 8 -4
15 -10 15 -5 0 -10 -4 -10 -9z"/>
<path d="M690 798 c0 -7 5 -20 10 -28 9 -13 11 -13 19 -1 5 8 7 20 4 28 -6 17
-33 17 -33 1z"/>
<path d="M3575 800 c-12 -4 -26 -15 -34 -23 -11 -14 -9 -15 21 -5 18 6 39 12
46 14 6 2 12 8 12 14 0 12 -17 12 -45 0z"/>
<path d="M1135 780 c3 -5 11 -10 16 -10 6 0 7 5 4 10 -3 6 -11 10 -16 10 -6 0
-7 -4 -4 -10z"/>
<path d="M3670 780 c0 -5 5 -10 10 -10 6 0 10 5 10 10 0 6 -4 10 -10 10 -5 0
-10 -4 -10 -10z"/>
<path d="M780 771 c0 -6 5 -13 10 -16 6 -3 10 1 10 9 0 9 -4 16 -10 16 -5 0
-10 -4 -10 -9z"/>
<path d="M3290 769 c0 -5 5 -7 10 -4 6 3 10 8 10 11 0 2 -4 4 -10 4 -5 0 -10
-5 -10 -11z"/>
<path d="M905 760 c3 -5 8 -10 11 -10 2 0 4 5 4 10 0 6 -5 10 -11 10 -5 0 -7
-4 -4 -10z"/>
<path d="M3690 755 c-10 -12 -9 -15 8 -15 11 0 22 7 26 15 3 9 0 15 -8 15 -7
0 -19 -7 -26 -15z"/>
<path d="M750 720 c0 -11 5 -20 10 -20 6 0 10 9 10 20 0 11 -4 20 -10 20 -5 0
-10 -9 -10 -20z"/>
<path d="M850 728 c1 -13 50 -79 50 -67 0 4 -7 23 -15 43 -15 35 -35 49 -35
24z"/>
<path d="M3596 711 c-15 -17 -15 -19 0 -31 13 -12 17 -11 25 1 11 18 12 49 1
49 -5 0 -16 -8 -26 -19z"/>
<path d="M825 689 c-4 -6 -17 -14 -29 -19 -21 -8 -21 -8 -1 -15 11 -4 38 -16
59 -26 22 -10 42 -17 44 -14 8 8 -10 25 -27 25 -25 0 -44 23 -30 37 7 7 7 13
1 17 -6 3 -14 1 -17 -5z"/>
<path d="M3060 680 c0 -5 4 -10 9 -10 6 0 13 5 16 10 3 6 -1 10 -9 10 -9 0
-16 -4 -16 -10z"/>
<path d="M3170 679 c0 -5 5 -7 10 -4 6 3 10 8 10 11 0 2 -4 4 -10 4 -5 0 -10
-5 -10 -11z"/>
<path d="M3520 680 c0 -5 4 -10 9 -10 6 0 13 5 16 10 3 6 -1 10 -9 10 -9 0
-16 -4 -16 -10z"/>
<path d="M935 661 c-8 -15 3 -31 21 -31 9 0 14 7 12 17 -4 20 -24 28 -33 14z"/>
<path d="M3435 650 c-10 -11 -16 -22 -13 -25 3 -3 11 1 18 10 7 8 18 15 26 15
7 0 16 5 19 10 12 19 -32 10 -50 -10z"/>
<path d="M3192 628 c7 -19 38 -22 38 -4 0 10 -9 16 -21 16 -12 0 -19 -5 -17
-12z"/>
<path d="M3297 623 c-13 -13 -7 -19 21 -18 22 0 27 -4 25 -22 -2 -17 2 -23 17
-23 11 0 20 -4 20 -9 0 -6 15 -5 36 1 29 8 38 7 48 -7 11 -15 13 -15 25 -1 11
13 11 17 -3 22 -9 4 -32 4 -50 1 -38 -6 -46 -2 -65 36 -10 19 -22 27 -41 27
-15 0 -30 -3 -33 -7z"/>
<path d="M3527 623 c-4 -3 -7 -13 -7 -21 0 -12 3 -12 15 -2 8 7 15 16 15 21 0
11 -14 12 -23 2z"/>
<path d="M1700 610 c0 -5 5 -10 10 -10 6 0 10 5 10 10 0 6 -4 10 -10 10 -5 0
-10 -4 -10 -10z"/>
<path d="M935 590 c3 -5 8 -10 11 -10 2 0 4 5 4 10 0 6 -5 10 -11 10 -5 0 -7
-4 -4 -10z"/>
<path d="M3095 580 c-3 -5 -1 -10 4 -10 6 0 11 5 11 10 0 6 -2 10 -4 10 -3 0
-8 -4 -11 -10z"/>
<path d="M1080 565 c0 -10 10 -15 33 -15 l32 1 -25 14 c-32 18 -40 18 -40 0z"/>
<path d="M3230 560 c-11 -7 -7 -10 18 -10 17 0 32 5 32 10 0 13 -30 13 -50 0z"/>
<path d="M920 545 c7 -8 21 -15 32 -15 10 0 33 -7 49 -16 32 -16 46 -14 34 5
-3 6 -14 11 -24 11 -9 0 -26 7 -37 15 -10 8 -30 15 -43 15 -20 0 -21 -2 -11
-15z"/>
<path d="M1190 551 c0 -6 5 -13 10 -16 6 -3 10 1 10 9 0 9 -4 16 -10 16 -5 0
-10 -4 -10 -9z"/>
<path d="M2980 550 c0 -5 5 -10 10 -10 6 0 10 5 10 10 0 6 -4 10 -10 10 -5 0
-10 -4 -10 -10z"/>
<path d="M3048 535 c-3 -14 -2 -25 2 -25 14 0 32 29 25 40 -11 17 -22 11 -27
-15z"/>
<path d="M1282 528 c6 -18 28 -21 28 -4 0 9 -7 16 -16 16 -9 0 -14 -5 -12 -12z"/>
<path d="M1210 506 c0 -9 5 -16 10 -16 6 0 10 4 10 9 0 6 -4 13 -10 16 -5 3
-10 -1 -10 -9z"/>
<path d="M1477 514 c-9 -10 2 -24 18 -24 9 0 12 6 9 15 -6 16 -17 19 -27 9z"/>
<path d="M2715 510 c-3 -5 -1 -10 4 -10 6 0 11 5 11 10 0 6 -2 10 -4 10 -3 0
-8 -4 -11 -10z"/>
<path d="M3285 510 c-7 -12 2 -30 16 -30 5 0 9 9 9 20 0 21 -15 27 -25 10z"/>
<path d="M3375 509 c-4 -6 -5 -13 -2 -16 7 -7 27 6 27 18 0 12 -17 12 -25 -2z"/>
<path d="M3112 503 c29 -65 50 -103 58 -108 14 -8 13 8 -1 22 -16 16 -3 43 21
43 11 0 20 5 20 10 0 6 -13 10 -29 10 -16 0 -34 7 -41 15 -13 15 -34 21 -28 8z"/>
<path d="M2880 489 c0 -5 5 -7 10 -4 6 3 10 8 10 11 0 2 -4 4 -10 4 -5 0 -10
-5 -10 -11z"/>
<path d="M2480 470 c0 -5 5 -10 11 -10 5 0 7 5 4 10 -3 6 -8 10 -11 10 -2 0
-4 -4 -4 -10z"/>
<path d="M1130 461 c0 -10 28 -41 36 -41 2 0 -3 11 -12 25 -17 26 -24 31 -24
16z"/>
<path d="M1060 451 c0 -10 30 -24 37 -17 3 3 2 9 -2 15 -8 13 -35 15 -35 2z"/>
<path d="M1210 445 c0 -8 7 -15 15 -15 8 0 15 7 15 15 0 8 -7 15 -15 15 -8 0
-15 -7 -15 -15z"/>
<path d="M2225 450 c-3 -5 1 -10 10 -10 9 0 13 5 10 10 -3 6 -8 10 -10 10 -2
0 -7 -4 -10 -10z"/>
<path d="M2980 445 c0 -8 5 -15 10 -15 6 0 10 7 10 15 0 8 -4 15 -10 15 -5 0
-10 -7 -10 -15z"/>
<path d="M3240 449 c0 -11 107 -12 114 -1 3 5 -22 9 -55 9 -32 1 -59 -3 -59
-8z"/>
<path d="M2425 440 c3 -5 8 -10 11 -10 2 0 4 5 4 10 0 6 -5 10 -11 10 -5 0 -7
-4 -4 -10z"/>
<path d="M1615 410 c3 -5 8 -10 11 -10 2 0 4 5 4 10 0 6 -5 10 -11 10 -5 0 -7
-4 -4 -10z"/>
<path d="M3057 402 c-52 -49 -67 -66 -67 -73 0 -17 19 -9 25 10 8 26 35 36 35
13 0 -29 -52 -72 -87 -72 -18 0 -35 5 -38 10 -3 6 -17 10 -30 10 -13 0 -36 5
-50 12 -14 6 -28 8 -32 5 -12 -12 31 -36 54 -30 16 3 25 0 29 -12 6 -15 16
-17 68 -11 60 6 96 28 96 60 0 17 64 36 81 25 23 -14 39 -10 39 10 0 16 -6 18
-42 14 -53 -5 -78 8 -59 31 18 21 1 19 -22 -2z"/>
<path d="M1505 400 c3 -5 10 -10 16 -10 5 0 9 5 9 10 0 6 -7 10 -16 10 -8 0
-12 -4 -9 -10z"/>
<path d="M2747 404 c-14 -14 -7 -35 11 -32 9 2 17 10 17 17 0 16 -18 25 -28
15z"/>
<path d="M1700 390 c0 -5 9 -10 20 -10 11 0 20 5 20 10 0 6 -9 10 -20 10 -11
0 -20 -4 -20 -10z"/>
<path d="M2885 390 c-3 -6 1 -13 10 -16 19 -8 30 0 20 15 -8 14 -22 14 -30 1z"/>
<path d="M1282 379 c3 -8 18 -15 34 -17 33 -4 24 11 -15 23 -17 5 -22 4 -19
-6z"/>
<path d="M2040 380 c0 -5 5 -10 11 -10 5 0 7 5 4 10 -3 6 -8 10 -11 10 -2 0
-4 -4 -4 -10z"/>
<path d="M2295 380 c-3 -5 -1 -10 4 -10 6 0 11 5 11 10 0 6 -2 10 -4 10 -3 0
-8 -4 -11 -10z"/>
<path d="M3200 380 c0 -5 9 -10 19 -10 11 0 23 5 26 10 4 6 -5 10 -19 10 -14
0 -26 -4 -26 -10z"/>
<path d="M1220 361 c0 -6 5 -13 10 -16 6 -3 10 1 10 9 0 9 -4 16 -10 16 -5 0
-10 -4 -10 -9z"/>
<path d="M1945 360 c-4 -6 5 -10 19 -10 14 0 26 5 26 10 0 6 -9 10 -19 10 -11
0 -23 -4 -26 -10z"/>
<path d="M1405 330 c3 -5 22 -10 41 -10 21 0 33 4 29 10 -3 6 -22 10 -41 10
-21 0 -33 -4 -29 -10z"/>
<path d="M1585 330 c3 -5 19 -10 35 -10 16 0 32 5 35 10 4 6 -10 10 -35 10
-25 0 -39 -4 -35 -10z"/>
<path d="M2565 330 c3 -5 25 -9 48 -9 40 1 40 2 12 9 -44 11 -67 11 -60 0z"/>
<path d="M1510 326 c0 -2 7 -6 15 -10 8 -3 15 -1 15 4 0 6 -7 10 -15 10 -8 0
-15 -2 -15 -4z"/>
<path d="M2450 319 c0 -5 5 -7 10 -4 6 3 10 8 10 11 0 2 -4 4 -10 4 -5 0 -10
-5 -10 -11z"/>
<path d="M1345 310 c3 -5 8 -10 11 -10 2 0 4 5 4 10 0 6 -5 10 -11 10 -5 0 -7
-4 -4 -10z"/>
<path d="M2120 305 c0 -9 5 -15 11 -13 6 2 11 8 11 13 0 5 -5 11 -11 13 -6 2
-11 -4 -11 -13z"/>
<path d="M1787 303 c-9 -9 12 -33 29 -33 17 0 18 12 2 28 -14 14 -22 15 -31 5z"/>
<path d="M2370 300 c0 -5 5 -10 10 -10 6 0 10 5 10 10 0 6 -4 10 -10 10 -5 0
-10 -4 -10 -10z"/>
<path d="M2680 300 c0 -5 4 -10 9 -10 6 0 13 5 16 10 3 6 -1 10 -9 10 -9 0
-16 -4 -16 -10z"/>
<path d="M2730 280 c-31 -23 -26 -27 24 -20 37 5 38 6 20 22 -18 16 -21 16
-44 -2z"/>
<path d="M1430 284 c0 -7 38 -40 63 -55 17 -9 17 -8 7 10 -10 20 -70 58 -70
45z"/>
<path d="M1524 265 c22 -17 46 -20 46 -6 0 5 -10 11 -22 15 -37 9 -44 6 -24
-9z"/>
<path d="M2040 270 c0 -5 5 -10 11 -10 5 0 7 5 4 10 -3 6 -8 10 -11 10 -2 0
-4 -4 -4 -10z"/>
<path d="M1613 263 c-43 -8 -23 -23 27 -20 28 1 48 6 47 12 -4 11 -40 15 -74
8z"/>
<path d="M2205 260 c3 -5 13 -10 21 -10 8 0 14 5 14 10 0 6 -9 10 -21 10 -11
0 -17 -4 -14 -10z"/>
<path d="M1973 240 c7 -28 -12 -46 -65 -61 -27 -7 -48 -19 -48 -26 0 -20 35
-15 55 7 24 26 43 25 87 -5 20 -14 44 -25 52 -25 8 0 18 -5 21 -10 3 -5 23
-10 43 -9 l37 1 -40 11 c-22 7 -51 20 -65 30 -13 9 -30 17 -37 17 -18 0 -26
19 -13 35 8 10 8 19 0 34 -14 27 -34 27 -27 1z"/>
<path d="M2298 253 c7 -3 16 -2 19 1 4 3 -2 6 -13 5 -11 0 -14 -3 -6 -6z"/>
<path d="M2574 249 c-3 -6 -1 -16 5 -22 9 -9 14 -8 21 3 5 8 10 18 10 23 0 11
-28 8 -36 -4z"/>
<path d="M1900 239 c0 -5 9 -9 20 -9 11 0 20 2 20 4 0 2 -9 6 -20 9 -11 3 -20
1 -20 -4z"/>
<path d="M1715 231 c-8 -15 7 -19 44 -14 23 4 29 8 20 14 -19 12 -56 11 -64 0z"/>
<path d="M2795 222 c-11 -10 -44 -26 -73 -36 -46 -16 -57 -17 -78 -5 -30 15
-54 0 -30 -20 12 -10 27 -9 76 3 34 9 70 16 80 16 9 0 23 7 30 15 7 8 26 15
42 15 26 0 28 2 14 15 -19 20 -37 19 -61 -3z"/>
<path d="M2030 220 c0 -5 7 -10 16 -10 8 0 12 5 9 10 -3 6 -10 10 -16 10 -5 0
-9 -4 -9 -10z"/>
<path d="M2457 224 c-4 -4 -7 -15 -7 -25 0 -10 -8 -20 -18 -24 -13 -3 -19 -15
-20 -35 -1 -31 12 -37 38 -20 13 9 13 12 -3 21 -15 9 -16 13 -5 26 6 8 23 19
36 24 13 5 22 15 19 22 -4 14 -30 21 -40 11z"/>
<path d="M2165 211 c-18 -4 -25 -9 -19 -14 7 -4 27 0 45 8 35 15 25 17 -26 6z"/>
<path d="M2355 204 c-13 -10 -30 -12 -50 -8 -29 6 -29 6 -14 -12 9 -11 19 -31
23 -46 3 -16 13 -28 21 -28 19 0 31 40 14 51 -11 7 -9 13 11 28 29 23 24 36
-5 15z"/>
<path d="M2688 213 c7 -3 16 -2 19 1 4 3 -2 6 -13 5 -11 0 -14 -3 -6 -6z"/>
<path d="M1815 175 c0 -21 5 -35 13 -35 7 0 12 14 12 35 0 21 -5 35 -12 35 -8
0 -13 -14 -13 -35z"/>
<path d="M1624 191 c3 -4 31 -8 63 -8 38 0 51 3 38 8 -27 10 -107 11 -101 0z"/>
<path d="M2518 179 c-35 -13 -45 -39 -15 -39 24 0 35 7 56 33 16 20 4 22 -41
6z"/>
<path d="M2154 154 c3 -9 6 -17 6 -20 0 -2 14 -11 31 -20 23 -11 34 -13 42 -5
8 8 5 11 -11 11 -12 0 -29 11 -38 25 -18 28 -40 34 -30 9z"/>
<path d="M2250 159 c0 -5 5 -7 10 -4 6 3 10 8 10 11 0 2 -4 4 -10 4 -5 0 -10
-5 -10 -11z"/>
<path d="M2570 150 c0 -5 5 -10 10 -10 6 0 10 5 10 10 0 6 -4 10 -10 10 -5 0
-10 -4 -10 -10z"/>
<path d="M1968 123 c7 -3 16 -2 19 1 4 3 -2 6 -13 5 -11 0 -14 -3 -6 -6z"/>
</g>
</svg>
