<?xml version="1.0" encoding="UTF-8" standalone="no"?>
<!-- Created with Inkscape (http://www.inkscape.org/) -->

<svg
   version="1.1"
   id="svg2"
   width="955.90668"
   height="529.85333"
   viewBox="0 0 955.90668 529.85333"
   sodipodi:docname="iStock-1132128949.eps"
   xmlns:inkscape="http://www.inkscape.org/namespaces/inkscape"
   xmlns:sodipodi="http://sodipodi.sourceforge.net/DTD/sodipodi-0.dtd"
   xmlns="http://www.w3.org/2000/svg"
   xmlns:svg="http://www.w3.org/2000/svg">
  <defs
     id="defs6" />
  <sodipodi:namedview
     id="namedview4"
     pagecolor="#ffffff"
     bordercolor="#000000"
     borderopacity="0.25"
     inkscape:showpageshadow="2"
     inkscape:pageopacity="0.0"
     inkscape:pagecheckerboard="0"
     inkscape:deskcolor="#d1d1d1" />
  <g
     id="g8"
     inkscape:groupmode="layer"
     inkscape:label="ink_ext_XXXXXX"
     transform="matrix(1.3333333,0,0,-1.3333333,0,529.85333)">
    <g
       id="g10"
       transform="scale(0.1)">
      <path
         d="m 5916.29,741.871 h -4789.9 c -20.83,0 -37.71,16.879 -37.71,37.711 V 3899.57 c 0,20.83 16.88,37.71 37.71,37.71 h 4789.9 c 20.83,0 37.71,-16.88 37.71,-37.71 V 779.582 c 0,-20.832 -16.88,-37.711 -37.71,-37.711"
         style="fill:#edf1ff;fill-opacity:1;fill-rule:nonzero;stroke:none"
         id="path12" />
      <path
         d="M 3839.5,3010.28 H 2165.53 c -19.94,0 -36.09,16.15 -36.09,36.08 v 708.86 c 0,19.92 16.15,36.08 36.09,36.08 H 3839.5 c 19.93,0 36.09,-16.16 36.09,-36.08 v -708.86 c 0,-19.93 -16.16,-36.08 -36.09,-36.08"
         style="fill:#ffffff;fill-opacity:1;fill-rule:nonzero;stroke:none"
         id="path14" />
      <path
         d="M 3360.46,1919.84 H 1281.85 c -18.6,0 -33.69,15.08 -33.69,33.69 v 922.81 c 0,18.6 15.09,33.68 33.69,33.68 h 2078.61 c 18.61,0 33.69,-15.08 33.69,-33.68 v -922.81 c 0,-18.61 -15.08,-33.69 -33.69,-33.69"
         style="fill:#ffffff;fill-opacity:1;fill-rule:nonzero;stroke:none"
         id="path16" />
      <path
         d="M 5746.38,876.051 H 1288.16 c -22.09,0 -40,17.898 -40,40 v 863.529 c 0,22.09 17.91,40 40,40 h 4458.22 c 22.09,0 40,-17.91 40,-40 V 916.051 c 0,-22.102 -17.91,-40 -40,-40"
         style="fill:#ffffff;fill-opacity:1;fill-rule:nonzero;stroke:none"
         id="path18" />
      <path
         d="M 5746.38,3010.28 H 3995.89 c -22.09,0 -40,17.91 -40,40 v 701.02 c 0,22.09 17.91,40 40,40 h 1750.49 c 22.09,0 40,-17.91 40,-40 v -701.02 c 0,-22.09 -17.91,-40 -40,-40"
         style="fill:#ffffff;fill-opacity:1;fill-rule:nonzero;stroke:none"
         id="path20" />
      <path
         d="m 1921.34,3010.28 h -836.78 c -22.09,0 -40,17.91 -40,40 v 701.02 c 0,22.09 17.91,40 40,40 h 836.78 c 22.09,0 40,-17.91 40,-40 v -701.02 c 0,-22.09 -17.91,-40 -40,-40"
         style="fill:#ffffff;fill-opacity:1;fill-rule:nonzero;stroke:none"
         id="path22" />
      <path
         d="m 3359.13,1644.72 h -1900 c -1.1,0 -2,0.9 -2,2 0,1.1 0.9,2 2,2 h 1900 c 1.1,0 2,-0.9 2,-2 0,-1.1 -0.9,-2 -2,-2"
         style="fill:#bdd3fa;fill-opacity:1;fill-rule:nonzero;stroke:none"
         id="path24" />
      <path
         d="m 1886.22,3262.11 h -749.84 c -1.11,0 -2.01,0.9 -2.01,2 0,1.11 0.9,2.01 2.01,2.01 h 749.84 c 1.11,0 2.01,-0.9 2.01,-2.01 0,-1.1 -0.9,-2 -2.01,-2"
         style="fill:#bdd3fa;fill-opacity:1;fill-rule:nonzero;stroke:none"
         id="path26" />
      <path
         d="m 1174.81,3210.63 11.86,-24.04 26.53,-3.86 -19.2,-18.71 4.53,-26.41 -23.72,12.47 -23.72,-12.47 4.53,26.41 -19.2,18.71 26.53,3.86 11.86,24.04"
         style="fill:#ff7867;fill-opacity:1;fill-rule:nonzero;stroke:none"
         id="path28" />
      <path
         d="m 1274.78,3210.63 11.86,-24.04 26.53,-3.86 -19.2,-18.71 4.53,-26.41 -23.72,12.47 -23.73,-12.47 4.54,26.41 -19.19,18.71 26.52,3.86 11.86,24.04"
         style="fill:#ff7867;fill-opacity:1;fill-rule:nonzero;stroke:none"
         id="path30" />
      <path
         d="m 1374.75,3210.63 11.86,-24.04 26.52,-3.86 -19.19,-18.71 4.53,-26.41 -23.72,12.47 -23.73,-12.47 4.54,26.41 -19.2,18.71 26.52,3.86 11.87,24.04"
         style="fill:#ff7867;fill-opacity:1;fill-rule:nonzero;stroke:none"
         id="path32" />
      <path
         d="m 1474.72,3210.63 11.86,-24.04 26.52,-3.86 -19.19,-18.71 4.53,-26.41 -23.72,12.47 -23.72,-12.47 4.53,26.41 -19.2,18.71 26.53,3.86 11.86,24.04"
         style="fill:#ff7867;fill-opacity:1;fill-rule:nonzero;stroke:none"
         id="path34" />
      <path
         d="m 1574.69,3210.63 11.86,-24.04 26.52,-3.86 -19.19,-18.71 4.53,-26.41 -23.72,12.47 -23.73,-12.47 4.53,26.41 -19.19,18.71 26.53,3.86 11.86,24.04"
         style="fill:#ff7867;fill-opacity:1;fill-rule:nonzero;stroke:none"
         id="path36" />
      <path
         d="m 1117.63,3505.14 c 0,-50.02 22.09,-94.84 56.95,-125.38 6.6,-5.84 13.64,-11.04 21.11,-15.69 25.55,-16.14 55.97,-25.45 88.34,-25.45 31.4,0 60.85,8.77 85.97,23.93 48.29,29.12 80.55,82.17 80.55,142.59 0,55.43 -27.18,104.58 -68.86,134.79 -8.44,6.17 -17.54,11.47 -27.17,15.91 -21.44,10.07 -45.37,15.7 -70.49,15.7 -19.16,0 -37.57,-3.25 -54.67,-9.2 -14.07,-4.87 -27.29,-11.59 -39.3,-19.81 -43.74,-29.99 -72.43,-80.34 -72.43,-137.39"
         style="fill:#bdd3fa;fill-opacity:1;fill-rule:nonzero;stroke:none"
         id="path38" />
      <path
         d="m 1324.67,3449.34 0.05,2.74 c 0,0 4.33,-1.79 -0.05,-2.74"
         style="fill:#ffcbc5;fill-opacity:1;fill-rule:nonzero;stroke:none"
         id="path40" />
      <path
         d="m 1174.58,3379.76 c 6.6,-5.84 13.64,-11.04 21.11,-15.69 l 174.31,-1.19 -46.23,38.75 c 0.86,3.25 0.21,6.28 0.21,6.28 l 0.55,36.49 v 0.54 l 0.1,4.44 c -3.35,-0.76 -12.01,-0.97 -32.15,0.54 -48.18,3.79 -69.4,55.32 -71.89,61.71 0,0.22 0,0.33 -0.11,0.43 -0.1,0.12 -0.1,0.23 -0.1,0.23 v -3.58 l -0.22,-17.32 v -0.87 c 0,0 0,0 0,-0.11 l -0.22,-32.26 -0.11,-14.61 -45.25,-63.78"
         style="fill:#ffcbc5;fill-opacity:1;fill-rule:nonzero;stroke:none"
         id="path42" />
      <path
         d="m 1195.58,3577.57 c -0.86,-8.99 4.01,-17.43 9.42,-23.61 0.21,-0.42 0.54,-0.97 1.08,-1.41 3.04,-3.24 6.07,-5.84 8.02,-7.57 0.54,-0.44 1.07,-0.87 1.72,-1.3 0.22,-0.22 0.55,-0.43 0.87,-0.65 l -0.32,-24.8 c 0,0 1.3,-3.68 4.01,-9.52 0.1,-0.21 0.1,-0.32 0.21,-0.54 6.49,-13.97 20.79,-39.19 43.95,-54.03 2.71,-1.73 5.53,-3.25 8.34,-4.66 1.73,-0.86 3.36,-1.62 4.99,-2.27 13.2,-5.3 28.79,-6.92 46.66,-2.27 0.32,0 0.64,0.11 0.97,0.21 60.52,16.36 46.45,129.49 38,175.62 -2.16,12.01 -4,19.48 -4,19.48 -1.3,5.74 -3.04,10.94 -4.98,15.59 -21.44,10.07 -45.37,15.7 -70.49,15.7 -19.16,0 -37.57,-3.25 -54.67,-9.2 l -2.71,-80.55 c 0,0 -1.62,0.86 -4.11,1.73 -0.32,0.22 -0.76,0.32 -1.09,0.43 -0.86,0.33 -1.84,0.65 -2.81,0.98 -0.76,0.32 -1.51,0.54 -2.38,0.65 -0.54,0.21 -0.97,0.32 -1.51,0.43 -0.33,0.11 -0.65,0.11 -0.98,0.22 -8.01,1.84 -17.21,1.51 -18.19,-8.66"
         style="fill:#ffcbc5;fill-opacity:1;fill-rule:nonzero;stroke:none"
         id="path44" />
      <path
         d="m 1177.5,3561.43 c 13.43,-14.29 4.44,-18.08 10.61,-42.44 6.28,-24.47 32.05,-28.47 32.05,-28.47 v 0.87 c 0.54,5.63 0.64,11.25 0.43,16.78 v 3.46 c 0,0.22 0,0.33 -0.11,0.43 -0.43,10.29 -1.73,20.68 -3.79,30.97 -0.32,0.22 -0.65,0.43 -0.87,0.65 -0.65,0.43 -1.18,0.86 -1.72,1.3 -0.55,0.43 -1.09,0.86 -1.63,1.41 -2.49,1.84 -4.55,4 -6.39,6.16 -0.54,0.44 -0.87,0.99 -1.08,1.41 -5.74,7.47 -7.47,15.05 -7.91,20.68 -0.53,6.4 4.45,12.13 10.94,12.13 1.95,0 3.9,-0.22 5.74,-0.54 0.33,-0.11 0.65,-0.11 0.98,-0.22 0.54,-0.11 0.97,-0.22 1.51,-0.43 0.87,-0.11 1.62,-0.33 2.38,-0.65 0.97,-0.33 1.95,-0.65 2.81,-0.98 0.33,-0.11 0.77,-0.21 1.09,-0.43 2.49,-0.87 4.11,-1.73 4.11,-1.73 l 14.73,23.39 c 9.96,19.27 28.58,23.92 48.82,23.71 17.76,-0.22 34.76,-2.06 51.76,-6.5 7.03,-1.84 14.72,-3.03 21.54,-1.62 5.52,1.08 10.5,3.89 14.18,9.52 1.74,2.71 3.14,5.96 4.01,9.64 -8.44,6.17 -17.54,11.47 -27.17,15.91 -21.44,10.07 -45.37,15.7 -70.49,15.7 -19.16,0 -37.57,-3.25 -54.67,-9.2 -14.07,-4.87 -27.29,-11.59 -39.3,-19.81 -1.52,-5.74 -4.98,-10.51 -12.02,-11.91 -20.14,-3.68 -13.86,-55 -0.54,-69.19"
         style="fill:#6c60b7;fill-opacity:1;fill-rule:nonzero;stroke:none"
         id="path46" />
      <path
         d="m 1325.47,3445.19 c 0,0 -21.98,-10.99 -52.57,4.27 -30.59,15.26 -52.7,41.08 -52.7,41.08 l -0.22,-32.4 c 0,0 61.52,-48.93 105.49,-12.95"
         style="fill:#ffb6ad;fill-opacity:1;fill-rule:nonzero;stroke:none"
         id="path48" />
      <path
         d="m 1202.82,3419.56 17.67,-27.71 c 11.17,-17.51 30.45,-28.16 51.22,-28.3 l 15.23,-0.11 c 16.74,-0.11 31.23,11.57 34.68,27.95 l 2.15,10.24 45.84,-38.75 h 0.39 v -0.33 c -25.12,-15.16 -54.57,-23.93 -85.97,-23.93 -32.37,0 -62.79,9.31 -88.34,25.45 0,0 -15.4,10.45 -21.11,15.69 l 28.24,39.8"
         style="fill:#545ed3;fill-opacity:1;fill-rule:nonzero;stroke:none"
         id="path50" />
      <path
         d="m 1890.57,3581.04 h -355.85 c -9.87,0 -17.86,7.99 -17.86,17.85 v 5.01 c 0,9.87 7.99,17.86 17.86,17.86 h 355.85 c 9.86,0 17.86,-7.99 17.86,-17.86 v -5.01 c 0,-9.86 -8,-17.85 -17.86,-17.85"
         style="fill:#bdd3fa;fill-opacity:1;fill-rule:nonzero;stroke:none"
         id="path52" />
      <path
         d="m 1778.5,3515.85 h -250.82 c -2.76,0 -5,2.24 -5,5 0,2.77 2.24,5 5,5 h 250.82 c 2.77,0 5,-2.23 5,-5 0,-2.76 -2.23,-5 -5,-5"
         style="fill:#97c2ff;fill-opacity:1;fill-rule:nonzero;stroke:none"
         id="path54" />
      <path
         d="m 1712.65,3456.96 h -184.97 c -2.76,0 -5,2.23 -5,5 0,2.76 2.24,5 5,5 h 184.97 c 2.76,0 5,-2.24 5,-5 0,-2.77 -2.24,-5 -5,-5"
         style="fill:#97c2ff;fill-opacity:1;fill-rule:nonzero;stroke:none"
         id="path56" />
      <path
         d="m 1620.17,3398.06 h -92.49 c -2.76,0 -5,2.24 -5,5 0,2.77 2.24,5 5,5 h 92.49 c 2.76,0 5,-2.23 5,-5 0,-2.76 -2.24,-5 -5,-5"
         style="fill:#97c2ff;fill-opacity:1;fill-rule:nonzero;stroke:none"
         id="path58" />
      <path
         d="m 2424.74,3614.58 c -0.52,1.35 -1.14,2.71 -1.82,4.01 -4.04,7.92 -9.95,14.8 -17.59,19.79 -7.7,5.05 -16.14,7.51 -24.51,7.7 -14.67,0.3 -29.15,-6.53 -38.98,-19.22 -9.31,13.09 -23.48,20.5 -38.18,20.79 -8.37,0.17 -16.89,-1.97 -24.77,-6.67 -20.39,-12.19 -29.8,-37.62 -24.03,-60.91 0.98,-4.1 2.44,-8.11 4.42,-11.98 7.33,-14.43 31.21,-36.38 50.94,-53 1.17,-1 2.31,-1.96 3.42,-2.88 4.66,-3.87 9,-7.4 12.74,-10.35 2.52,-2.04 4.77,-3.8 6.64,-5.26 1.79,-1.41 3.93,-2.14 6.11,-2.2 2.16,-0.05 4.33,0.6 6.2,1.93 2.12,1.51 4.72,3.38 7.65,5.53 11.14,8.21 27.21,20.47 41.29,32.82 0.02,0.06 0.07,0.09 0.1,0.12 11.71,10.29 22.02,20.71 26.95,28.95 0.22,0.35 0.41,0.68 0.6,1 2.74,4.88 4.66,10.06 5.85,15.32 2.58,11.66 1.44,23.83 -3.03,34.51"
         style="fill:#ff7867;fill-opacity:1;fill-rule:nonzero;stroke:none"
         id="path60" />
      <path
         d="m 3069.75,3136.93 c -0.15,0 -0.3,0.01 -0.45,0.02 -2.17,0.2 -3.96,1.77 -4.43,3.9 l -94.33,424.47 -114.45,-313.69 c -0.71,-1.95 -2.55,-3.26 -4.62,-3.29 -2.24,0.02 -3.95,1.21 -4.72,3.14 l -73.34,182.96 -52.72,-39.36 c -1.08,-0.8 -2.47,-1.14 -3.75,-0.94 -1.33,0.21 -2.51,0.93 -3.3,2.02 l -26.81,37.19 -49.55,-80.14 c -0.91,-1.48 -2.52,-2.38 -4.25,-2.38 h -213.9 c -2.76,0 -5,2.24 -5,5 0,2.77 2.24,5 5,5 h 211.11 l 52.01,84.13 c 0.88,1.43 2.41,2.31 4.08,2.37 1.64,0.13 3.26,-0.72 4.24,-2.07 l 28.21,-39.13 53.86,40.21 c 1.24,0.93 2.85,1.21 4.35,0.81 1.49,-0.42 2.71,-1.51 3.28,-2.95 l 70.9,-176.88 115.84,317.5 c 0.76,2.09 2.7,3.36 5.03,3.27 2.21,-0.14 4.07,-1.73 4.55,-3.9 l 94.65,-425.94 87.48,206.22 c 0.62,1.44 1.86,2.51 3.37,2.89 1.5,0.39 3.12,0.05 4.34,-0.92 l 47.89,-37.91 100.24,300.72 c 0.65,1.95 2.43,3.3 4.49,3.41 2.07,0.12 3.96,-1.07 4.81,-2.94 l 121.49,-269.01 70.64,84.83 c 1.05,1.26 2.67,1.94 4.29,1.78 1.63,-0.15 3.09,-1.09 3.9,-2.52 l 47.58,-83.97 h 90.78 c 2.76,0 5,-2.23 5,-5 0,-2.76 -2.24,-5 -5,-5 h -93.69 c -1.8,0 -3.47,0.97 -4.34,2.54 l -45.46,80.21 -71.13,-85.4 c -1.1,-1.33 -2.84,-1.97 -4.52,-1.76 -1.71,0.23 -3.17,1.33 -3.88,2.9 L 3320,3613.96 3221.55,3318.6 c -0.52,-1.55 -1.76,-2.75 -3.31,-3.21 -1.58,-0.48 -3.25,-0.15 -4.54,0.87 l -48.33,38.26 -91.02,-214.54 c -0.79,-1.86 -2.61,-3.05 -4.6,-3.05"
         style="fill:#97c2ff;fill-opacity:1;fill-rule:nonzero;stroke:none"
         id="path62" />
      <path
         d="m 4748.35,3591.4 h -350.84 c -11.24,0 -20.36,9.12 -20.36,20.36 v 0 c 0,11.25 9.12,20.37 20.36,20.37 h 350.84 c 11.25,0 20.36,-9.12 20.36,-20.37 v 0 c 0,-11.24 -9.11,-20.36 -20.36,-20.36"
         style="fill:#bdd3fa;fill-opacity:1;fill-rule:nonzero;stroke:none"
         id="path64" />
      <path
         d="m 4552.57,3591.4 h -155.06 c -11.24,0 -20.36,9.12 -20.36,20.36 v 0 c 0,11.25 9.12,20.37 20.36,20.37 h 155.06 c 11.24,0 20.36,-9.12 20.36,-20.37 v 0 c 0,-11.24 -9.12,-20.36 -20.36,-20.36"
         style="fill:#ff7867;fill-opacity:1;fill-rule:nonzero;stroke:none"
         id="path66" />
      <path
         d="m 4748.35,3400.34 h -350.84 c -11.24,0 -20.36,9.12 -20.36,20.37 v 0 c 0,11.25 9.12,20.37 20.36,20.37 h 350.84 c 11.25,0 20.36,-9.12 20.36,-20.37 v 0 c 0,-11.25 -9.11,-20.37 -20.36,-20.37"
         style="fill:#bdd3fa;fill-opacity:1;fill-rule:nonzero;stroke:none"
         id="path68" />
      <path
         d="m 4702.85,3400.34 h -305.34 c -11.24,0 -20.36,9.12 -20.36,20.37 v 0 c 0,11.25 9.12,20.37 20.36,20.37 h 305.34 c 11.25,0 20.36,-9.12 20.36,-20.37 v 0 c 0,-11.25 -9.11,-20.37 -20.36,-20.37"
         style="fill:#ff7867;fill-opacity:1;fill-rule:nonzero;stroke:none"
         id="path70" />
      <path
         d="m 4748.35,3190.26 h -350.84 c -11.24,0 -20.36,9.12 -20.36,20.37 v 0 c 0,11.24 9.12,20.36 20.36,20.36 h 350.84 c 11.25,0 20.36,-9.12 20.36,-20.36 v 0 c 0,-11.25 -9.11,-20.37 -20.36,-20.37"
         style="fill:#bdd3fa;fill-opacity:1;fill-rule:nonzero;stroke:none"
         id="path72" />
      <path
         d="m 4414.73,3190.26 h -17.22 c -11.24,0 -20.36,9.12 -20.36,20.37 v 0 c 0,11.24 9.12,20.36 20.36,20.36 h 17.22 c 11.25,0 20.36,-9.12 20.36,-20.36 v 0 c 0,-11.25 -9.11,-20.37 -20.36,-20.37"
         style="fill:#ff7867;fill-opacity:1;fill-rule:nonzero;stroke:none"
         id="path74" />
      <path
         d="m 4161.18,3609.54 2.89,28.36 h 29.14 v -6.68 h -23.01 l -1.71,-15.51 c 1.01,0.61 2.32,1.17 3.92,1.68 1.6,0.53 3.46,0.79 5.57,0.79 2.61,0 4.96,-0.45 7.05,-1.35 2.1,-0.9 3.88,-2.17 5.33,-3.83 1.47,-1.66 2.58,-3.65 3.36,-6 0.78,-2.34 1.17,-4.96 1.17,-7.85 0,-2.73 -0.37,-5.25 -1.11,-7.56 -0.74,-2.3 -1.86,-4.29 -3.34,-5.97 -1.49,-1.68 -3.35,-2.99 -5.61,-3.95 -2.24,-0.95 -4.9,-1.42 -7.95,-1.42 -2.28,0 -4.45,0.31 -6.5,0.95 -2.04,0.64 -3.86,1.61 -5.45,2.91 -1.58,1.31 -2.89,2.95 -3.91,4.93 -1.01,1.97 -1.64,4.29 -1.87,6.95 h 6.84 c 0.44,-3.26 1.6,-5.71 3.47,-7.36 1.88,-1.66 4.36,-2.49 7.42,-2.49 1.72,0 3.25,0.3 4.57,0.9 1.33,0.6 2.47,1.46 3.38,2.58 0.93,1.12 1.63,2.48 2.11,4.08 0.49,1.6 0.73,3.4 0.73,5.37 0,1.78 -0.25,3.43 -0.75,4.97 -0.49,1.53 -1.22,2.87 -2.18,4 -0.96,1.13 -2.15,2.03 -3.58,2.67 -1.41,0.66 -3.04,0.98 -4.86,0.98 -1.22,0 -2.28,-0.08 -3.17,-0.25 -0.88,-0.17 -1.68,-0.41 -2.38,-0.73 -0.7,-0.31 -1.35,-0.69 -1.93,-1.15 -0.59,-0.45 -1.2,-0.95 -1.86,-1.5 l -5.78,1.48"
         style="fill:#bdd3fa;fill-opacity:1;fill-rule:nonzero;stroke:none"
         id="path76" />
      <path
         d="m 4231.22,3615.17 c 0,3.2 -0.22,5.92 -0.68,8.16 -0.45,2.24 -1.14,4.06 -2.05,5.45 -0.91,1.4 -2.04,2.4 -3.38,3.03 -1.34,0.62 -2.88,0.94 -4.63,0.94 -1.72,0 -3.24,-0.32 -4.59,-0.94 -1.34,-0.63 -2.46,-1.63 -3.36,-3.03 -0.9,-1.39 -1.58,-3.21 -2.05,-5.45 -0.47,-2.24 -0.71,-4.96 -0.71,-8.16 v -11.02 c 0,-3.18 0.24,-5.9 0.71,-8.18 0.47,-2.28 1.17,-4.15 2.09,-5.61 0.93,-1.46 2.06,-2.52 3.4,-3.2 1.34,-0.68 2.87,-1.02 4.59,-1.02 1.77,0 3.32,0.34 4.64,1.02 1.33,0.68 2.45,1.74 3.34,3.2 0.9,1.46 1.58,3.33 2.02,5.61 0.44,2.28 0.66,5 0.66,8.18 z m 7.23,-9.88 c 0,-4.66 -0.41,-8.59 -1.25,-11.78 -0.83,-3.19 -2.03,-5.77 -3.58,-7.74 -1.54,-1.97 -3.42,-3.38 -5.62,-4.23 -2.2,-0.86 -4.68,-1.29 -7.44,-1.29 -2.74,0 -5.21,0.43 -7.43,1.29 -2.2,0.85 -4.1,2.26 -5.66,4.23 -1.56,1.97 -2.77,4.55 -3.63,7.74 -0.86,3.19 -1.29,7.12 -1.29,11.78 v 8.67 c 0,4.66 0.43,8.57 1.27,11.72 0.85,3.15 2.05,5.69 3.61,7.61 1.56,1.93 3.45,3.31 5.65,4.14 2.2,0.84 4.66,1.25 7.4,1.25 2.76,0 5.25,-0.41 7.46,-1.25 2.22,-0.83 4.1,-2.21 5.66,-4.14 1.57,-1.92 2.77,-4.46 3.6,-7.61 0.84,-3.15 1.25,-7.06 1.25,-11.72 v -8.67"
         style="fill:#bdd3fa;fill-opacity:1;fill-rule:nonzero;stroke:none"
         id="path78" />
      <path
         d="m 4280.17,3591.93 c 0,-0.92 0.13,-1.79 0.39,-2.64 0.26,-0.84 0.65,-1.6 1.17,-2.25 0.52,-0.65 1.18,-1.17 1.97,-1.56 0.8,-0.39 1.73,-0.59 2.79,-0.59 1.05,0 1.96,0.2 2.74,0.59 0.78,0.39 1.42,0.91 1.93,1.56 0.51,0.65 0.89,1.41 1.13,2.25 0.26,0.85 0.38,1.72 0.38,2.64 v 3.04 c 0,0.92 -0.13,1.8 -0.4,2.64 -0.25,0.85 -0.64,1.59 -1.15,2.23 -0.51,0.64 -1.15,1.15 -1.95,1.54 -0.79,0.39 -1.71,0.58 -2.75,0.58 -1.04,0 -1.96,-0.19 -2.74,-0.58 -0.78,-0.39 -1.43,-0.9 -1.95,-1.54 -0.52,-0.64 -0.91,-1.38 -1.17,-2.23 -0.26,-0.84 -0.39,-1.72 -0.39,-2.64 z m -5.4,3.04 c 0,1.59 0.28,3.1 0.81,4.53 0.53,1.43 1.3,2.68 2.3,3.73 1.01,1.06 2.23,1.9 3.67,2.52 1.45,0.63 3.07,0.94 4.87,0.94 1.82,0 3.45,-0.31 4.9,-0.94 1.44,-0.62 2.67,-1.46 3.67,-2.52 1.01,-1.05 1.78,-2.3 2.3,-3.73 0.54,-1.43 0.8,-2.94 0.8,-4.53 v -3.04 c 0,-1.62 -0.26,-3.13 -0.8,-4.55 -0.52,-1.42 -1.29,-2.66 -2.3,-3.72 -1,-1.05 -2.22,-1.89 -3.65,-2.52 -1.43,-0.62 -3.05,-0.93 -4.85,-0.93 -1.81,0 -3.45,0.31 -4.9,0.93 -1.44,0.63 -2.67,1.47 -3.69,2.52 -1.02,1.06 -1.79,2.3 -2.32,3.72 -0.53,1.42 -0.81,2.93 -0.81,4.55 z m -14.33,-9.65 -4.1,2.58 27.77,44.46 4.1,-2.58 z m -7.97,38.64 c 0,-0.91 0.14,-1.78 0.39,-2.62 0.26,-0.83 0.65,-1.58 1.17,-2.23 0.53,-0.65 1.18,-1.17 1.97,-1.56 0.81,-0.39 1.73,-0.59 2.8,-0.59 1.04,0 1.95,0.2 2.73,0.59 0.78,0.39 1.43,0.91 1.94,1.54 0.5,0.64 0.88,1.39 1.13,2.23 0.25,0.85 0.37,1.73 0.37,2.64 v 3 c 0,0.92 -0.13,1.8 -0.39,2.64 -0.25,0.85 -0.65,1.6 -1.15,2.25 -0.51,0.65 -1.16,1.17 -1.96,1.56 -0.79,0.39 -1.71,0.59 -2.75,0.59 -1.06,0 -1.99,-0.2 -2.77,-0.59 -0.78,-0.39 -1.43,-0.91 -1.94,-1.56 -0.51,-0.65 -0.89,-1.4 -1.15,-2.25 -0.25,-0.84 -0.39,-1.72 -0.39,-2.64 z m -5.39,3 c 0,1.62 0.27,3.13 0.8,4.56 0.54,1.42 1.31,2.66 2.3,3.73 1.01,1.07 2.23,1.91 3.68,2.54 1.44,0.62 3.06,0.93 4.86,0.93 1.83,0 3.46,-0.31 4.9,-0.93 1.45,-0.63 2.67,-1.47 3.65,-2.54 1,-1.07 1.76,-2.31 2.29,-3.73 0.54,-1.43 0.8,-2.94 0.8,-4.56 v -3 c 0,-1.59 -0.25,-3.09 -0.78,-4.51 -0.52,-1.43 -1.28,-2.66 -2.29,-3.72 -0.99,-1.05 -2.21,-1.89 -3.65,-2.52 -1.42,-0.62 -3.05,-0.93 -4.84,-0.93 -1.82,0 -3.46,0.31 -4.9,0.93 -1.45,0.63 -2.68,1.47 -3.7,2.52 -1.01,1.06 -1.78,2.29 -2.32,3.72 -0.53,1.42 -0.8,2.92 -0.8,4.51 v 3"
         style="fill:#bdd3fa;fill-opacity:1;fill-rule:nonzero;stroke:none"
         id="path80" />
      <path
         d="m 4185.13,3431.48 c 0,1.4 -0.24,2.71 -0.69,3.9 -0.45,1.2 -1.11,2.24 -1.95,3.11 -0.84,0.87 -1.86,1.56 -3.03,2.05 -1.17,0.5 -2.46,0.74 -3.87,0.74 -1.4,0 -2.69,-0.23 -3.86,-0.68 -1.17,-0.46 -2.19,-1.11 -3.03,-1.96 -0.84,-0.84 -1.5,-1.87 -1.95,-3.08 -0.45,-1.21 -0.69,-2.58 -0.69,-4.08 0,-1.46 0.24,-2.79 0.69,-3.99 0.45,-1.19 1.09,-2.22 1.93,-3.06 0.84,-0.85 1.84,-1.5 3.01,-1.96 1.17,-0.45 2.48,-0.68 3.9,-0.68 1.43,0 2.74,0.23 3.91,0.68 1.17,0.46 2.17,1.11 3.01,1.96 0.84,0.84 1.48,1.87 1.93,3.06 0.45,1.2 0.69,2.53 0.69,3.99 z m 1.32,-26.41 c 0,1.59 -0.27,3.05 -0.8,4.38 -0.52,1.32 -1.29,2.46 -2.24,3.41 -0.96,0.96 -2.11,1.69 -3.46,2.21 -1.35,0.52 -2.81,0.78 -4.43,0.78 -1.64,0 -3.13,-0.26 -4.46,-0.78 -1.32,-0.52 -2.46,-1.25 -3.39,-2.21 -0.94,-0.95 -1.67,-2.09 -2.17,-3.41 -0.51,-1.33 -0.76,-2.79 -0.76,-4.38 0,-1.64 0.25,-3.1 0.74,-4.37 0.49,-1.28 1.21,-2.37 2.15,-3.27 0.93,-0.89 2.07,-1.58 3.41,-2.05 1.35,-0.47 2.86,-0.7 4.55,-0.7 1.66,0 3.17,0.23 4.52,0.7 1.34,0.47 2.48,1.16 3.41,2.05 0.94,0.9 1.66,1.99 2.17,3.27 0.51,1.27 0.76,2.73 0.76,4.37 z m 5.9,26.52 c 0,-2.83 -0.74,-5.36 -2.24,-7.57 -1.51,-2.22 -3.52,-3.95 -6.08,-5.2 1.47,-0.62 2.78,-1.41 3.97,-2.34 1.19,-0.94 2.2,-2 3.04,-3.19 0.84,-1.18 1.51,-2.48 1.96,-3.88 0.45,-1.41 0.68,-2.91 0.68,-4.5 0,-2.6 -0.47,-4.9 -1.39,-6.91 -0.91,-2 -2.2,-3.69 -3.82,-5.06 -1.63,-1.37 -3.54,-2.4 -5.75,-3.1 -2.2,-0.71 -4.57,-1.06 -7.13,-1.06 -2.55,0 -4.94,0.35 -7.14,1.06 -2.21,0.7 -4.12,1.73 -5.75,3.1 -1.62,1.37 -2.89,3.06 -3.8,5.06 -0.92,2.01 -1.39,4.31 -1.39,6.91 0,1.59 0.21,3.09 0.66,4.5 0.45,1.4 1.08,2.71 1.9,3.9 0.82,1.2 1.81,2.27 2.99,3.21 1.17,0.93 2.48,1.71 3.94,2.34 -2.52,1.25 -4.51,2.98 -5.98,5.19 -1.46,2.22 -2.18,4.73 -2.18,7.54 0,2.48 0.41,4.69 1.25,6.62 0.84,1.94 1.99,3.58 3.47,4.91 1.49,1.33 3.27,2.34 5.32,3.04 2.05,0.71 4.29,1.06 6.71,1.06 2.43,0 4.65,-0.35 6.7,-1.06 2.05,-0.7 3.81,-1.71 5.32,-3.04 1.5,-1.33 2.65,-2.97 3.49,-4.91 0.84,-1.93 1.25,-4.14 1.25,-6.62"
         style="fill:#bdd3fa;fill-opacity:1;fill-rule:nonzero;stroke:none"
         id="path82" />
      <path
         d="m 4231.22,3423.7 c 0,3.21 -0.23,5.93 -0.68,8.17 -0.45,2.24 -1.14,4.06 -2.05,5.45 -0.92,1.39 -2.04,2.4 -3.38,3.02 -1.35,0.63 -2.89,0.94 -4.63,0.94 -1.72,0 -3.24,-0.31 -4.59,-0.94 -1.35,-0.62 -2.46,-1.63 -3.36,-3.02 -0.9,-1.39 -1.58,-3.21 -2.05,-5.45 -0.47,-2.24 -0.71,-4.96 -0.71,-8.17 v -11.01 c 0,-3.18 0.24,-5.9 0.71,-8.19 0.47,-2.28 1.17,-4.14 2.09,-5.6 0.92,-1.46 2.05,-2.52 3.4,-3.2 1.34,-0.68 2.87,-1.02 4.59,-1.02 1.77,0 3.32,0.34 4.64,1.02 1.33,0.68 2.45,1.74 3.34,3.2 0.9,1.46 1.57,3.32 2.02,5.6 0.44,2.29 0.66,5.01 0.66,8.19 z m 7.23,-9.88 c 0,-4.66 -0.41,-8.59 -1.25,-11.78 -0.84,-3.18 -2.03,-5.76 -3.58,-7.73 -1.54,-1.97 -3.42,-3.38 -5.62,-4.24 -2.21,-0.86 -4.69,-1.29 -7.44,-1.29 -2.74,0 -5.22,0.43 -7.43,1.29 -2.2,0.86 -4.1,2.27 -5.66,4.24 -1.56,1.97 -2.77,4.55 -3.63,7.73 -0.86,3.19 -1.29,7.12 -1.29,11.78 v 8.67 c 0,4.67 0.43,8.57 1.27,11.72 0.84,3.15 2.05,5.69 3.61,7.62 1.56,1.93 3.44,3.31 5.65,4.14 2.2,0.83 4.66,1.25 7.4,1.25 2.75,0 5.25,-0.42 7.46,-1.25 2.21,-0.83 4.1,-2.21 5.66,-4.14 1.57,-1.93 2.76,-4.47 3.6,-7.62 0.84,-3.15 1.25,-7.05 1.25,-11.72 v -8.67"
         style="fill:#bdd3fa;fill-opacity:1;fill-rule:nonzero;stroke:none"
         id="path84" />
      <path
         d="m 4280.17,3400.46 c 0,-0.91 0.13,-1.79 0.39,-2.64 0.25,-0.84 0.64,-1.59 1.17,-2.24 0.52,-0.65 1.17,-1.17 1.97,-1.56 0.8,-0.39 1.72,-0.59 2.79,-0.59 1.04,0 1.96,0.2 2.74,0.59 0.78,0.39 1.42,0.91 1.93,1.56 0.51,0.65 0.88,1.4 1.13,2.24 0.26,0.85 0.38,1.73 0.38,2.64 v 3.05 c 0,0.91 -0.14,1.79 -0.4,2.63 -0.25,0.85 -0.64,1.59 -1.15,2.23 -0.51,0.64 -1.15,1.15 -1.95,1.54 -0.8,0.39 -1.72,0.59 -2.75,0.59 -1.04,0 -1.96,-0.2 -2.74,-0.59 -0.78,-0.39 -1.43,-0.9 -1.95,-1.54 -0.53,-0.64 -0.92,-1.38 -1.17,-2.23 -0.26,-0.84 -0.39,-1.72 -0.39,-2.63 z m -5.4,3.05 c 0,1.58 0.28,3.1 0.81,4.53 0.52,1.43 1.3,2.67 2.3,3.73 1,1.05 2.23,1.89 3.67,2.52 1.45,0.62 3.07,0.94 4.87,0.94 1.81,0 3.45,-0.32 4.9,-0.94 1.44,-0.63 2.67,-1.47 3.67,-2.52 1,-1.06 1.78,-2.3 2.3,-3.73 0.53,-1.43 0.8,-2.95 0.8,-4.53 v -3.05 c 0,-1.62 -0.27,-3.13 -0.8,-4.55 -0.52,-1.42 -1.3,-2.66 -2.3,-3.71 -1,-1.06 -2.23,-1.9 -3.65,-2.52 -1.43,-0.63 -3.05,-0.94 -4.85,-0.94 -1.81,0 -3.45,0.31 -4.9,0.94 -1.44,0.62 -2.67,1.46 -3.69,2.52 -1.02,1.05 -1.8,2.29 -2.32,3.71 -0.53,1.42 -0.81,2.93 -0.81,4.55 z m -14.33,-9.65 -4.1,2.58 27.77,44.45 4.1,-2.58 z m -7.97,38.63 c 0,-0.91 0.14,-1.78 0.39,-2.61 0.25,-0.84 0.64,-1.58 1.17,-2.23 0.53,-0.65 1.17,-1.17 1.97,-1.56 0.81,-0.39 1.72,-0.59 2.8,-0.59 1.03,0 1.95,0.2 2.73,0.59 0.78,0.39 1.43,0.9 1.94,1.54 0.5,0.64 0.87,1.38 1.13,2.23 0.25,0.84 0.37,1.72 0.37,2.63 v 3.01 c 0,0.91 -0.14,1.79 -0.39,2.64 -0.25,0.84 -0.65,1.59 -1.15,2.24 -0.51,0.66 -1.16,1.17 -1.96,1.57 -0.8,0.39 -1.72,0.58 -2.75,0.58 -1.07,0 -1.99,-0.19 -2.77,-0.58 -0.78,-0.4 -1.43,-0.91 -1.94,-1.57 -0.51,-0.65 -0.9,-1.4 -1.15,-2.24 -0.25,-0.85 -0.39,-1.73 -0.39,-2.64 z m -5.39,3.01 c 0,1.62 0.27,3.13 0.8,4.55 0.53,1.42 1.31,2.66 2.3,3.73 1,1.07 2.23,1.92 3.68,2.54 1.44,0.63 3.06,0.94 4.86,0.94 1.82,0 3.46,-0.31 4.9,-0.94 1.45,-0.62 2.66,-1.47 3.65,-2.54 1,-1.07 1.76,-2.31 2.29,-3.73 0.53,-1.42 0.8,-2.93 0.8,-4.55 v -3.01 c 0,-1.58 -0.25,-3.09 -0.78,-4.51 -0.53,-1.42 -1.29,-2.66 -2.29,-3.71 -0.99,-1.06 -2.22,-1.89 -3.65,-2.52 -1.42,-0.62 -3.05,-0.94 -4.84,-0.94 -1.82,0 -3.46,0.32 -4.9,0.94 -1.45,0.63 -2.68,1.46 -3.7,2.52 -1.01,1.05 -1.79,2.29 -2.32,3.71 -0.53,1.42 -0.8,2.93 -0.8,4.51 v 3.01"
         style="fill:#bdd3fa;fill-opacity:1;fill-rule:nonzero;stroke:none"
         id="path86" />
      <path
         d="m 4195.13,3187.6 h -37.27 v 5.2 l 18.63,20.7 c 1.72,1.9 3.15,3.58 4.28,5.04 1.13,1.46 2.03,2.79 2.7,4 0.66,1.21 1.13,2.35 1.38,3.4 0.27,1.06 0.39,2.13 0.39,3.22 0,1.41 -0.21,2.73 -0.66,3.97 -0.44,1.23 -1.08,2.31 -1.91,3.22 -0.83,0.91 -1.86,1.63 -3.09,2.17 -1.22,0.53 -2.63,0.8 -4.22,0.8 -1.92,0 -3.59,-0.29 -5.02,-0.86 -1.42,-0.57 -2.6,-1.37 -3.53,-2.38 -0.94,-1.02 -1.64,-2.24 -2.11,-3.65 -0.47,-1.43 -0.71,-2.99 -0.71,-4.71 h -7.22 c 0,2.4 0.4,4.66 1.19,6.8 0.8,2.13 1.97,3.99 3.53,5.58 1.57,1.59 3.51,2.85 5.82,3.77 2.33,0.92 5,1.39 8.05,1.39 2.69,0 5.09,-0.37 7.21,-1.1 2.13,-0.73 3.92,-1.76 5.39,-3.1 1.47,-1.35 2.6,-2.95 3.38,-4.83 0.78,-1.87 1.17,-3.94 1.17,-6.21 0,-1.66 -0.28,-3.34 -0.86,-5.04 -0.57,-1.69 -1.34,-3.37 -2.31,-5.05 -0.95,-1.68 -2.09,-3.35 -3.39,-5 -1.3,-1.66 -2.67,-3.28 -4.11,-4.87 l -15.27,-16.56 h 28.56 v -5.9"
         style="fill:#bdd3fa;fill-opacity:1;fill-rule:nonzero;stroke:none"
         id="path88" />
      <path
         d="m 4208.33,3206.7 h 17.69 v 27.89 l -0.85,-1.56 z m 24.96,0 h 7.89 v -5.9 h -7.89 v -13.2 h -7.27 v 13.2 h -25.89 v 4.26 l 25.46,39.42 h 7.7 v -37.78"
         style="fill:#bdd3fa;fill-opacity:1;fill-rule:nonzero;stroke:none"
         id="path90" />
      <path
         d="m 4280.17,3198.5 c 0,-0.91 0.13,-1.79 0.39,-2.64 0.26,-0.84 0.65,-1.59 1.17,-2.24 0.52,-0.65 1.18,-1.17 1.97,-1.57 0.8,-0.39 1.73,-0.58 2.79,-0.58 1.05,0 1.96,0.19 2.74,0.58 0.78,0.4 1.42,0.92 1.93,1.57 0.51,0.65 0.89,1.4 1.13,2.24 0.26,0.85 0.38,1.73 0.38,2.64 v 3.05 c 0,0.91 -0.13,1.79 -0.4,2.63 -0.25,0.85 -0.64,1.59 -1.15,2.23 -0.51,0.64 -1.15,1.15 -1.95,1.54 -0.79,0.39 -1.71,0.59 -2.75,0.59 -1.04,0 -1.96,-0.2 -2.74,-0.59 -0.78,-0.39 -1.43,-0.9 -1.95,-1.54 -0.52,-0.64 -0.91,-1.38 -1.17,-2.23 -0.26,-0.84 -0.39,-1.72 -0.39,-2.63 z m -5.4,3.05 c 0,1.58 0.28,3.09 0.81,4.53 0.53,1.43 1.3,2.67 2.3,3.73 1.01,1.05 2.23,1.89 3.67,2.52 1.45,0.62 3.07,0.94 4.87,0.94 1.82,0 3.45,-0.32 4.9,-0.94 1.44,-0.63 2.67,-1.47 3.67,-2.52 1.01,-1.06 1.78,-2.3 2.3,-3.73 0.54,-1.44 0.8,-2.95 0.8,-4.53 v -3.05 c 0,-1.62 -0.26,-3.13 -0.8,-4.55 -0.52,-1.42 -1.29,-2.66 -2.3,-3.71 -1,-1.06 -2.22,-1.9 -3.65,-2.52 -1.43,-0.63 -3.05,-0.94 -4.85,-0.94 -1.81,0 -3.45,0.31 -4.9,0.94 -1.44,0.62 -2.67,1.46 -3.69,2.52 -1.02,1.05 -1.79,2.29 -2.32,3.71 -0.53,1.42 -0.81,2.93 -0.81,4.55 z m -14.33,-9.65 -4.1,2.58 27.77,44.45 4.1,-2.58 z m -7.97,38.63 c 0,-0.91 0.14,-1.78 0.39,-2.62 0.26,-0.83 0.65,-1.57 1.17,-2.22 0.53,-0.65 1.18,-1.17 1.97,-1.56 0.81,-0.4 1.73,-0.59 2.8,-0.59 1.04,0 1.95,0.19 2.73,0.59 0.78,0.39 1.43,0.9 1.94,1.54 0.5,0.63 0.88,1.38 1.13,2.22 0.25,0.85 0.37,1.73 0.37,2.64 v 3.01 c 0,0.91 -0.13,1.79 -0.39,2.64 -0.25,0.84 -0.65,1.59 -1.15,2.24 -0.51,0.65 -1.16,1.17 -1.96,1.56 -0.79,0.4 -1.71,0.59 -2.75,0.59 -1.06,0 -1.99,-0.19 -2.77,-0.59 -0.78,-0.39 -1.43,-0.91 -1.94,-1.56 -0.51,-0.65 -0.89,-1.4 -1.15,-2.24 -0.25,-0.85 -0.39,-1.73 -0.39,-2.64 z m -5.39,3.01 c 0,1.62 0.27,3.13 0.8,4.55 0.54,1.42 1.31,2.66 2.3,3.73 1.01,1.07 2.23,1.91 3.68,2.54 1.44,0.62 3.06,0.94 4.86,0.94 1.83,0 3.46,-0.32 4.9,-0.94 1.45,-0.63 2.67,-1.47 3.65,-2.54 1,-1.07 1.76,-2.31 2.29,-3.73 0.54,-1.42 0.8,-2.93 0.8,-4.55 v -3.01 c 0,-1.59 -0.25,-3.09 -0.78,-4.51 -0.52,-1.42 -1.28,-2.66 -2.29,-3.71 -0.99,-1.06 -2.21,-1.9 -3.65,-2.52 -1.42,-0.63 -3.05,-0.94 -4.84,-0.94 -1.82,0 -3.46,0.31 -4.9,0.94 -1.45,0.62 -2.68,1.46 -3.7,2.52 -1.01,1.05 -1.78,2.29 -2.32,3.71 -0.53,1.42 -0.8,2.92 -0.8,4.51 v 3.01"
         style="fill:#bdd3fa;fill-opacity:1;fill-rule:nonzero;stroke:none"
         id="path92" />
      <path
         d="m 5589.07,3591.4 h -350.84 c -11.25,0 -20.36,9.12 -20.36,20.36 v 0 c 0,11.25 9.11,20.37 20.36,20.37 h 350.84 c 11.25,0 20.36,-9.12 20.36,-20.37 v 0 c 0,-11.24 -9.11,-20.36 -20.36,-20.36"
         style="fill:#bdd3fa;fill-opacity:1;fill-rule:nonzero;stroke:none"
         id="path94" />
      <path
         d="m 5589.07,3400.34 h -350.84 c -11.25,0 -20.36,9.12 -20.36,20.37 v 0 c 0,11.25 9.11,20.37 20.36,20.37 h 350.84 c 11.25,0 20.36,-9.12 20.36,-20.37 v 0 c 0,-11.25 -9.11,-20.37 -20.36,-20.37"
         style="fill:#bdd3fa;fill-opacity:1;fill-rule:nonzero;stroke:none"
         id="path96" />
      <path
         d="m 5579.1,3400.34 h -340.87 c -11.25,0 -20.36,9.12 -20.36,20.37 v 0 c 0,11.25 9.11,20.37 20.36,20.37 h 340.87 c 11.25,0 20.36,-9.12 20.36,-20.37 v 0 c 0,-11.25 -9.11,-20.37 -20.36,-20.37"
         style="fill:#ff7867;fill-opacity:1;fill-rule:nonzero;stroke:none"
         id="path98" />
      <path
         d="m 5589.07,3190.26 h -350.84 c -11.25,0 -20.36,9.12 -20.36,20.37 v 0 c 0,11.24 9.11,20.36 20.36,20.36 h 350.84 c 11.25,0 20.36,-9.12 20.36,-20.36 v 0 c 0,-11.25 -9.11,-20.37 -20.36,-20.37"
         style="fill:#bdd3fa;fill-opacity:1;fill-rule:nonzero;stroke:none"
         id="path100" />
      <path
         d="m 5304.97,3190.26 h -68.23 c -10.42,0 -18.87,8.44 -18.87,18.87 v 2.99 c 0,10.42 8.45,18.87 18.87,18.87 h 68.23 c 10.42,0 18.87,-8.45 18.87,-18.87 v -2.99 c 0,-10.43 -8.45,-18.87 -18.87,-18.87"
         style="fill:#ff7867;fill-opacity:1;fill-rule:nonzero;stroke:none"
         id="path102" />
      <path
         d="m 5027.02,3615.17 c 0,3.2 -0.23,5.92 -0.68,8.16 -0.45,2.24 -1.14,4.06 -2.05,5.45 -0.92,1.4 -2.04,2.4 -3.38,3.03 -1.35,0.62 -2.89,0.94 -4.63,0.94 -1.72,0 -3.24,-0.32 -4.59,-0.94 -1.35,-0.63 -2.46,-1.63 -3.36,-3.03 -0.9,-1.39 -1.58,-3.21 -2.05,-5.45 -0.47,-2.24 -0.7,-4.96 -0.7,-8.16 v -11.02 c 0,-3.18 0.23,-5.9 0.7,-8.18 0.47,-2.28 1.17,-4.15 2.09,-5.61 0.92,-1.46 2.05,-2.52 3.4,-3.2 1.34,-0.68 2.87,-1.02 4.59,-1.02 1.77,0 3.32,0.34 4.64,1.02 1.33,0.68 2.45,1.74 3.34,3.2 0.9,1.46 1.57,3.33 2.02,5.61 0.45,2.28 0.66,5 0.66,8.18 z m 7.23,-9.88 c 0,-4.66 -0.41,-8.59 -1.25,-11.78 -0.84,-3.19 -2.03,-5.77 -3.58,-7.74 -1.54,-1.97 -3.42,-3.38 -5.62,-4.23 -2.21,-0.86 -4.69,-1.29 -7.44,-1.29 -2.74,0 -5.22,0.43 -7.43,1.29 -2.2,0.85 -4.1,2.26 -5.66,4.23 -1.56,1.97 -2.77,4.55 -3.63,7.74 -0.86,3.19 -1.29,7.12 -1.29,11.78 v 8.67 c 0,4.66 0.43,8.57 1.27,11.72 0.84,3.15 2.05,5.69 3.61,7.61 1.56,1.93 3.44,3.31 5.65,4.14 2.2,0.84 4.66,1.25 7.4,1.25 2.75,0 5.25,-0.41 7.46,-1.25 2.21,-0.83 4.1,-2.21 5.66,-4.14 1.57,-1.92 2.76,-4.46 3.6,-7.61 0.84,-3.15 1.25,-7.06 1.25,-11.72 v -8.67"
         style="fill:#bdd3fa;fill-opacity:1;fill-rule:nonzero;stroke:none"
         id="path104" />
      <path
         d="m 5075.97,3591.93 c 0,-0.92 0.13,-1.79 0.39,-2.64 0.25,-0.84 0.64,-1.6 1.17,-2.25 0.53,-0.65 1.17,-1.17 1.97,-1.56 0.8,-0.39 1.72,-0.59 2.79,-0.59 1.04,0 1.96,0.2 2.74,0.59 0.78,0.39 1.42,0.91 1.93,1.56 0.51,0.65 0.88,1.41 1.13,2.25 0.26,0.85 0.38,1.72 0.38,2.64 v 3.04 c 0,0.92 -0.14,1.8 -0.39,2.64 -0.26,0.85 -0.65,1.59 -1.16,2.23 -0.5,0.64 -1.15,1.15 -1.95,1.54 -0.8,0.39 -1.72,0.58 -2.75,0.58 -1.04,0 -1.96,-0.19 -2.74,-0.58 -0.78,-0.39 -1.42,-0.9 -1.95,-1.54 -0.53,-0.64 -0.92,-1.38 -1.17,-2.23 -0.26,-0.84 -0.39,-1.72 -0.39,-2.64 z m -5.39,3.04 c 0,1.59 0.27,3.1 0.8,4.53 0.52,1.43 1.3,2.68 2.3,3.73 1,1.06 2.23,1.9 3.67,2.52 1.45,0.63 3.07,0.94 4.87,0.94 1.81,0 3.45,-0.31 4.9,-0.94 1.44,-0.62 2.67,-1.46 3.67,-2.52 1,-1.05 1.78,-2.3 2.3,-3.73 0.53,-1.43 0.81,-2.94 0.81,-4.53 v -3.04 c 0,-1.62 -0.28,-3.13 -0.81,-4.55 -0.52,-1.42 -1.3,-2.66 -2.3,-3.72 -1,-1.05 -2.23,-1.89 -3.65,-2.52 -1.43,-0.62 -3.05,-0.93 -4.85,-0.93 -1.81,0 -3.45,0.31 -4.9,0.93 -1.44,0.63 -2.67,1.47 -3.69,2.52 -1.02,1.06 -1.8,2.3 -2.32,3.72 -0.53,1.42 -0.8,2.93 -0.8,4.55 z m -14.34,-9.65 -4.1,2.58 27.77,44.46 4.1,-2.58 z m -7.97,38.64 c 0,-0.91 0.14,-1.78 0.39,-2.62 0.26,-0.83 0.65,-1.58 1.17,-2.23 0.53,-0.65 1.17,-1.17 1.98,-1.56 0.8,-0.39 1.71,-0.59 2.79,-0.59 1.03,0 1.95,0.2 2.73,0.59 0.78,0.39 1.43,0.91 1.94,1.54 0.5,0.64 0.88,1.39 1.13,2.23 0.25,0.85 0.37,1.73 0.37,2.64 v 3 c 0,0.92 -0.14,1.8 -0.39,2.64 -0.25,0.85 -0.64,1.6 -1.15,2.25 -0.51,0.65 -1.15,1.17 -1.96,1.56 -0.8,0.39 -1.71,0.59 -2.75,0.59 -1.07,0 -1.99,-0.2 -2.77,-0.59 -0.78,-0.39 -1.43,-0.91 -1.94,-1.56 -0.5,-0.65 -0.89,-1.4 -1.15,-2.25 -0.25,-0.84 -0.39,-1.72 -0.39,-2.64 z m -5.39,3 c 0,1.62 0.27,3.13 0.8,4.56 0.53,1.42 1.31,2.66 2.31,3.73 0.99,1.07 2.22,1.91 3.67,2.54 1.44,0.62 3.06,0.93 4.86,0.93 1.82,0 3.46,-0.31 4.9,-0.93 1.45,-0.63 2.66,-1.47 3.66,-2.54 0.99,-1.07 1.75,-2.31 2.28,-3.73 0.53,-1.43 0.8,-2.94 0.8,-4.56 v -3 c 0,-1.59 -0.25,-3.09 -0.78,-4.51 -0.53,-1.43 -1.29,-2.66 -2.29,-3.72 -0.99,-1.05 -2.22,-1.89 -3.65,-2.52 -1.42,-0.62 -3.04,-0.93 -4.84,-0.93 -1.82,0 -3.46,0.31 -4.9,0.93 -1.45,0.63 -2.68,1.47 -3.7,2.52 -1.01,1.06 -1.79,2.29 -2.32,3.72 -0.53,1.42 -0.8,2.92 -0.8,4.51 v 3"
         style="fill:#bdd3fa;fill-opacity:1;fill-rule:nonzero;stroke:none"
         id="path106" />
      <path
         d="m 5015.15,3414.56 c 1.23,0 2.4,0.2 3.55,0.59 1.15,0.39 2.21,0.94 3.16,1.64 0.96,0.7 1.84,1.52 2.6,2.46 0.76,0.94 1.39,1.95 1.86,3.05 v 2.89 c 0,2.58 -0.3,4.86 -0.9,6.85 -0.61,2 -1.41,3.67 -2.4,5.02 -1,1.36 -2.17,2.39 -3.48,3.09 -1.31,0.7 -2.7,1.05 -4.12,1.05 -1.7,0 -3.18,-0.33 -4.49,-1.01 -1.31,-0.68 -2.41,-1.61 -3.3,-2.8 -0.9,-1.18 -1.59,-2.58 -2.05,-4.19 -0.47,-1.62 -0.71,-3.38 -0.71,-5.28 0,-1.69 0.22,-3.34 0.63,-4.94 0.41,-1.6 1.05,-3.03 1.89,-4.28 0.84,-1.25 1.92,-2.25 3.2,-3 1.29,-0.76 2.82,-1.14 4.56,-1.14 z m -8.68,-18.94 c 3.91,0 7.13,0.52 9.65,1.58 2.52,1.05 4.53,2.46 6,4.22 1.46,1.76 2.5,3.77 3.1,6.05 0.61,2.28 0.96,4.65 1.06,7.09 -1.51,-1.79 -3.32,-3.24 -5.41,-4.33 -2.09,-1.1 -4.4,-1.64 -6.9,-1.64 -2.81,0 -5.23,0.55 -7.28,1.66 -2.05,1.11 -3.73,2.55 -5.04,4.33 -1.31,1.79 -2.29,3.81 -2.93,6.08 -0.64,2.26 -0.96,4.55 -0.96,6.87 0,2.71 0.37,5.26 1.14,7.66 0.76,2.4 1.87,4.49 3.34,6.27 1.46,1.78 3.3,3.18 5.5,4.22 2.21,1.03 4.75,1.54 7.64,1.54 3.26,0 6.04,-0.66 8.32,-1.97 2.29,-1.32 4.16,-3.05 5.63,-5.22 1.46,-2.16 2.51,-4.61 3.2,-7.36 0.68,-2.75 1.01,-5.57 1.01,-8.46 v -2.62 c 0,-2.47 -0.11,-4.98 -0.37,-7.52 -0.25,-2.53 -0.72,-5 -1.4,-7.38 -0.69,-2.38 -1.66,-4.61 -2.89,-6.7 -1.23,-2.08 -2.86,-3.9 -4.87,-5.45 -2.01,-1.54 -4.45,-2.77 -7.32,-3.67 -2.87,-0.9 -6.29,-1.35 -10.22,-1.35 h -0.7 v 6.1 h 0.7"
         style="fill:#bdd3fa;fill-opacity:1;fill-rule:nonzero;stroke:none"
         id="path108" />
      <path
         d="m 5070.77,3431.48 c 0,1.4 -0.23,2.71 -0.68,3.9 -0.45,1.2 -1.12,2.24 -1.96,3.11 -0.84,0.87 -1.85,1.56 -3.02,2.05 -1.18,0.5 -2.46,0.74 -3.87,0.74 -1.41,0 -2.7,-0.23 -3.87,-0.68 -1.17,-0.46 -2.19,-1.11 -3.03,-1.96 -0.84,-0.84 -1.5,-1.87 -1.95,-3.08 -0.45,-1.21 -0.68,-2.58 -0.68,-4.08 0,-1.46 0.23,-2.79 0.68,-3.99 0.45,-1.19 1.1,-2.22 1.94,-3.06 0.84,-0.85 1.83,-1.5 3,-1.96 1.17,-0.45 2.48,-0.68 3.91,-0.68 1.43,0 2.73,0.23 3.91,0.68 1.17,0.46 2.16,1.11 3,1.96 0.84,0.84 1.49,1.87 1.94,3.06 0.45,1.2 0.68,2.53 0.68,3.99 z m 1.33,-26.41 c 0,1.59 -0.27,3.05 -0.8,4.38 -0.53,1.32 -1.29,2.46 -2.25,3.41 -0.96,0.96 -2.11,1.69 -3.46,2.21 -1.34,0.52 -2.81,0.78 -4.43,0.78 -1.64,0 -3.12,-0.26 -4.45,-0.78 -1.33,-0.52 -2.46,-1.25 -3.4,-2.21 -0.94,-0.95 -1.66,-2.09 -2.17,-3.41 -0.51,-1.33 -0.76,-2.79 -0.76,-4.38 0,-1.64 0.25,-3.1 0.74,-4.37 0.49,-1.28 1.21,-2.37 2.15,-3.27 0.94,-0.89 2.07,-1.58 3.42,-2.05 1.35,-0.47 2.85,-0.7 4.55,-0.7 1.66,0 3.16,0.23 4.51,0.7 1.35,0.47 2.48,1.16 3.42,2.05 0.94,0.9 1.66,1.99 2.17,3.27 0.5,1.27 0.76,2.73 0.76,4.37 z m 5.9,26.52 c 0,-2.83 -0.75,-5.36 -2.25,-7.57 -1.5,-2.22 -3.51,-3.95 -6.07,-5.2 1.46,-0.62 2.77,-1.41 3.96,-2.34 1.19,-0.94 2.21,-2 3.05,-3.19 0.84,-1.18 1.5,-2.48 1.95,-3.88 0.45,-1.41 0.69,-2.91 0.69,-4.5 0,-2.6 -0.47,-4.9 -1.39,-6.91 -0.92,-2 -2.21,-3.69 -3.83,-5.06 -1.62,-1.37 -3.53,-2.4 -5.74,-3.1 -2.21,-0.71 -4.57,-1.06 -7.13,-1.06 -2.56,0 -4.94,0.35 -7.15,1.06 -2.21,0.7 -4.12,1.73 -5.74,3.1 -1.62,1.37 -2.89,3.06 -3.81,5.06 -0.92,2.01 -1.39,4.31 -1.39,6.91 0,1.59 0.22,3.09 0.67,4.5 0.45,1.4 1.07,2.71 1.89,3.9 0.82,1.2 1.82,2.27 2.99,3.21 1.17,0.93 2.48,1.71 3.95,2.34 -2.52,1.25 -4.52,2.98 -5.98,5.19 -1.47,2.22 -2.19,4.73 -2.19,7.54 0,2.48 0.41,4.69 1.25,6.62 0.84,1.94 1.99,3.58 3.48,4.91 1.48,1.33 3.26,2.34 5.31,3.04 2.05,0.71 4.3,1.06 6.72,1.06 2.42,0 4.65,-0.35 6.7,-1.06 2.05,-0.7 3.81,-1.71 5.31,-3.04 1.5,-1.33 2.66,-2.97 3.5,-4.91 0.84,-1.93 1.25,-4.14 1.25,-6.62"
         style="fill:#bdd3fa;fill-opacity:1;fill-rule:nonzero;stroke:none"
         id="path110" />
      <path
         d="m 5120.89,3400.46 c 0,-0.91 0.13,-1.79 0.39,-2.64 0.25,-0.84 0.64,-1.59 1.17,-2.24 0.53,-0.65 1.17,-1.17 1.97,-1.56 0.8,-0.39 1.72,-0.59 2.8,-0.59 1.03,0 1.95,0.2 2.73,0.59 0.78,0.39 1.43,0.91 1.93,1.56 0.51,0.65 0.88,1.4 1.14,2.24 0.25,0.85 0.37,1.73 0.37,2.64 v 3.05 c 0,0.91 -0.14,1.79 -0.39,2.63 -0.26,0.85 -0.65,1.59 -1.16,2.23 -0.5,0.64 -1.15,1.15 -1.95,1.54 -0.8,0.39 -1.72,0.59 -2.75,0.59 -1.04,0 -1.96,-0.2 -2.74,-0.59 -0.78,-0.39 -1.42,-0.9 -1.95,-1.54 -0.53,-0.64 -0.92,-1.38 -1.17,-2.23 -0.26,-0.84 -0.39,-1.72 -0.39,-2.63 z m -5.39,3.05 c 0,1.58 0.27,3.1 0.8,4.53 0.53,1.43 1.31,2.67 2.3,3.73 1,1.05 2.23,1.89 3.67,2.52 1.45,0.62 3.07,0.94 4.87,0.94 1.81,0 3.45,-0.32 4.9,-0.94 1.45,-0.63 2.68,-1.47 3.67,-2.52 1,-1.06 1.78,-2.3 2.31,-3.73 0.52,-1.43 0.8,-2.95 0.8,-4.53 v -3.05 c 0,-1.62 -0.28,-3.13 -0.8,-4.55 -0.53,-1.42 -1.31,-2.66 -2.31,-3.71 -0.99,-1.06 -2.22,-1.9 -3.65,-2.52 -1.43,-0.63 -3.05,-0.94 -4.84,-0.94 -1.82,0 -3.46,0.31 -4.91,0.94 -1.44,0.62 -2.67,1.46 -3.69,2.52 -1.01,1.05 -1.79,2.29 -2.32,3.71 -0.53,1.42 -0.8,2.93 -0.8,4.55 z m -14.34,-9.65 -4.1,2.58 27.77,44.45 4.1,-2.58 z m -7.97,38.63 c 0,-0.91 0.14,-1.78 0.39,-2.61 0.26,-0.84 0.65,-1.58 1.17,-2.23 0.53,-0.65 1.18,-1.17 1.98,-1.56 0.8,-0.39 1.72,-0.59 2.79,-0.59 1.04,0 1.95,0.2 2.73,0.59 0.79,0.39 1.43,0.9 1.94,1.54 0.51,0.64 0.88,1.38 1.13,2.23 0.26,0.84 0.37,1.72 0.37,2.63 v 3.01 c 0,0.91 -0.13,1.79 -0.39,2.64 -0.25,0.84 -0.64,1.59 -1.15,2.24 -0.51,0.66 -1.15,1.17 -1.95,1.57 -0.8,0.39 -1.72,0.58 -2.76,0.58 -1.07,0 -1.99,-0.19 -2.77,-0.58 -0.78,-0.4 -1.43,-0.91 -1.93,-1.57 -0.51,-0.65 -0.9,-1.4 -1.16,-2.24 -0.25,-0.85 -0.39,-1.73 -0.39,-2.64 z m -5.39,3.01 c 0,1.62 0.28,3.13 0.8,4.55 0.53,1.42 1.31,2.66 2.31,3.73 0.99,1.07 2.22,1.92 3.67,2.54 1.44,0.63 3.07,0.94 4.86,0.94 1.82,0 3.46,-0.31 4.9,-0.94 1.45,-0.62 2.66,-1.47 3.66,-2.54 0.99,-1.07 1.75,-2.31 2.28,-3.73 0.53,-1.42 0.8,-2.93 0.8,-4.55 v -3.01 c 0,-1.58 -0.25,-3.09 -0.78,-4.51 -0.53,-1.42 -1.29,-2.66 -2.28,-3.71 -1,-1.06 -2.23,-1.89 -3.66,-2.52 -1.42,-0.62 -3.04,-0.94 -4.84,-0.94 -1.82,0 -3.46,0.32 -4.9,0.94 -1.45,0.63 -2.68,1.46 -3.69,2.52 -1.02,1.05 -1.8,2.29 -2.33,3.71 -0.52,1.42 -0.8,2.93 -0.8,4.51 v 3.01"
         style="fill:#bdd3fa;fill-opacity:1;fill-rule:nonzero;stroke:none"
         id="path112" />
      <path
         d="m 5022.33,3187.6 h -7.26 v 48.17 l -14.57,-5.36 v 6.57 l 20.7,7.77 h 1.13 v -57.15"
         style="fill:#bdd3fa;fill-opacity:1;fill-rule:nonzero;stroke:none"
         id="path114" />
      <path
         d="m 5062.33,3218.89 c -1.27,0 -2.5,-0.2 -3.67,-0.6 -1.17,-0.41 -2.24,-0.96 -3.22,-1.66 -0.98,-0.71 -1.84,-1.54 -2.58,-2.49 -0.74,-0.95 -1.31,-1.97 -1.7,-3.06 v -2.66 c 0,-2.55 0.31,-4.8 0.92,-6.74 0.6,-1.93 1.42,-3.57 2.46,-4.88 1.04,-1.32 2.21,-2.31 3.54,-2.99 1.32,-0.68 2.71,-1.01 4.14,-1.01 1.66,0 3.14,0.31 4.45,0.95 1.31,0.64 2.4,1.54 3.3,2.7 0.9,1.16 1.58,2.53 2.05,4.12 0.47,1.59 0.7,3.34 0.7,5.23 0,1.7 -0.21,3.33 -0.64,4.91 -0.43,1.58 -1.08,2.97 -1.93,4.18 -0.86,1.21 -1.94,2.18 -3.25,2.91 -1.31,0.72 -2.83,1.09 -4.57,1.09 z m 9.5,25.63 v -6.14 h -0.67 c -3.46,0 -6.41,-0.52 -8.83,-1.56 -2.42,-1.04 -4.41,-2.43 -5.97,-4.16 -1.57,-1.73 -2.76,-3.72 -3.56,-5.96 -0.8,-2.24 -1.31,-4.56 -1.52,-6.95 1.56,1.8 3.4,3.11 5.49,3.93 2.09,0.82 4.35,1.23 6.77,1.23 2.84,0 5.28,-0.55 7.33,-1.62 2.05,-1.08 3.73,-2.5 5.06,-4.26 1.32,-1.76 2.3,-3.76 2.95,-6 0.64,-2.24 0.95,-4.53 0.95,-6.87 0,-2.71 -0.37,-5.24 -1.13,-7.6 -0.76,-2.36 -1.87,-4.4 -3.36,-6.13 -1.48,-1.74 -3.32,-3.11 -5.51,-4.11 -2.18,-1 -4.72,-1.5 -7.61,-1.5 -3.07,0 -5.77,0.64 -8.05,1.91 -2.29,1.28 -4.2,2.95 -5.72,5.02 -1.53,2.07 -2.66,4.41 -3.42,7.02 -0.76,2.6 -1.13,5.21 -1.13,7.85 v 3.4 c 0,2.65 0.15,5.3 0.48,7.94 0.34,2.65 0.9,5.18 1.7,7.58 0.8,2.41 1.88,4.65 3.23,6.72 1.34,2.07 3.02,3.87 5.03,5.39 2.02,1.53 4.42,2.72 7.19,3.58 2.78,0.86 5.98,1.29 9.63,1.29 h 0.67"
         style="fill:#bdd3fa;fill-opacity:1;fill-rule:nonzero;stroke:none"
         id="path116" />
      <path
         d="m 5120.85,3198.5 c 0,-0.91 0.14,-1.79 0.39,-2.64 0.25,-0.84 0.64,-1.59 1.17,-2.24 0.53,-0.65 1.17,-1.17 1.97,-1.57 0.8,-0.39 1.72,-0.58 2.8,-0.58 1.03,0 1.95,0.19 2.73,0.58 0.78,0.4 1.43,0.92 1.93,1.57 0.51,0.65 0.88,1.4 1.14,2.24 0.25,0.85 0.37,1.73 0.37,2.64 v 3.05 c 0,0.91 -0.14,1.79 -0.39,2.63 -0.26,0.85 -0.65,1.59 -1.15,2.23 -0.51,0.64 -1.16,1.15 -1.96,1.54 -0.8,0.39 -1.72,0.59 -2.75,0.59 -1.04,0 -1.95,-0.2 -2.74,-0.59 -0.78,-0.39 -1.42,-0.9 -1.95,-1.54 -0.53,-0.64 -0.92,-1.38 -1.17,-2.23 -0.25,-0.84 -0.39,-1.72 -0.39,-2.63 z m -5.39,3.05 c 0,1.58 0.27,3.09 0.8,4.53 0.53,1.43 1.31,2.67 2.3,3.73 1,1.05 2.23,1.89 3.68,2.52 1.44,0.62 3.06,0.94 4.86,0.94 1.81,0 3.46,-0.32 4.9,-0.94 1.45,-0.63 2.68,-1.47 3.67,-2.52 1,-1.06 1.78,-2.3 2.31,-3.73 0.52,-1.44 0.8,-2.95 0.8,-4.53 v -3.05 c 0,-1.62 -0.28,-3.13 -0.8,-4.55 -0.53,-1.42 -1.31,-2.66 -2.31,-3.71 -0.99,-1.06 -2.22,-1.9 -3.65,-2.52 -1.43,-0.63 -3.05,-0.94 -4.84,-0.94 -1.82,0 -3.46,0.31 -4.91,0.94 -1.44,0.62 -2.67,1.46 -3.69,2.52 -1.01,1.05 -1.79,2.29 -2.32,3.71 -0.53,1.42 -0.8,2.93 -0.8,4.55 z m -14.34,-9.65 -4.1,2.58 27.77,44.45 4.11,-2.58 z m -7.97,38.63 c 0,-0.91 0.14,-1.78 0.39,-2.62 0.26,-0.83 0.65,-1.57 1.18,-2.22 0.52,-0.65 1.17,-1.17 1.97,-1.56 0.8,-0.4 1.72,-0.59 2.79,-0.59 1.04,0 1.95,0.19 2.74,0.59 0.78,0.39 1.42,0.9 1.93,1.54 0.51,0.63 0.88,1.38 1.13,2.22 0.26,0.85 0.37,1.73 0.37,2.64 v 3.01 c 0,0.91 -0.13,1.79 -0.39,2.64 -0.25,0.84 -0.64,1.59 -1.15,2.24 -0.51,0.65 -1.15,1.17 -1.95,1.56 -0.8,0.4 -1.72,0.59 -2.76,0.59 -1.07,0 -1.99,-0.19 -2.77,-0.59 -0.78,-0.39 -1.43,-0.91 -1.93,-1.56 -0.51,-0.65 -0.9,-1.4 -1.16,-2.24 -0.25,-0.85 -0.39,-1.73 -0.39,-2.64 z m -5.39,3.01 c 0,1.62 0.28,3.13 0.8,4.55 0.53,1.42 1.31,2.66 2.31,3.73 0.99,1.07 2.22,1.91 3.67,2.54 1.45,0.62 3.07,0.94 4.86,0.94 1.82,0 3.46,-0.32 4.91,-0.94 1.44,-0.63 2.65,-1.47 3.65,-2.54 0.99,-1.07 1.76,-2.31 2.28,-3.73 0.53,-1.42 0.8,-2.93 0.8,-4.55 v -3.01 c 0,-1.59 -0.25,-3.09 -0.78,-4.51 -0.52,-1.42 -1.29,-2.66 -2.28,-3.71 -1,-1.06 -2.23,-1.9 -3.65,-2.52 -1.43,-0.63 -3.05,-0.94 -4.85,-0.94 -1.81,0 -3.46,0.31 -4.9,0.94 -1.45,0.62 -2.68,1.46 -3.69,2.52 -1.02,1.05 -1.8,2.29 -2.33,3.71 -0.52,1.42 -0.8,2.92 -0.8,4.51 v 3.01"
         style="fill:#bdd3fa;fill-opacity:1;fill-rule:nonzero;stroke:none"
         id="path118" />
      <path
         d="m 2021.63,2312.04 h -250.82 c -2.76,0 -5,2.24 -5,5 0,2.77 2.24,5 5,5 h 250.82 c 2.77,0 5,-2.23 5,-5 0,-2.76 -2.23,-5 -5,-5"
         style="fill:#97c2ff;fill-opacity:1;fill-rule:nonzero;stroke:none"
         id="path120" />
      <path
         d="m 1955.77,2253.15 h -184.96 c -2.76,0 -5,2.23 -5,5 0,2.76 2.24,5 5,5 h 184.96 c 2.76,0 5,-2.24 5,-5 0,-2.77 -2.24,-5 -5,-5"
         style="fill:#97c2ff;fill-opacity:1;fill-rule:nonzero;stroke:none"
         id="path122" />
      <path
         d="m 1863.29,2194.26 h -92.48 c -2.76,0 -5,2.23 -5,5 0,2.76 2.24,5 5,5 h 92.48 c 2.77,0 5,-2.24 5,-5 0,-2.77 -2.23,-5 -5,-5"
         style="fill:#97c2ff;fill-opacity:1;fill-rule:nonzero;stroke:none"
         id="path124" />
      <path
         d="m 3060.84,2580.29 h -250.82 c -2.77,0 -5,2.23 -5,5 0,2.76 2.23,5 5,5 h 250.82 c 2.76,0 5,-2.24 5,-5 0,-2.77 -2.24,-5 -5,-5"
         style="fill:#97c2ff;fill-opacity:1;fill-rule:nonzero;stroke:none"
         id="path126" />
      <path
         d="m 2994.97,2521.39 h -184.95 c -2.77,0 -5,2.24 -5,5 0,2.76 2.23,5 5,5 h 184.95 c 2.77,0 5,-2.24 5,-5 0,-2.76 -2.23,-5 -5,-5"
         style="fill:#97c2ff;fill-opacity:1;fill-rule:nonzero;stroke:none"
         id="path128" />
      <path
         d="m 2902.49,2462.5 h -92.47 c -2.77,0 -5,2.23 -5,5 0,2.76 2.23,5 5,5 h 92.47 c 2.77,0 5,-2.24 5,-5 0,-2.77 -2.23,-5 -5,-5"
         style="fill:#97c2ff;fill-opacity:1;fill-rule:nonzero;stroke:none"
         id="path130" />
      <path
         d="m 2353.64,2560.42 h -184.95 c -2.77,0 -5,2.23 -5,5 0,2.76 2.23,5 5,5 h 184.95 c 2.77,0 5,-2.24 5,-5 0,-2.77 -2.23,-5 -5,-5"
         style="fill:#97c2ff;fill-opacity:1;fill-rule:nonzero;stroke:none"
         id="path132" />
      <path
         d="m 2261.17,2501.52 h -92.48 c -2.77,0 -5,2.24 -5,5 0,2.76 2.23,5 5,5 h 92.48 c 2.76,0 5,-2.24 5,-5 0,-2.76 -2.24,-5 -5,-5"
         style="fill:#97c2ff;fill-opacity:1;fill-rule:nonzero;stroke:none"
         id="path134" />
      <path
         d="m 1814.26,2505.58 c -0.77,0 -1.54,0.3 -2.12,0.88 l -66.39,66.39 c -1.18,1.17 -1.18,3.08 0,4.24 1.17,1.17 3.06,1.17 4.23,0 l 66.4,-66.39 c 1.17,-1.17 1.17,-3.07 0,-4.24 -0.59,-0.58 -1.36,-0.88 -2.12,-0.88"
         style="fill:#97c2ff;fill-opacity:1;fill-rule:nonzero;stroke:none"
         id="path136" />
      <path
         d="m 1794.7,2486.03 c -0.77,0 -1.53,0.29 -2.12,0.88 l -66.39,66.39 c -1.17,1.17 -1.17,3.07 0,4.24 1.17,1.17 3.07,1.17 4.24,0 l 66.39,-66.39 c 1.17,-1.17 1.17,-3.08 0,-4.24 -0.59,-0.59 -1.35,-0.88 -2.12,-0.88"
         style="fill:#97c2ff;fill-opacity:1;fill-rule:nonzero;stroke:none"
         id="path138" />
      <path
         d="m 1700.59,2391.92 c -0.76,0 -1.53,0.29 -2.11,0.88 l -66.4,66.39 c -1.17,1.17 -1.17,3.07 0,4.24 1.18,1.17 3.07,1.17 4.24,0 l 66.39,-66.39 c 1.18,-1.17 1.18,-3.07 0,-4.24 -0.58,-0.59 -1.35,-0.88 -2.12,-0.88"
         style="fill:#97c2ff;fill-opacity:1;fill-rule:nonzero;stroke:none"
         id="path140" />
      <path
         d="m 1681.32,2372.65 c -0.76,0 -1.53,0.29 -2.12,0.88 l -66.39,66.39 c -1.17,1.17 -1.17,3.07 0,4.24 1.17,1.17 3.07,1.17 4.24,0 l 66.39,-66.39 c 1.17,-1.17 1.17,-3.07 0,-4.24 -0.58,-0.59 -1.35,-0.88 -2.12,-0.88"
         style="fill:#97c2ff;fill-opacity:1;fill-rule:nonzero;stroke:none"
         id="path142" />
      <path
         d="m 1662.04,2353.37 c -0.76,0 -1.53,0.29 -2.11,0.88 l -66.4,66.39 c -1.17,1.17 -1.17,3.07 0,4.24 1.18,1.17 3.07,1.17 4.24,0 l 66.39,-66.39 c 1.18,-1.17 1.18,-3.07 0,-4.24 -0.58,-0.59 -1.35,-0.88 -2.12,-0.88"
         style="fill:#97c2ff;fill-opacity:1;fill-rule:nonzero;stroke:none"
         id="path144" />
      <path
         d="m 1642.77,2334.1 c -0.76,0 -1.53,0.29 -2.12,0.88 l -66.39,66.39 c -1.17,1.17 -1.17,3.07 0,4.24 1.17,1.17 3.07,1.17 4.24,0 l 66.39,-66.39 c 1.17,-1.17 1.17,-3.07 0,-4.24 -0.58,-0.59 -1.35,-0.88 -2.12,-0.88"
         style="fill:#97c2ff;fill-opacity:1;fill-rule:nonzero;stroke:none"
         id="path146" />
      <path
         d="m 1543.18,2234.51 c -0.76,0 -1.53,0.3 -2.12,0.88 l -66.39,66.39 c -1.17,1.17 -1.17,3.08 0,4.24 1.17,1.18 3.07,1.18 4.24,0 l 66.39,-66.39 c 1.17,-1.17 1.17,-3.07 0,-4.24 -0.58,-0.58 -1.35,-0.88 -2.12,-0.88"
         style="fill:#97c2ff;fill-opacity:1;fill-rule:nonzero;stroke:none"
         id="path148" />
      <path
         d="m 1521.17,2212.5 c -0.77,0 -1.54,0.29 -2.12,0.88 l -66.39,66.39 c -1.18,1.17 -1.18,3.07 0,4.24 1.17,1.17 3.06,1.17 4.23,0 l 66.4,-66.4 c 1.17,-1.16 1.17,-3.07 0,-4.23 -0.59,-0.59 -1.36,-0.88 -2.12,-0.88"
         style="fill:#97c2ff;fill-opacity:1;fill-rule:nonzero;stroke:none"
         id="path150" />
      <path
         d="m 1632.73,2294.47 c -32.77,0 -65.03,8.07 -92.98,15.76 l -6.27,1.73 c -20,5.54 -40.67,11.28 -61.49,12.64 -18.03,1.18 -43.82,-0.64 -64.53,-16.02 -1.33,-0.98 -3.22,-0.71 -4.19,0.62 -1,1.33 -0.72,3.21 0.62,4.2 22.15,16.45 49.48,18.41 68.49,17.19 21.44,-1.41 42.41,-7.22 62.7,-12.85 l 6.26,-1.73 c 29.62,-8.15 64.2,-16.76 98.54,-15.4 22.32,0.85 40.53,6.07 54.12,15.52 44.53,30.94 39.45,92.96 27.35,139.55 -2.13,8.18 -4.47,16.32 -6.81,24.46 -5.75,19.95 -11.69,40.59 -14.23,61.64 -4.14,34.39 2.45,65.08 18.57,86.42 1,1.32 2.88,1.59 4.2,0.58 1.32,-0.99 1.59,-2.88 0.59,-4.2 -15.18,-20.09 -21.36,-49.24 -17.4,-82.08 2.48,-20.57 8.35,-40.97 14.03,-60.71 2.36,-8.18 4.72,-16.37 6.86,-24.6 12.58,-48.43 17.63,-113.08 -29.73,-145.99 -14.55,-10.11 -33.84,-15.69 -57.32,-16.59 -2.46,-0.09 -4.93,-0.14 -7.38,-0.14"
         style="fill:#97c2ff;fill-opacity:1;fill-rule:nonzero;stroke:none"
         id="path152" />
      <path
         d="m 1550.27,2163.39 c -0.62,0 -1.25,0.19 -1.78,0.59 -1.34,0.99 -1.62,2.87 -0.62,4.2 15.37,20.7 17.19,46.52 16.01,64.53 -1.24,19 -6.04,37.59 -11.26,56.54 -0.45,1.6 0.49,3.25 2.09,3.69 1.59,0.44 3.25,-0.5 3.69,-2.1 5.31,-19.26 10.19,-38.17 11.47,-57.74 1.25,-19.02 -0.72,-46.33 -17.19,-68.5 -0.59,-0.79 -1.49,-1.21 -2.41,-1.21"
         style="fill:#97c2ff;fill-opacity:1;fill-rule:nonzero;stroke:none"
         id="path154" />
      <path
         d="m 1549.87,2307.61 c -1.33,0 -2.54,0.88 -2.9,2.23 -7.15,27 -14.3,58.92 -13.07,90.99 0.89,23.48 6.48,42.77 16.59,57.32 32.91,47.37 97.54,42.31 145.97,29.72 7.5,-1.94 14.96,-4.07 22.42,-6.21 1.59,-0.46 2.51,-2.12 2.06,-3.72 -0.47,-1.59 -2.11,-2.49 -3.72,-2.05 -7.4,2.13 -14.81,4.24 -22.26,6.17 -46.59,12.11 -108.61,17.19 -139.55,-27.34 -9.44,-13.58 -14.67,-31.8 -15.52,-54.12 -1.2,-31.28 5.84,-62.65 12.88,-89.23 0.43,-1.6 -0.53,-3.24 -2.13,-3.66 -0.26,-0.07 -0.51,-0.1 -0.77,-0.1"
         style="fill:#97c2ff;fill-opacity:1;fill-rule:nonzero;stroke:none"
         id="path156" />
      <path
         d="m 1800.74,2459.82 c -6.39,0 -12.96,0.4 -19.68,1.21 -11.82,1.42 -24.11,3.92 -39.84,8.1 -1.6,0.43 -2.55,2.07 -2.12,3.68 0.42,1.6 2.07,2.54 3.67,2.12 15.45,-4.1 27.48,-6.55 39.01,-7.94 32.86,-3.97 62,2.22 82.09,17.39 1.3,1.01 3.19,0.74 4.2,-0.58 1,-1.32 0.73,-3.21 -0.59,-4.2 -17.17,-12.98 -40.4,-19.78 -66.74,-19.78"
         style="fill:#97c2ff;fill-opacity:1;fill-rule:nonzero;stroke:none"
         id="path158" />
      <path
         d="m 2235.12,2216.46 h 117.96 l 58.98,102.16 -58.98,102.16 h -117.96 l -58.98,-102.16 z m 119.69,-5.99 h -121.42 c -1.08,0 -2.06,0.57 -2.6,1.5 l -60.71,105.15 c -0.54,0.93 -0.54,2.07 0,3 l 60.71,105.16 c 0.54,0.92 1.52,1.5 2.6,1.5 h 121.42 c 1.07,0 2.06,-0.58 2.6,-1.5 l 60.71,-105.16 c 0.54,-0.93 0.54,-2.07 0,-3 l -60.71,-105.15 c -0.54,-0.93 -1.53,-1.5 -2.6,-1.5"
         style="fill:#97c2ff;fill-opacity:1;fill-rule:nonzero;stroke:none"
         id="path160" />
      <path
         d="m 3001.86,2258.14 h 117.96 l 58.98,102.15 -58.98,102.16 h -117.96 l -58.98,-102.16 z m 119.69,-6 h -121.42 c -1.08,0 -2.06,0.57 -2.6,1.5 l -60.71,105.15 c -0.54,0.93 -0.54,2.07 0,3 l 60.71,105.16 c 0.54,0.92 1.52,1.5 2.6,1.5 h 121.42 c 1.08,0 2.06,-0.58 2.6,-1.5 l 60.71,-105.16 c 0.53,-0.93 0.53,-2.07 0,-3 l -60.71,-105.15 c -0.54,-0.93 -1.52,-1.5 -2.6,-1.5"
         style="fill:#97c2ff;fill-opacity:1;fill-rule:nonzero;stroke:none"
         id="path162" />
      <path
         d="m 2419.37,2321.62 h 117.96 l 58.99,102.16 -58.99,102.16 h -117.96 l -58.98,-102.16 z m 119.7,-6 h -121.43 c -1.07,0 -2.06,0.57 -2.6,1.5 l -60.7,105.16 c -0.54,0.93 -0.54,2.07 0,3 l 60.7,105.15 c 0.54,0.93 1.53,1.5 2.6,1.5 h 121.43 c 1.07,0 2.06,-0.57 2.59,-1.5 l 60.72,-105.15 c 0.53,-0.93 0.53,-2.07 0,-3 l -60.72,-105.16 c -0.53,-0.93 -1.52,-1.5 -2.59,-1.5"
         style="fill:#97c2ff;fill-opacity:1;fill-rule:nonzero;stroke:none"
         id="path164" />
      <path
         d="M 2913.19,2724.22 H 1432.16 c -22.39,0 -40.53,18.14 -40.53,40.53 v 0 c 0,22.39 18.14,40.53 40.53,40.53 h 1481.03 c 22.39,0 40.53,-18.14 40.53,-40.53 v 0 c 0,-22.39 -18.14,-40.53 -40.53,-40.53"
         style="fill:#edf1ff;fill-opacity:1;fill-rule:nonzero;stroke:none"
         id="path166" />
      <path
         d="M 6046.38,1919.84 H 3841.34 c -22.09,0 -40,17.91 -40,40 v 910.18 c 0,22.09 17.91,40 40,40 h 2205.04 c 22.09,0 40,-17.91 40,-40 v -910.18 c 0,-22.09 -17.91,-40 -40,-40"
         style="fill:#ffffff;fill-opacity:1;fill-rule:nonzero;stroke:none"
         id="path168" />
      <path
         d="m 3841.34,2905.02 c -19.3,0 -35,-15.7 -35,-35 v -910.18 c 0,-19.3 15.7,-35 35,-35 h 2205.04 c 19.29,0 35,15.7 35,35 v 910.18 c 0,19.3 -15.71,35 -35,35 z M 6046.38,1914.84 H 3841.34 c -24.82,0 -45,20.18 -45,45 v 910.18 c 0,24.82 20.18,45 45,45 h 2205.04 c 24.81,0 45,-20.18 45,-45 v -910.18 c 0,-24.82 -20.19,-45 -45,-45"
         style="fill:#97c2ff;fill-opacity:1;fill-rule:nonzero;stroke:none"
         id="path170" />
      <path
         d="M 5409.23,2724.22 H 3928.19 c -22.38,0 -40.52,18.14 -40.52,40.53 v 0 c 0,22.39 18.14,40.53 40.52,40.53 h 1481.04 c 22.38,0 40.53,-18.14 40.53,-40.53 v 0 c 0,-22.39 -18.15,-40.53 -40.53,-40.53"
         style="fill:#edf1ff;fill-opacity:1;fill-rule:nonzero;stroke:none"
         id="path172" />
      <path
         d="m 5918.85,2724.22 h -378.16 c -22.38,0 -40.53,18.14 -40.53,40.53 v 0 c 0,22.39 18.15,40.53 40.53,40.53 h 378.16 c 22.38,0 40.53,-18.14 40.53,-40.53 v 0 c 0,-22.39 -18.15,-40.53 -40.53,-40.53"
         style="fill:#edf1ff;fill-opacity:1;fill-rule:nonzero;stroke:none"
         id="path174" />
      <path
         d="m 4504.04,2583.43 h -355.85 c -9.86,0 -17.86,7.99 -17.86,17.86 v 5.01 c 0,9.86 8,17.86 17.86,17.86 h 355.85 c 9.87,0 17.86,-8 17.86,-17.86 v -5.01 c 0,-9.87 -7.99,-17.86 -17.86,-17.86"
         style="fill:#bdd3fa;fill-opacity:1;fill-rule:nonzero;stroke:none"
         id="path176" />
      <path
         d="m 4391.98,2518.24 h -250.82 c -2.76,0 -5,2.24 -5,5 0,2.77 2.24,5 5,5 h 250.82 c 2.77,0 5,-2.23 5,-5 0,-2.76 -2.23,-5 -5,-5"
         style="fill:#97c2ff;fill-opacity:1;fill-rule:nonzero;stroke:none"
         id="path178" />
      <path
         d="m 4326.11,2459.35 h -184.95 c -2.76,0 -5,2.24 -5,5 0,2.77 2.24,5 5,5 h 184.95 c 2.77,0 5,-2.23 5,-5 0,-2.76 -2.23,-5 -5,-5"
         style="fill:#97c2ff;fill-opacity:1;fill-rule:nonzero;stroke:none"
         id="path180" />
      <path
         d="m 4233.63,2400.46 h -92.47 c -2.76,0 -5,2.24 -5,5 0,2.77 2.24,5 5,5 h 92.47 c 2.77,0 5,-2.23 5,-5 0,-2.76 -2.23,-5 -5,-5"
         style="fill:#97c2ff;fill-opacity:1;fill-rule:nonzero;stroke:none"
         id="path182" />
      <path
         d="m 3938.64,2615.69 c -8.27,0 -15,-6.73 -15,-15 v -117.83 c 0,-8.27 6.73,-15 15,-15 h 117.83 c 8.28,0 15,6.73 15,15 v 117.83 c 0,8.27 -6.72,15 -15,15 z m 117.83,-157.83 h -117.83 c -13.79,0 -25,11.22 -25,25 v 117.83 c 0,13.79 11.21,25 25,25 h 117.83 c 13.79,0 25,-11.21 25,-25 v -117.83 c 0,-13.78 -11.21,-25 -25,-25"
         style="fill:#97c2ff;fill-opacity:1;fill-rule:nonzero;stroke:none"
         id="path184" />
      <path
         d="m 4021.75,2512.59 c -1.28,0 -2.56,0.49 -3.54,1.47 l -48.38,48.37 c -1.95,1.95 -1.95,5.12 0,7.07 1.96,1.95 5.12,1.95 7.07,0 l 48.38,-48.37 c 1.96,-1.96 1.96,-5.12 0,-7.07 -0.97,-0.98 -2.25,-1.47 -3.53,-1.47"
         style="fill:#ff7867;fill-opacity:1;fill-rule:nonzero;stroke:none"
         id="path186" />
      <path
         d="m 3973.37,2512.59 c -1.28,0 -2.56,0.49 -3.54,1.47 -1.95,1.95 -1.95,5.11 0,7.07 l 48.38,48.37 c 1.96,1.95 5.12,1.95 7.07,0 1.96,-1.95 1.96,-5.12 0,-7.07 l -48.38,-48.37 c -0.97,-0.98 -2.25,-1.47 -3.53,-1.47"
         style="fill:#ff7867;fill-opacity:1;fill-rule:nonzero;stroke:none"
         id="path188" />
      <path
         d="m 5219.02,2238.9 h -355.85 c -9.86,0 -17.86,8 -17.86,17.87 v 5.01 c 0,9.86 8,17.86 17.86,17.86 h 355.85 c 9.87,0 17.86,-8 17.86,-17.86 v -5.01 c 0,-9.87 -7.99,-17.87 -17.86,-17.87"
         style="fill:#bdd3fa;fill-opacity:1;fill-rule:nonzero;stroke:none"
         id="path190" />
      <path
         d="m 5106.95,2173.72 h -250.82 c -2.76,0 -5,2.24 -5,5 0,2.77 2.24,5 5,5 h 250.82 c 2.77,0 5,-2.23 5,-5 0,-2.76 -2.23,-5 -5,-5"
         style="fill:#97c2ff;fill-opacity:1;fill-rule:nonzero;stroke:none"
         id="path192" />
      <path
         d="m 5041.09,2114.83 h -184.96 c -2.76,0 -5,2.24 -5,5 0,2.77 2.24,5 5,5 h 184.96 c 2.77,0 5,-2.23 5,-5 0,-2.76 -2.23,-5 -5,-5"
         style="fill:#97c2ff;fill-opacity:1;fill-rule:nonzero;stroke:none"
         id="path194" />
      <path
         d="m 4948.61,2055.94 h -92.48 c -2.76,0 -5,2.23 -5,5 0,2.76 2.24,5 5,5 h 92.48 c 2.77,0 5,-2.24 5,-5 0,-2.77 -2.23,-5 -5,-5"
         style="fill:#97c2ff;fill-opacity:1;fill-rule:nonzero;stroke:none"
         id="path196" />
      <path
         d="m 4653.62,2271.16 c -8.27,0 -15,-6.72 -15,-15 v -117.82 c 0,-8.27 6.73,-15 15,-15 h 117.82 c 8.28,0 15,6.73 15,15 v 117.82 c 0,8.28 -6.72,15 -15,15 z m 117.82,-157.82 h -117.82 c -13.79,0 -25,11.22 -25,25 v 117.82 c 0,13.79 11.21,25 25,25 h 117.82 c 13.79,0 25,-11.21 25,-25 v -117.82 c 0,-13.78 -11.21,-25 -25,-25"
         style="fill:#97c2ff;fill-opacity:1;fill-rule:nonzero;stroke:none"
         id="path198" />
      <path
         d="m 4736.72,2168.06 c -1.28,0 -2.56,0.49 -3.54,1.47 l -48.37,48.38 c -1.95,1.95 -1.95,5.12 0,7.07 1.96,1.95 5.12,1.95 7.07,0 l 48.37,-48.38 c 1.96,-1.95 1.96,-5.12 0,-7.07 -0.97,-0.98 -2.25,-1.47 -3.53,-1.47"
         style="fill:#ff7867;fill-opacity:1;fill-rule:nonzero;stroke:none"
         id="path200" />
      <path
         d="m 4688.35,2168.06 c -1.28,0 -2.56,0.49 -3.54,1.47 -1.95,1.95 -1.95,5.12 0,7.07 l 48.37,48.38 c 1.96,1.95 5.12,1.95 7.07,0 1.96,-1.95 1.96,-5.12 0,-7.07 l -48.37,-48.38 c -0.97,-0.98 -2.25,-1.47 -3.53,-1.47"
         style="fill:#ff7867;fill-opacity:1;fill-rule:nonzero;stroke:none"
         id="path202" />
      <path
         d="m 5941.52,2247.34 h -355.85 c -9.86,0 -17.86,7.99 -17.86,17.86 v 5.01 c 0,9.87 8,17.86 17.86,17.86 h 355.85 c 9.87,0 17.86,-7.99 17.86,-17.86 v -5.01 c 0,-9.87 -7.99,-17.86 -17.86,-17.86"
         style="fill:#bdd3fa;fill-opacity:1;fill-rule:nonzero;stroke:none"
         id="path204" />
      <path
         d="m 5829.45,2182.16 h -250.82 c -2.76,0 -5,2.24 -5,5 0,2.76 2.24,5 5,5 h 250.82 c 2.77,0 5,-2.24 5,-5 0,-2.76 -2.23,-5 -5,-5"
         style="fill:#97c2ff;fill-opacity:1;fill-rule:nonzero;stroke:none"
         id="path206" />
      <path
         d="m 5763.59,2123.27 h -184.96 c -2.76,0 -5,2.24 -5,5 0,2.76 2.24,5 5,5 h 184.96 c 2.77,0 5,-2.24 5,-5 0,-2.76 -2.23,-5 -5,-5"
         style="fill:#97c2ff;fill-opacity:1;fill-rule:nonzero;stroke:none"
         id="path208" />
      <path
         d="m 5671.11,2064.37 h -92.48 c -2.76,0 -5,2.24 -5,5 0,2.77 2.24,5 5,5 h 92.48 c 2.77,0 5,-2.23 5,-5 0,-2.76 -2.23,-5 -5,-5"
         style="fill:#97c2ff;fill-opacity:1;fill-rule:nonzero;stroke:none"
         id="path210" />
      <path
         d="m 5376.12,2279.6 c -8.27,0 -15,-6.73 -15,-15 v -117.82 c 0,-8.27 6.73,-15 15,-15 h 117.82 c 8.28,0 15,6.73 15,15 v 117.82 c 0,8.27 -6.72,15 -15,15 z m 117.82,-157.82 h -117.82 c -13.79,0 -25,11.22 -25,25 v 117.82 c 0,13.79 11.21,25 25,25 h 117.82 c 13.79,0 25,-11.21 25,-25 v -117.82 c 0,-13.78 -11.21,-25 -25,-25"
         style="fill:#97c2ff;fill-opacity:1;fill-rule:nonzero;stroke:none"
         id="path212" />
      <path
         d="m 5459.22,2176.5 c -1.28,0 -2.56,0.49 -3.54,1.47 l -48.37,48.38 c -1.95,1.95 -1.95,5.11 0,7.07 1.96,1.95 5.12,1.95 7.07,0 l 48.37,-48.38 c 1.96,-1.96 1.96,-5.12 0,-7.07 -0.97,-0.98 -2.25,-1.47 -3.53,-1.47"
         style="fill:#ff7867;fill-opacity:1;fill-rule:nonzero;stroke:none"
         id="path214" />
      <path
         d="m 5410.85,2176.5 c -1.28,0 -2.56,0.49 -3.54,1.47 -1.95,1.95 -1.95,5.11 0,7.07 l 48.37,48.38 c 1.96,1.95 5.12,1.95 7.07,0 1.96,-1.96 1.96,-5.12 0,-7.07 l -48.37,-48.38 c -0.97,-0.98 -2.25,-1.47 -3.53,-1.47"
         style="fill:#ff7867;fill-opacity:1;fill-rule:nonzero;stroke:none"
         id="path216" />
      <path
         d="m 5219.02,2583.43 h -355.85 c -9.86,0 -17.86,7.99 -17.86,17.86 v 5.01 c 0,9.86 8,17.86 17.86,17.86 h 355.85 c 9.87,0 17.86,-8 17.86,-17.86 v -5.01 c 0,-9.87 -7.99,-17.86 -17.86,-17.86"
         style="fill:#bdd3fa;fill-opacity:1;fill-rule:nonzero;stroke:none"
         id="path218" />
      <path
         d="m 5106.95,2518.24 h -250.82 c -2.76,0 -5,2.24 -5,5 0,2.77 2.24,5 5,5 h 250.82 c 2.77,0 5,-2.23 5,-5 0,-2.76 -2.23,-5 -5,-5"
         style="fill:#97c2ff;fill-opacity:1;fill-rule:nonzero;stroke:none"
         id="path220" />
      <path
         d="m 5041.09,2459.35 h -184.96 c -2.76,0 -5,2.24 -5,5 0,2.77 2.24,5 5,5 h 184.96 c 2.77,0 5,-2.23 5,-5 0,-2.76 -2.23,-5 -5,-5"
         style="fill:#97c2ff;fill-opacity:1;fill-rule:nonzero;stroke:none"
         id="path222" />
      <path
         d="m 4948.61,2400.46 h -92.48 c -2.76,0 -5,2.24 -5,5 0,2.77 2.24,5 5,5 h 92.48 c 2.77,0 5,-2.23 5,-5 0,-2.76 -2.23,-5 -5,-5"
         style="fill:#97c2ff;fill-opacity:1;fill-rule:nonzero;stroke:none"
         id="path224" />
      <path
         d="m 4653.62,2615.69 c -8.27,0 -15,-6.73 -15,-15 v -117.83 c 0,-8.27 6.73,-15 15,-15 h 117.82 c 8.28,0 15,6.73 15,15 v 117.83 c 0,8.27 -6.72,15 -15,15 z m 117.82,-157.83 h -117.82 c -13.79,0 -25,11.22 -25,25 v 117.83 c 0,13.79 11.21,25 25,25 h 117.82 c 13.79,0 25,-11.21 25,-25 v -117.83 c 0,-13.78 -11.21,-25 -25,-25"
         style="fill:#97c2ff;fill-opacity:1;fill-rule:nonzero;stroke:none"
         id="path226" />
      <path
         d="m 4704.75,2512.59 c -1.09,0 -2.18,0.35 -3.1,1.08 -2.17,1.72 -2.53,4.86 -0.81,7.03 l 38.38,48.37 c 1.72,2.17 4.86,2.53 7.02,0.81 2.17,-1.71 2.53,-4.86 0.81,-7.02 l -38.38,-48.37 c -0.99,-1.25 -2.44,-1.9 -3.92,-1.9"
         style="fill:#97c2ff;fill-opacity:1;fill-rule:nonzero;stroke:none"
         id="path228" />
      <path
         d="m 4704.75,2512.59 c -1.58,0 -3.13,0.75 -4.1,2.14 l -22.82,32.83 c -1.58,2.27 -1.01,5.38 1.25,6.96 2.26,1.57 5.38,1.01 6.95,-1.25 l 22.83,-32.82 c 1.58,-2.27 1.01,-5.39 -1.25,-6.97 -0.87,-0.6 -1.87,-0.89 -2.86,-0.89"
         style="fill:#97c2ff;fill-opacity:1;fill-rule:nonzero;stroke:none"
         id="path230" />
      <path
         d="m 5941.52,2583.43 h -355.85 c -9.86,0 -17.86,7.99 -17.86,17.86 v 5.01 c 0,9.86 8,17.86 17.86,17.86 h 355.85 c 9.87,0 17.86,-8 17.86,-17.86 v -5.01 c 0,-9.87 -7.99,-17.86 -17.86,-17.86"
         style="fill:#bdd3fa;fill-opacity:1;fill-rule:nonzero;stroke:none"
         id="path232" />
      <path
         d="m 5829.45,2518.24 h -250.82 c -2.76,0 -5,2.24 -5,5 0,2.77 2.24,5 5,5 h 250.82 c 2.77,0 5,-2.23 5,-5 0,-2.76 -2.23,-5 -5,-5"
         style="fill:#97c2ff;fill-opacity:1;fill-rule:nonzero;stroke:none"
         id="path234" />
      <path
         d="m 5763.59,2459.35 h -184.96 c -2.76,0 -5,2.24 -5,5 0,2.77 2.24,5 5,5 h 184.96 c 2.77,0 5,-2.23 5,-5 0,-2.76 -2.23,-5 -5,-5"
         style="fill:#97c2ff;fill-opacity:1;fill-rule:nonzero;stroke:none"
         id="path236" />
      <path
         d="m 5671.11,2400.46 h -92.48 c -2.76,0 -5,2.24 -5,5 0,2.77 2.24,5 5,5 h 92.48 c 2.77,0 5,-2.23 5,-5 0,-2.76 -2.23,-5 -5,-5"
         style="fill:#97c2ff;fill-opacity:1;fill-rule:nonzero;stroke:none"
         id="path238" />
      <path
         d="m 5376.12,2615.69 c -8.27,0 -15,-6.73 -15,-15 v -117.83 c 0,-8.27 6.73,-15 15,-15 h 117.82 c 8.28,0 15,6.73 15,15 v 117.83 c 0,8.27 -6.72,15 -15,15 z m 117.82,-157.83 h -117.82 c -13.79,0 -25,11.22 -25,25 v 117.83 c 0,13.79 11.21,25 25,25 h 117.82 c 13.79,0 25,-11.21 25,-25 v -117.83 c 0,-13.78 -11.21,-25 -25,-25"
         style="fill:#97c2ff;fill-opacity:1;fill-rule:nonzero;stroke:none"
         id="path240" />
      <path
         d="m 5427.25,2512.59 c -1.09,0 -2.18,0.35 -3.1,1.08 -2.17,1.72 -2.53,4.86 -0.81,7.03 l 38.38,48.37 c 1.72,2.17 4.86,2.53 7.02,0.81 2.17,-1.71 2.53,-4.86 0.81,-7.02 l -38.38,-48.37 c -0.99,-1.25 -2.44,-1.9 -3.92,-1.9"
         style="fill:#97c2ff;fill-opacity:1;fill-rule:nonzero;stroke:none"
         id="path242" />
      <path
         d="m 5427.25,2512.59 c -1.58,0 -3.13,0.75 -4.1,2.14 l -22.82,32.83 c -1.58,2.27 -1.01,5.38 1.25,6.96 2.27,1.57 5.38,1.01 6.95,-1.25 l 22.83,-32.82 c 1.58,-2.27 1.01,-5.39 -1.25,-6.97 -0.87,-0.6 -1.87,-0.89 -2.86,-0.89"
         style="fill:#97c2ff;fill-opacity:1;fill-rule:nonzero;stroke:none"
         id="path244" />
      <path
         d="m 4504.04,2230.14 h -355.85 c -9.86,0 -17.86,8 -17.86,17.86 v 5.01 c 0,9.86 8,17.86 17.86,17.86 h 355.85 c 9.87,0 17.86,-8 17.86,-17.86 V 2248 c 0,-9.86 -7.99,-17.86 -17.86,-17.86"
         style="fill:#bdd3fa;fill-opacity:1;fill-rule:nonzero;stroke:none"
         id="path246" />
      <path
         d="m 4391.98,2164.96 h -250.82 c -2.76,0 -5,2.24 -5,5 0,2.76 2.24,5 5,5 h 250.82 c 2.77,0 5,-2.24 5,-5 0,-2.76 -2.23,-5 -5,-5"
         style="fill:#97c2ff;fill-opacity:1;fill-rule:nonzero;stroke:none"
         id="path248" />
      <path
         d="m 4326.11,2106.07 h -184.95 c -2.76,0 -5,2.23 -5,5 0,2.76 2.24,5 5,5 h 184.95 c 2.77,0 5,-2.24 5,-5 0,-2.77 -2.23,-5 -5,-5"
         style="fill:#97c2ff;fill-opacity:1;fill-rule:nonzero;stroke:none"
         id="path250" />
      <path
         d="m 4233.63,2047.17 h -92.47 c -2.76,0 -5,2.24 -5,5 0,2.76 2.24,5 5,5 h 92.47 c 2.77,0 5,-2.24 5,-5 0,-2.76 -2.23,-5 -5,-5"
         style="fill:#97c2ff;fill-opacity:1;fill-rule:nonzero;stroke:none"
         id="path252" />
      <path
         d="m 3938.64,2262.4 c -8.27,0 -15,-6.73 -15,-15 v -117.82 c 0,-8.27 6.73,-15 15,-15 h 117.83 c 8.28,0 15,6.73 15,15 v 117.82 c 0,8.27 -6.72,15 -15,15 z m 117.83,-157.82 h -117.83 c -13.79,0 -25,11.21 -25,25 v 117.82 c 0,13.78 11.21,25 25,25 h 117.83 c 13.79,0 25,-11.22 25,-25 v -117.82 c 0,-13.79 -11.21,-25 -25,-25"
         style="fill:#97c2ff;fill-opacity:1;fill-rule:nonzero;stroke:none"
         id="path254" />
      <path
         d="m 3989.78,2159.3 c -1.09,0 -2.18,0.35 -3.1,1.08 -2.17,1.72 -2.53,4.86 -0.81,7.03 l 38.37,48.37 c 1.72,2.17 4.87,2.53 7.02,0.81 2.17,-1.71 2.53,-4.85 0.81,-7.02 l -38.37,-48.38 c -0.99,-1.24 -2.44,-1.89 -3.92,-1.89"
         style="fill:#97c2ff;fill-opacity:1;fill-rule:nonzero;stroke:none"
         id="path256" />
      <path
         d="m 3989.78,2159.3 c -1.58,0 -3.13,0.75 -4.1,2.14 l -22.83,32.83 c -1.58,2.27 -1.01,5.39 1.25,6.96 2.27,1.59 5.39,1.01 6.95,-1.25 l 22.84,-32.82 c 1.58,-2.27 1.01,-5.39 -1.25,-6.97 -0.87,-0.6 -1.87,-0.89 -2.86,-0.89"
         style="fill:#97c2ff;fill-opacity:1;fill-rule:nonzero;stroke:none"
         id="path258" />
      <path
         d="m 1524.48,989.789 h -10.74 c -37.39,0 -67.71,30.321 -67.71,67.711 v 431.95 c 0,37.39 30.32,67.7 67.71,67.7 h 10.74 c 37.39,0 67.71,-30.31 67.71,-67.7 V 1057.5 c 0,-37.39 -30.32,-67.711 -67.71,-67.711"
         style="fill:#bdd3fa;fill-opacity:1;fill-rule:nonzero;stroke:none"
         id="path260" />
      <path
         d="m 1524.48,989.789 h -10.74 c -37.39,0 -67.71,30.321 -67.71,67.711 v 138.83 c 0,37.39 30.32,67.71 67.71,67.71 h 10.74 c 37.39,0 67.71,-30.32 67.71,-67.71 V 1057.5 c 0,-37.39 -30.32,-67.711 -67.71,-67.711"
         style="fill:#97c2ff;fill-opacity:1;fill-rule:nonzero;stroke:none"
         id="path262" />
      <path
         d="m 1781.9,989.789 h -10.73 c -37.4,0 -67.71,30.321 -67.71,67.711 v 431.95 c 0,37.39 30.31,67.7 67.71,67.7 h 10.73 c 37.4,0 67.71,-30.31 67.71,-67.7 V 1057.5 c 0,-37.39 -30.31,-67.711 -67.71,-67.711"
         style="fill:#bdd3fa;fill-opacity:1;fill-rule:nonzero;stroke:none"
         id="path264" />
      <path
         d="m 1776.54,989.789 h -0.01 c -40.35,0 -73.07,32.721 -73.07,73.071 v 341.13 c 0,40.36 32.72,73.07 73.07,73.07 h 0.01 c 40.35,0 73.07,-32.71 73.07,-73.07 v -341.13 c 0,-40.35 -32.72,-73.071 -73.07,-73.071"
         style="fill:#97c2ff;fill-opacity:1;fill-rule:nonzero;stroke:none"
         id="path266" />
      <path
         d="m 2039.33,989.789 h -10.74 c -37.39,0 -67.71,30.321 -67.71,67.711 v 431.95 c 0,37.39 30.32,67.7 67.71,67.7 h 10.74 c 37.39,0 67.71,-30.31 67.71,-67.7 V 1057.5 c 0,-37.39 -30.32,-67.711 -67.71,-67.711"
         style="fill:#bdd3fa;fill-opacity:1;fill-rule:nonzero;stroke:none"
         id="path268" />
      <path
         d="m 2033.96,989.789 v 0 c -40.36,0 -73.08,32.721 -73.08,73.071 v 42.88 c 0,40.36 32.72,73.07 73.08,73.07 v 0 c 40.36,0 73.08,-32.71 73.08,-73.07 v -42.88 c 0,-40.35 -32.72,-73.071 -73.08,-73.071"
         style="fill:#97c2ff;fill-opacity:1;fill-rule:nonzero;stroke:none"
         id="path270" />
      <path
         d="m 2296.75,989.789 h -10.74 c -37.39,0 -67.71,30.321 -67.71,67.711 v 431.95 c 0,37.39 30.32,67.7 67.71,67.7 h 10.74 c 37.39,0 67.71,-30.31 67.71,-67.7 V 1057.5 c 0,-37.39 -30.32,-67.711 -67.71,-67.711"
         style="fill:#bdd3fa;fill-opacity:1;fill-rule:nonzero;stroke:none"
         id="path272" />
      <path
         d="m 2291.38,989.789 v 0 c -40.36,0 -73.08,32.721 -73.08,73.071 v 237.66 c 0,40.36 32.72,73.08 73.08,73.08 v 0 c 40.36,0 73.08,-32.72 73.08,-73.08 v -237.66 c 0,-40.35 -32.72,-73.071 -73.08,-73.071"
         style="fill:#97c2ff;fill-opacity:1;fill-rule:nonzero;stroke:none"
         id="path274" />
      <path
         d="m 2554.17,989.789 h -10.73 c -37.4,0 -67.71,30.321 -67.71,67.711 v 431.95 c 0,37.39 30.31,67.7 67.71,67.7 h 10.73 c 37.4,0 67.71,-30.31 67.71,-67.7 V 1057.5 c 0,-37.39 -30.31,-67.711 -67.71,-67.711"
         style="fill:#bdd3fa;fill-opacity:1;fill-rule:nonzero;stroke:none"
         id="path276" />
      <path
         d="m 2554.17,989.789 h -10.73 c -37.4,0 -67.71,30.321 -67.71,67.711 v 138.83 c 0,37.39 30.31,67.71 67.71,67.71 h 10.73 c 37.4,0 67.71,-30.32 67.71,-67.71 V 1057.5 c 0,-37.39 -30.31,-67.711 -67.71,-67.711"
         style="fill:#97c2ff;fill-opacity:1;fill-rule:nonzero;stroke:none"
         id="path278" />
      <path
         d="m 2811.6,989.789 h -10.74 c -37.39,0 -67.71,30.321 -67.71,67.711 v 431.95 c 0,37.39 30.32,67.7 67.71,67.7 h 10.74 c 37.39,0 67.71,-30.31 67.71,-67.7 V 1057.5 c 0,-37.39 -30.32,-67.711 -67.71,-67.711"
         style="fill:#bdd3fa;fill-opacity:1;fill-rule:nonzero;stroke:none"
         id="path280" />
      <path
         d="m 2811.6,989.789 h -10.74 c -37.39,0 -67.71,30.321 -67.71,67.711 v 138.83 c 0,37.39 30.32,67.71 67.71,67.71 h 10.74 c 37.39,0 67.71,-30.32 67.71,-67.71 V 1057.5 c 0,-37.39 -30.32,-67.711 -67.71,-67.711"
         style="fill:#97c2ff;fill-opacity:1;fill-rule:nonzero;stroke:none"
         id="path282" />
      <path
         d="m 3069.02,989.789 h -10.74 c -37.39,0 -67.7,30.321 -67.7,67.711 v 431.95 c 0,37.39 30.31,67.7 67.7,67.7 h 10.74 c 37.4,0 67.71,-30.31 67.71,-67.7 V 1057.5 c 0,-37.39 -30.31,-67.711 -67.71,-67.711"
         style="fill:#bdd3fa;fill-opacity:1;fill-rule:nonzero;stroke:none"
         id="path284" />
      <path
         d="m 3063.65,989.789 v 0 c -40.36,0 -73.07,32.721 -73.07,73.071 v 231.9 c 0,40.36 32.71,73.07 73.07,73.07 v 0 c 40.36,0 73.08,-32.71 73.08,-73.07 v -231.9 c 0,-40.35 -32.72,-73.071 -73.08,-73.071"
         style="fill:#97c2ff;fill-opacity:1;fill-rule:nonzero;stroke:none"
         id="path286" />
      <path
         d="m 3326.44,989.789 h -10.73 c -37.4,0 -67.71,30.321 -67.71,67.711 v 431.95 c 0,37.39 30.31,67.7 67.71,67.7 h 10.73 c 37.4,0 67.71,-30.31 67.71,-67.7 V 1057.5 c 0,-37.39 -30.31,-67.711 -67.71,-67.711"
         style="fill:#bdd3fa;fill-opacity:1;fill-rule:nonzero;stroke:none"
         id="path288" />
      <path
         d="m 3354.32,989.789 h -66.49 c -22,0 -39.83,17.841 -39.83,39.831 v 0 c 0,22 17.83,39.84 39.83,39.84 h 66.49 c 22,0 39.83,-17.84 39.83,-39.84 v 0 c 0,-21.99 -17.83,-39.831 -39.83,-39.831"
         style="fill:#97c2ff;fill-opacity:1;fill-rule:nonzero;stroke:none"
         id="path290" />
      <path
         d="m 4439.12,1009.97 c 0,0 77.37,135.49 177.5,135.49 100.13,0 197.22,-69.78 197.22,-69.78 0,0 83.43,-40.96 122.88,9.1 39.44,50.07 63.71,172.95 145.63,169.91 81.93,-3.04 100.13,-136.53 156.26,-139.57 53.11,-2.87 121.15,55.37 219.56,178.58 15.91,19.93 39.17,32.98 64.56,35.23 l 1.09,0.1 v -319.06 h -1084.7"
         style="fill:#bdd3fa;fill-opacity:1;fill-rule:nonzero;stroke:none"
         id="path292" />
      <path
         d="m 4624.11,1469.69 c -46.24,0 -83.87,37.63 -83.87,83.88 0,46.25 37.63,83.87 83.87,83.87 46.25,0 83.88,-37.62 83.88,-83.87 0,-46.25 -37.63,-83.88 -83.88,-83.88 z m 0.01,236.89 c -84.51,0 -153.03,-68.5 -153.03,-153.01 0,-84.51 68.52,-153.03 153.03,-153.03 84.51,0 153.02,68.52 153.02,153.03 0,84.51 -68.51,153.01 -153.02,153.01"
         style="fill:#bdd3fa;fill-opacity:1;fill-rule:nonzero;stroke:none"
         id="path294" />
      <path
         d="m 4619.12,1442.05 c 0,14.43 -8.86,27.63 -22.48,32.37 -32.78,11.38 -56.4,42.53 -56.4,79.15 0,36.62 23.62,67.76 56.4,79.14 13.62,4.73 22.48,17.94 22.48,32.37 v 0 c 0,23.7 -23.4,40.7 -45.75,32.84 -59.57,-20.93 -102.28,-77.63 -102.28,-144.35 0,-66.72 42.71,-123.44 102.28,-144.37 22.35,-7.85 45.75,9.15 45.75,32.85 v 0"
         style="fill:#97c2ff;fill-opacity:1;fill-rule:nonzero;stroke:none"
         id="path296" />
      <path
         d="m 4983.12,1476.27 c -46.24,0 -83.86,37.63 -83.86,83.88 0,46.25 37.62,83.88 83.86,83.88 46.25,0 83.88,-37.63 83.88,-83.88 0,-46.25 -37.63,-83.88 -83.88,-83.88 z m 0.01,236.9 c -84.51,0 -153.02,-68.51 -153.02,-153.02 0,-84.51 68.51,-153.03 153.02,-153.03 84.52,0 153.02,68.52 153.02,153.03 0,84.51 -68.5,153.02 -153.02,153.02"
         style="fill:#bdd3fa;fill-opacity:1;fill-rule:nonzero;stroke:none"
         id="path298" />
      <path
         d="m 4904.43,1588.95 c 8.58,23.37 27.29,41.87 50.79,50.19 13.75,4.87 22.91,17.88 22.91,32.46 v 0.15 c 0,23.56 -23.2,40.63 -45.44,32.85 -43.3,-15.12 -77.67,-49.21 -93.28,-92.3 -8.06,-22.26 9.08,-45.71 32.76,-45.71 v 0 c 14.36,0 27.31,8.87 32.26,22.36"
         style="fill:#ff7867;fill-opacity:1;fill-rule:nonzero;stroke:none"
         id="path300" />
      <path
         d="m 5346.61,1469.69 c -46.24,0 -83.87,37.63 -83.87,83.88 0,46.25 37.63,83.87 83.87,83.87 46.25,0 83.88,-37.62 83.88,-83.87 0,-46.25 -37.63,-83.88 -83.88,-83.88 z m 0.01,236.89 c -84.51,0 -153.03,-68.5 -153.03,-153.01 0,-84.51 68.52,-153.03 153.03,-153.03 84.51,0 153.02,68.52 153.02,153.03 0,84.51 -68.51,153.01 -153.02,153.01"
         style="fill:#bdd3fa;fill-opacity:1;fill-rule:nonzero;stroke:none"
         id="path302" />
      <path
         d="m 1046.34,3005.29 v 694.44 l -158.195,-81.52 c -16.153,-20.46 -7.481,-146.23 -7.481,-146.23 0,0 -77.137,2.22 -125.601,84.07 0,0 -175.387,-47.09 -199.704,-216.45 -12.031,-83.8 19.508,-167.92 80.106,-227.04 97.91,-95.52 298.129,-280.24 457.535,-358.38 v 251.11 h -46.66"
         style="fill:#97c2ff;fill-opacity:1;fill-rule:nonzero;stroke:none"
         id="path304" />
      <path
         d="m 988.297,3039.12 c -1.207,0 -2.418,0.43 -3.379,1.31 L 751.461,3254.3 c -2.039,1.86 -2.176,5.03 -0.309,7.07 1.871,2.03 5.028,2.17 7.067,0.3 L 991.676,3047.8 c 2.035,-1.86 2.172,-5.02 0.304,-7.06 -0.984,-1.07 -2.332,-1.62 -3.683,-1.62"
         style="fill:#ffffff;fill-opacity:1;fill-rule:nonzero;stroke:none"
         id="path306" />
      <path
         d="m 975.57,3887.77 c 0,0 6.606,-26.99 5.981,-56.73 -0.434,-20.39 2.109,-40.75 8.902,-59.99 3.266,-9.25 6.641,-17.71 9.203,-21.56 7.144,-10.71 1.784,-33.9 -19.629,-36.58 0,0 23.203,-114.19 -41.035,-113.29 0,0 -27.656,0.89 -47.277,9.81 l -11.598,-142.74 c 0,0 -112.406,24.98 -127.574,81.19 0,0 38.363,117.75 21.41,178.42 0,0 -66.902,24.97 -41.93,59.77 24.985,34.79 66.02,2.67 66.02,2.67 0,0 7.254,61.16 42.051,58.22 34.789,-2.95 124.773,-18.96 135.476,40.81"
         style="fill:#ffb7b0;fill-opacity:1;fill-rule:nonzero;stroke:none"
         id="path308" />
      <path
         d="m 812.848,3969.5 c -52.332,-11.01 -94.453,-50.16 -121.86,-121.03 0,0 -41.527,-19.7 -43.308,-57.17 -1.785,-37.47 3.199,-131.02 130.308,-114.07 0,0 3.996,29.44 -4.035,49.07 0,0 -36.051,9.25 -25.109,43.16 10.933,33.9 49.199,19.28 49.199,19.28 0,0 13.238,38.73 30.945,47.72 24.91,12.65 82.871,-6.88 107.41,8.08 0,0 26.141,-4.16 44.7,4.81 18.558,8.97 27.482,63.58 11.422,79.64 -5.883,5.89 -20.165,13.69 -35.891,21.21 -44.746,21.42 -95.238,29.52 -143.781,19.3"
         style="fill:#625e7a;fill-opacity:1;fill-rule:nonzero;stroke:none"
         id="path310" />
      <path
         d="m 956.344,3780.38 c 0,-6.04 -2.801,-10.92 -6.25,-10.92 -3.453,0 -6.25,4.88 -6.25,10.92 0,6.03 2.797,10.92 6.25,10.92 3.449,0 6.25,-4.89 6.25,-10.92"
         style="fill:#625e7a;fill-opacity:1;fill-rule:nonzero;stroke:none"
         id="path312" />
      <path
         d="m 983.727,3655.21 v 0 c -28.176,0.01 -34.946,18.59 -35.215,19.38 -0.547,1.56 0.281,3.27 1.847,3.81 1.547,0.56 3.274,-0.28 3.809,-1.83 0.254,-0.7 5.891,-15.35 29.559,-15.36 1.66,0 3,-1.34 2.996,-3 0,-1.66 -1.344,-3 -2.996,-3"
         style="fill:#625e7a;fill-opacity:1;fill-rule:nonzero;stroke:none"
         id="path314" />
      <path
         d="m 922.605,3797.7 c -0.406,0 -0.812,0.09 -1.21,0.26 -1.508,0.67 -2.192,2.43 -1.532,3.94 0.082,0.18 8.246,18.19 31.739,15.97 1.648,-0.16 2.859,-1.62 2.711,-3.27 -0.161,-1.65 -1.614,-2.91 -3.27,-2.71 -19.059,1.85 -25.43,-11.84 -25.691,-12.41 -0.5,-1.11 -1.598,-1.78 -2.747,-1.78"
         style="fill:#625e7a;fill-opacity:1;fill-rule:nonzero;stroke:none"
         id="path316" />
      <path
         d="m 800.867,3496.77 243.693,-300.13 v 159.93 l -158.126,187.88 c 0,0 1.621,-66.3 -85.567,-47.68"
         style="fill:#545ece;fill-opacity:1;fill-rule:nonzero;stroke:none"
         id="path318" />
      <path
         d="m 791.762,3303.62 c -1.598,0 -3.168,0.76 -4.137,2.18 -1.559,2.29 -0.965,5.4 1.316,6.95 l 72.082,49.17 c 2.293,1.54 5.399,0.97 6.95,-1.31 1.558,-2.28 0.968,-5.39 -1.313,-6.95 l -72.086,-49.17 c -0.863,-0.58 -1.84,-0.87 -2.812,-0.87"
         style="fill:#ffffff;fill-opacity:1;fill-rule:nonzero;stroke:none"
         id="path320" />
      <path
         d="m 761.336,2093.47 82.844,18.01 43.422,-38.82 39.406,-430.98 -28.801,-161.74 -150.699,-33.65 -29.914,293.56 43.742,353.62"
         style="fill:#545ece;fill-opacity:1;fill-rule:nonzero;stroke:none"
         id="path322" />
      <path
         d="M 88.2891,283.879 103.422,350.898 683.125,726.121 528.164,797.57 70.9922,450.359 36.3945,442.379 v -126.07 c 0,0 15.1368,-30.27 51.8946,-32.43"
         style="fill:#ffb7b0;fill-opacity:1;fill-rule:nonzero;stroke:none"
         id="path324" />
      <path
         d="m 650.145,67.5 29.742,658.621 H 837.176 L 748.551,103.98 805.68,51.7617 c 0,0 -42.528,-37.4101 -90.168,-25.6015 C 667.863,37.9688 650.145,67.5 650.145,67.5"
         style="fill:#ffb7b0;fill-opacity:1;fill-rule:nonzero;stroke:none"
         id="path326" />
      <path
         d="M 43.457,446.039 10.0625,428.699 C 3.19922,425.141 -0.761719,417.77 0.121094,410.082 4.92188,368.379 22.2539,237.16 52.9883,209.492 c 10.418,-9.371 19.3008,-16.672 26.6719,-22.332 10.3867,-7.961 25.1638,0.629 23.4848,13.602 L 92.4414,302.27 c 0,0 -42.3867,8.64 -48.9844,26.468 v 117.301"
         style="fill:#545ece;fill-opacity:1;fill-rule:nonzero;stroke:none"
         id="path328" />
      <path
         d="M 650.48,79.9414 648.504,39.7617 C 647.98,29.1484 655.48,19.8516 665.965,18.1797 713.766,10.5586 840.863,-7.98828 878.543,3.85156 v 0 c 9.859,6.95704 8.187,22.05864 -2.953,26.69924 l -84.488,35.1601 c 0,0 -36.313,-31.2421 -65.414,-25.2109 -29.102,6.0313 -54.958,14.75 -75.208,39.4414"
         style="fill:#545ece;fill-opacity:1;fill-rule:nonzero;stroke:none"
         id="path330" />
      <path
         d="m 792.328,1469.07 c 0,0 61.137,4.84 88.91,19.26 l 50.528,16.77 -46.164,-763.53 c 0,0 -207.461,-84.05 -406.59,74.442 v 0 c 32.687,22.207 50.656,60.48 46.871,99.797 L 496,1226.39 l 36.02,266.77 260.308,-24.09"
         style="fill:#625e7a;fill-opacity:1;fill-rule:nonzero;stroke:none"
         id="path332" />
      <path
         d="m 834.762,2577.53 c 0,0 23.633,-65.82 21.941,-111.39 l 16.414,-21.89 c 4.949,-6.6 3.723,-15.95 -2.765,-21.04 l -11.957,-9.4 c 0,0 18.562,-96.2 -15.192,-102.96 -33.762,-6.75 -55.699,-10.12 -55.699,-10.12 0,0 -15.191,-47.27 0,-72.58 l 49.242,-118.29 -75.41,-16.39 -130.805,139.74 55.699,114.78 c 0,0 -45.132,44.4 -36.851,94.2 11.09,66.69 85.844,143.07 185.383,135.34"
         style="fill:#ffb7b0;fill-opacity:1;fill-rule:nonzero;stroke:none"
         id="path334" />
      <path
         d="m 693.445,2460.07 c 0,0 127.289,25.69 150.336,88.45 0,0 -9.019,110.03 -111.976,94.84 -102.957,-15.19 -173.848,-57.39 -170.473,-170.48 3.375,-113.08 124.898,-124.89 124.898,-124.89 l 0.02,64.13 c 0,0 -27.023,6.75 -21.957,30.38 5.062,23.64 29.152,17.57 29.152,17.57"
         style="fill:#6c60b7;fill-opacity:1;fill-rule:nonzero;stroke:none"
         id="path336" />
      <path
         d="m 565.855,2524.43 c 0,0 -90.601,66.6 -26.464,127.36 64.136,60.77 108.55,-31.07 108.55,-31.07 0,0 -62.371,-32.93 -82.086,-96.29"
         style="fill:#6c60b7;fill-opacity:1;fill-rule:nonzero;stroke:none"
         id="path338" />
      <path
         d="m 916.172,1939.21 331.988,117.66 v -91.06 l -295.933,-131.13 -36.055,104.53"
         style="fill:#87b9ff;fill-opacity:1;fill-rule:nonzero;stroke:none"
         id="path340" />
      <path
         d="m 629.867,2233.94 c 0,0 -86.054,-20.06 -113.539,-145.89 -10.168,-46.53 -8.273,-94.89 2.985,-141.17 l 49.617,-204 c 0,0 -94.539,-421.46 -89.739,-539.69 4.801,-118.25 28.934,-286.331 28.934,-286.331 0,0 166.168,-67.238 255.91,-19.211 0,0 69.324,864.452 -2.699,1195.822 l -131.469,140.47"
         style="fill:#97c2ff;fill-opacity:1;fill-rule:nonzero;stroke:none"
         id="path342" />
      <path
         d="m 787.504,2228.15 c 0,0 62.605,-33.24 107.758,-87.6 20.301,-24.43 30.562,-55.67 30.562,-87.44 v -60.22 l 24.008,-171.06 -51.625,-904.971 h -40.801 c 0,0 58.582,1035.721 -20.66,1193.001 l -49.242,118.29"
         style="fill:#97c2ff;fill-opacity:1;fill-rule:nonzero;stroke:none"
         id="path344" />
      <path
         d="M 916.211,1897.42 711.141,2137.3 552.723,2003.04 c 0,0 232.324,-270.12 338.636,-283.96 73.618,-9.59 274.561,56.95 391.261,98.79 -8.11,28.08 -16.82,56.07 -26.39,84.41 l -340.019,-4.86"
         style="fill:#97c2ff;fill-opacity:1;fill-rule:nonzero;stroke:none"
         id="path346" />
      <path
         d="m 1571.14,1925.32 c -2.44,1.51 -5.33,2.11 -8.17,1.71 l -111.72,-15.57 9.23,4.64 c 5.53,2.79 7.43,10.35 3.09,14.76 -6.34,6.45 -16.27,8.86 -25.28,5.01 l -93.75,-40 -86.34,-1.24 c 8.77,-25.95 16.75,-51.59 24.17,-77.3 47.48,17.02 79.78,29.61 79.78,29.61 l 46.54,2.01 c 50.9,0.88 126.59,36.79 161.63,54.9 8.55,4.41 9.01,16.43 0.82,21.47 v 0"
         style="fill:#ffb7b0;fill-opacity:1;fill-rule:nonzero;stroke:none"
         id="path348" />
      <path
         d="m 1258.2,1894.63 27.05,0.39 25.46,-67.41 -28.34,-10.28 -24.17,77.3"
         style="fill:#545ece;fill-opacity:1;fill-rule:nonzero;stroke:none"
         id="path350" />
      <path
         d="m 832.895,2461.81 c 0,-5.18 -2.372,-9.37 -5.297,-9.37 -2.926,0 -5.297,4.19 -5.297,9.37 0,5.18 2.371,9.37 5.297,9.37 2.925,0 5.297,-4.19 5.297,-9.37"
         style="fill:#625e7a;fill-opacity:1;fill-rule:nonzero;stroke:none"
         id="path352" />
      <path
         d="m 800.508,2471.2 c 0.531,3.11 1.922,5.81 3.543,8.37 1.594,2.6 3.711,4.8 6.066,6.79 2.449,1.85 5.153,3.51 8.211,4.36 3.047,0.82 6.309,1.06 9.277,0.04 -2.777,-1.48 -5.128,-2.75 -7.363,-4.24 -2.152,-1.63 -4.304,-3.12 -6.371,-4.84 l -6.387,-5.16 c -2.199,-1.77 -4.382,-3.59 -6.976,-5.32"
         style="fill:#6c60b7;fill-opacity:1;fill-rule:nonzero;stroke:none"
         id="path354" />
      <path
         d="m 822.301,2375.76 c 0,0 22.285,-15.3 41.144,-16.17 v 27.81 l -41.144,-11.64"
         style="fill:#ffffff;fill-opacity:1;fill-rule:nonzero;stroke:none"
         id="path356" />
      <path
         d="m 794.063,1763.95 c -1.239,0 -2.473,0.45 -3.438,1.37 l -208.121,196.86 c -2.008,1.89 -2.094,5.06 -0.195,7.07 1.894,2 5.07,2.09 7.07,0.2 L 797.5,1772.58 c 2.008,-1.89 2.094,-5.06 0.195,-7.07 -0.98,-1.03 -2.308,-1.56 -3.632,-1.56"
         style="fill:#ffffff;fill-opacity:1;fill-rule:nonzero;stroke:none"
         id="path358" />
      <path
         d="m 939.566,1890.02 c -0.171,0 -0.343,0.01 -0.519,0.03 l -23.352,2.4 c -1.273,0.13 -2.449,0.75 -3.285,1.72 l -49.32,57.69 c -1.797,2.1 -1.547,5.25 0.551,7.05 2.086,1.81 5.25,1.54 7.047,-0.55 l 48.023,-56.17 21.359,-2.2 c 2.746,-0.28 4.746,-2.73 4.465,-5.48 -0.269,-2.57 -2.437,-4.49 -4.969,-4.49"
         style="fill:#ffffff;fill-opacity:1;fill-rule:nonzero;stroke:none"
         id="path360" />
      <path
         d="m 6422.15,1654.29 c -2.11,0 -4.08,1.34 -4.76,3.46 -0.85,2.62 0.59,5.44 3.21,6.3 l 187.52,60.99 c 2.62,0.84 5.45,-0.58 6.3,-3.21 0.85,-2.63 -0.58,-5.44 -3.21,-6.3 l -187.52,-61 c -0.51,-0.16 -1.03,-0.24 -1.54,-0.24"
         style="fill:#ffffff;fill-opacity:1;fill-rule:nonzero;stroke:none"
         id="path362" />
      <path
         d="M 4073.14,111.879 V 62.5195 c 0,0 59.22,-16.4492 88.84,14.8125 v 34.547 h -88.84"
         style="fill:#97c2ff;fill-opacity:1;fill-rule:nonzero;stroke:none"
         id="path364" />
      <path
         d="m 4073.14,62.5195 c 0,0 69.1,-8.2304 88.84,14.8125 L 4277.15,21.3906 V 0 h -204.01 v 62.5195"
         style="fill:#625e7a;fill-opacity:1;fill-rule:nonzero;stroke:none"
         id="path366" />
      <path
         d="M 3716.45,111.879 V 62.5195 c 0,0 -59.22,-16.4492 -88.84,14.8125 v 34.547 h 88.84"
         style="fill:#97c2ff;fill-opacity:1;fill-rule:nonzero;stroke:none"
         id="path368" />
      <path
         d="m 3716.45,62.5195 c 0,0 -69.1,-8.2304 -88.84,14.8125 L 3512.45,21.3906 V 0 h 204 v 62.5195"
         style="fill:#625e7a;fill-opacity:1;fill-rule:nonzero;stroke:none"
         id="path370" />
      <path
         d="m 3766.45,2456.31 v -64.99 h 170.77 v 64.99 l 24.2,21.67 c 0,0 33.14,14.01 36.96,50.97 3.83,36.95 -8.92,49.7 -29.31,42.05 h -232.35 c 0,0 -20.81,11.89 -27.61,-7.65 -6.8,-19.53 -1.7,-79.67 39.93,-80.4 l 17.41,-26.64"
         style="fill:#ffb7b0;fill-opacity:1;fill-rule:nonzero;stroke:none"
         id="path372" />
      <path
         d="m 3848.86,2442.29 c -1.34,-0.06 -104.5,28.89 -115.11,126.58 -10.62,97.7 0,128.71 0,128.71 0,0 19.11,72.21 127,75.61 107.89,3.4 128.28,-112.99 108.32,-202.19 0,0 -2.98,-123.18 -120.21,-128.71"
         style="fill:#625e7a;fill-opacity:1;fill-rule:nonzero;stroke:none"
         id="path374" />
      <path
         d="m 3692.55,2336.53 c 0,0 28.04,79 165.65,82.4 0,0 76.97,8.5 140.85,-74.76 0,0 -125.55,87.51 -306.5,-7.64"
         style="fill:#ffffff;fill-opacity:1;fill-rule:nonzero;stroke:none"
         id="path376" />
      <path
         d="m 3692.55,2329.73 -172.46,-79.85 c 0,0 -64.56,-95.2 -69.66,-217.49 -3.33,-79.71 7.79,-198.45 15.94,-271.47 4.67,-41.96 20.22,-81.92 45.09,-116.04 l 58.75,-80.58 9.34,-592.128 c 0,0 183.51,-130.832 591.29,0 v 618.458 l 57.99,99.12 c 24.21,41.38 36.67,88.49 36.11,136.42 -1.39,118.47 -14.31,343.27 -89,433.9 l -166.52,76.46 c 0,0 -159.71,110.44 -316.87,-6.8"
         style="fill:#97c2ff;fill-opacity:1;fill-rule:nonzero;stroke:none"
         id="path378" />
      <path
         d="m 3731.02,1430.57 -163.92,129.81 6.21,7.84 157.21,-124.49 67.15,62.21 -223.12,442 v 188.1 h 10 v -185.72 l 225.44,-446.61 -78.97,-73.14"
         style="fill:#ffffff;fill-opacity:1;fill-rule:nonzero;stroke:none"
         id="path380" />
      <path
         d="m 3965.07,1419.07 -75.53,80.65 250.75,494.67 -8.43,166.88 9.98,0.51 8.57,-169.54 -0.6,-1.18 -248.18,-489.62 64.39,-68.77 201.68,161.85 6.25,-7.79 -208.88,-167.66"
         style="fill:#ffffff;fill-opacity:1;fill-rule:nonzero;stroke:none"
         id="path382" />
      <path
         d="m 3605.58,957.852 11.35,-855.614 h 124.04 l 71.36,812.172 -206.75,43.442"
         style="fill:#625e7a;fill-opacity:1;fill-rule:nonzero;stroke:none"
         id="path384" />
      <path
         d="m 3926.77,918.891 c -0.53,-0.051 131.93,-816.653 131.93,-816.653 l 113.84,11.891 -49.12,843.723 -196.65,-38.961"
         style="fill:#625e7a;fill-opacity:1;fill-rule:nonzero;stroke:none"
         id="path386" />
      <path
         d="m 3809.98,1477.06 22.31,-9.42 50.05,1.51 26.16,-39.41 20.64,-25.68 -80,-60.65 -10.11,8.01 c 0,0 -17.26,-6.74 -21.05,8.84 0,0 -26.11,-6.74 -23.59,14.31 0,0 -26.52,-1.26 -16.41,20.22 l 4.63,9.69 -19.8,26.1 47.17,46.48"
         style="fill:#ffb7b0;fill-opacity:1;fill-rule:nonzero;stroke:none"
         id="path388" />
      <path
         d="m 3892.25,1403.74 c -0.5,0 -1.01,0.13 -1.48,0.39 l -33.17,18.85 c -4.95,2.81 -6.86,9.01 -4.34,14.11 2.53,5.14 8.63,7.41 13.9,5.14 l 47.45,-20.34 c 1.52,-0.65 2.23,-2.41 1.57,-3.94 -0.65,-1.54 -2.44,-2.22 -3.93,-1.57 l -47.46,20.34 c -2.34,1.02 -5.04,-0.02 -6.15,-2.28 -1.11,-2.26 -0.27,-4.99 1.93,-6.24 l 33.17,-18.85 c 1.43,-0.82 1.94,-2.65 1.12,-4.09 -0.54,-0.97 -1.56,-1.52 -2.61,-1.52"
         style="fill:#ff988e;fill-opacity:1;fill-rule:nonzero;stroke:none"
         id="path390" />
      <path
         d="m 3880.79,1386.19 c -0.53,0 -1.06,0.14 -1.55,0.43 l -27.06,16.36 c -3.36,2.03 -5.61,5.43 -6.17,9.32 -0.54,3.88 0.66,7.78 3.33,10.67 4.13,4.49 10.74,5.5 16.02,2.5 l 16.91,-9.61 c 1.44,-0.82 1.95,-2.64 1.13,-4.09 -0.82,-1.44 -2.68,-1.92 -4.09,-1.12 l -16.92,9.61 c -2.88,1.64 -6.42,1.05 -8.64,-1.35 -1.44,-1.56 -2.09,-3.66 -1.79,-5.76 0.29,-2.1 1.51,-3.94 3.32,-5.03 l 27.06,-16.36 c 1.42,-0.86 1.88,-2.7 1.02,-4.12 -0.57,-0.93 -1.55,-1.45 -2.57,-1.45"
         style="fill:#ff988e;fill-opacity:1;fill-rule:nonzero;stroke:none"
         id="path392" />
      <path
         d="m 3869.54,1370.71 c -0.55,0 -1.1,0.14 -1.6,0.45 l -24.74,15.56 c -2.57,1.62 -4.37,4.27 -4.93,7.26 -0.57,2.99 0.16,6.1 1.96,8.55 3.42,4.62 9.91,5.82 14.75,2.69 l 16.18,-10.41 c 1.4,-0.89 1.8,-2.76 0.9,-4.14 -0.89,-1.4 -2.75,-1.8 -4.14,-0.9 l -16.18,10.41 c -2.22,1.4 -5.14,0.87 -6.68,-1.22 -0.83,-1.13 -1.15,-2.5 -0.89,-3.87 0.25,-1.38 1.04,-2.55 2.24,-3.29 l 24.73,-15.56 c 1.4,-0.88 1.82,-2.73 0.94,-4.14 -0.57,-0.9 -1.54,-1.39 -2.54,-1.39"
         style="fill:#ff988e;fill-opacity:1;fill-rule:nonzero;stroke:none"
         id="path394" />
      <path
         d="m 3796.49,1375.78 c -0.37,0 -0.74,0.07 -1.1,0.21 -1.53,0.6 -2.3,2.35 -1.69,3.9 l 6.96,17.68 c 1.31,3.32 0.09,7.17 -2.89,9.14 -3.02,1.97 -6.92,1.6 -9.51,-0.91 l -3.56,-3.47 c -1.19,-1.16 -3.09,-1.14 -4.24,0.06 -1.15,1.18 -1.13,3.07 0.06,4.23 l 3.56,3.48 c 4.63,4.5 11.6,5.14 16.99,1.62 5.35,-3.53 7.51,-10.41 5.18,-16.35 l -6.96,-17.69 c -0.47,-1.17 -1.61,-1.9 -2.8,-1.9"
         style="fill:#ff988e;fill-opacity:1;fill-rule:nonzero;stroke:none"
         id="path396" />
      <path
         d="m 3815.32,1364.84 c -0.35,0 -0.71,0.06 -1.05,0.19 -1.56,0.58 -2.34,2.32 -1.75,3.86 l 9.4,24.93 c 1.04,2.76 0.19,5.86 -2.11,7.71 -1.46,1.17 -3.28,1.71 -5.12,1.45 -1.86,-0.23 -3.49,-1.19 -4.6,-2.68 l -4.28,-5.75 c -0.99,-1.31 -2.85,-1.59 -4.2,-0.6 -1.33,0.98 -1.6,2.86 -0.61,4.2 l 4.28,5.74 c 2.09,2.8 5.17,4.6 8.64,5.04 3.49,0.44 6.91,-0.52 9.64,-2.73 4.34,-3.46 5.93,-9.29 3.97,-14.49 l -9.41,-24.93 c -0.45,-1.2 -1.59,-1.94 -2.8,-1.94"
         style="fill:#ff988e;fill-opacity:1;fill-rule:nonzero;stroke:none"
         id="path398" />
      <path
         d="m 3838.18,1355.16 c -0.05,0 -0.1,0 -0.16,0 -1.65,0.1 -2.92,1.5 -2.84,3.16 l 1.26,23.01 c 0.07,1.23 -0.36,2.41 -1.21,3.31 -2.02,2.15 -6.03,1.52 -7.29,-1.17 l -5.57,-11.86 c -0.7,-1.49 -2.47,-2.13 -3.99,-1.43 -1.5,0.7 -2.14,2.49 -1.44,3.99 l 5.57,11.85 c 1.71,3.65 5.43,6.01 9.47,6.01 2.86,0 5.64,-1.19 7.61,-3.27 1.99,-2.11 3.01,-4.86 2.85,-7.76 l -1.26,-23.01 c -0.09,-1.59 -1.42,-2.83 -3,-2.83"
         style="fill:#ff988e;fill-opacity:1;fill-rule:nonzero;stroke:none"
         id="path400" />
      <path
         d="m 3955.06,1429.16 -23.29,-23.84 -49.43,63.83 24.74,19.16 47.98,-59.15"
         style="fill:#545ece;fill-opacity:1;fill-rule:nonzero;stroke:none"
         id="path402" />
      <path
         d="m 3743.42,1448.86 19.39,-22 50.95,50.2 -17.91,20.37 -52.43,-48.57"
         style="fill:#545ece;fill-opacity:1;fill-rule:nonzero;stroke:none"
         id="path404" />
      <path
         d="m 1387.04,3941.93 7.48,-59.83 c 0.51,-4.1 4,-7.17 8.13,-7.17 v 0 c 4.6,0 8.3,3.77 8.19,8.37 l -0.12,56.16 10.47,-0.47 -10.55,-66.25 c -0.94,-5.27 3.11,-10.11 8.47,-10.11 v 0 c 3.75,0 7.07,2.42 8.2,6 l 30.01,70.87 3.09,-3.1 -34.21,-74.51 c -2.86,-6.22 1.69,-13.31 8.54,-13.31 v 0 c 2.9,0 5.63,1.33 7.41,3.63 l 58.66,75.42 2.88,-0.33 -44.87,-57.55 v 0 c 6.9,-2.92 14.9,-0.83 19.48,5.1 l 37.83,48.93 c 4.89,6.34 3.61,15.39 -2.83,20.16 -20.23,14.96 -65.68,40.87 -118.76,21.45 0,0 -82.83,5.71 -107.42,-27.67 l 83.44,-0.88 c 0,0 4.19,5.96 16.48,5.09"
         style="fill:#ffb7b0;fill-opacity:1;fill-rule:nonzero;stroke:none"
         id="path406" />
      <path
         d="m 1035.71,3121.98 c -4.99,0 -10.68,-2.85 -11.6,-7.75 -4.3,-22.81 -20.85,-85.61 0.14,-107.92 20.18,-21.43 63.97,-43.85 82.22,-52.66 5.31,-2.56 11.08,-3.88 16.97,-3.88 h 0.96 c 15.68,0 29.83,9.38 35.93,23.83 l 20.63,48.87 c 0,0 3.23,43.62 -30.69,48.46 l -103.4,-46.84 -2.31,89.28 c -0.55,5.27 -8.85,8.61 -8.85,8.61"
         style="fill:#ffb7b0;fill-opacity:1;fill-rule:nonzero;stroke:none"
         id="path408" />
      <path
         d="m 1103.01,3025.63 c -1,0 -1.99,0.49 -2.55,1.41 -0.88,1.41 -0.44,3.26 0.96,4.13 l 55,34.17 c 1.42,0.88 3.27,0.43 4.14,-0.96 0.87,-1.41 0.44,-3.26 -0.97,-4.14 l -55,-34.17 c -0.49,-0.3 -1.04,-0.44 -1.58,-0.44"
         style="fill:#ff988e;fill-opacity:1;fill-rule:nonzero;stroke:none"
         id="path410" />
      <path
         d="m 1120.51,3017.29 c -0.93,0 -1.84,0.43 -2.42,1.23 -0.98,1.34 -0.69,3.21 0.65,4.19 l 43.33,31.67 c 1.33,0.98 3.21,0.69 4.19,-0.66 0.98,-1.33 0.69,-3.21 -0.65,-4.18 l -43.34,-31.67 c -0.53,-0.39 -1.15,-0.58 -1.76,-0.58"
         style="fill:#ff988e;fill-opacity:1;fill-rule:nonzero;stroke:none"
         id="path412" />
      <path
         d="m 1130.51,3002.53 c -0.9,0 -1.79,0.4 -2.38,1.17 -1.01,1.31 -0.77,3.19 0.55,4.2 l 38.33,29.53 c 1.32,1.01 3.2,0.77 4.21,-0.54 1.01,-1.32 0.77,-3.2 -0.55,-4.21 l -38.33,-29.53 c -0.55,-0.42 -1.19,-0.62 -1.83,-0.62"
         style="fill:#ff988e;fill-opacity:1;fill-rule:nonzero;stroke:none"
         id="path414" />
      <path
         d="m 7137.11,208.672 25.96,-20.93 c 5.06,-4.082 7.3,-10.703 5.69,-17 -8.98,-35.121 -41.87,-148.3318 -96.68,-165.98028 0,0 -6.54,-2.62109 -14.64,-3.58203 C 7047.46,0 7040.31,10.582 7045.3,19.3086 c 12.55,21.9414 34.97,63.1133 38.9,83.5434 0,0 39.81,-4.1997 49.91,47.937 l 3,57.883"
         style="fill:#545ece;fill-opacity:1;fill-rule:nonzero;stroke:none"
         id="path416" />
      <path
         d="m 7137.11,208.672 -34.09,40.789 -162.1,328.449 -101.41,229.039 -200.47,-21.527 441.86,-634.07 3.3,-48.5 c 65.03,-2.192 52.91,105.82 52.91,105.82"
         style="fill:#ffb7b0;fill-opacity:1;fill-rule:nonzero;stroke:none"
         id="path418" />
      <path
         d="m 6387.11,2012.6 34.53,-234.18 h 65.95 l -55.44,249.19 -45.04,-15.01"
         style="fill:#545ece;fill-opacity:1;fill-rule:nonzero;stroke:none"
         id="path420" />
      <path
         d="m 6421.64,1778.42 c 0,0 -18.88,-678.14 -3.84,-1002.799 0,0 356.62,-39.039 482.72,57.051 l -123.1,615.488 c 0,0 -153.42,-32.07 -208.58,99.62 -55.16,131.7 -60,230.64 -60,230.64 h -87.2"
         style="fill:#625e7a;fill-opacity:1;fill-rule:nonzero;stroke:none"
         id="path422" />
      <path
         d="m 6535.71,2269.03 c 0,0 -73.76,-26.96 -132.95,5.77 0,0 50.4,257.16 144.72,318.53 0,0 53.5,-228.98 -11.77,-324.3"
         style="fill:#6c60b7;fill-opacity:1;fill-rule:nonzero;stroke:none"
         id="path424" />
      <path
         d="m 6469.54,2170.29 -226.85,238.48 c -5.76,6.06 -10.46,13.04 -13.91,20.66 l -110.88,244.7 66.05,58.05 142.11,-252.21 254.93,-244.97 -111.45,-64.71"
         style="fill:#87b9ff;fill-opacity:1;fill-rule:nonzero;stroke:none"
         id="path426" />
      <path
         d="m 6547.48,2593.33 c 0,0 -40.62,-57.73 -35.37,-95.42 l -23.57,-21.99 c -5.45,-5.1 -6.34,-14.01 -1.01,-19.23 1.81,-1.78 4.36,-3.4 7.92,-4.64 0,0 -22.9,-86.85 7.67,-97.96 30.57,-11.11 39.44,-7.31 39.44,-7.31 0,0 5.54,-47.29 -8.82,-70.72 -4.52,-7.39 -9.34,-14.59 -12.96,-22.45 -13.31,-28.85 -39.7,-89.84 -37.18,-114.81 0,0 150.72,116.18 190.3,117 0,0 -31.01,60.14 -31.19,110.48 -0.18,50.34 -0.18,50.34 -0.18,50.34 0,0 41.31,-15.34 41.31,21.79 0,36.44 -34.24,27.38 -34.24,27.38 0,0 -94.51,49.49 -102.12,127.54"
         style="fill:#ffb7b0;fill-opacity:1;fill-rule:nonzero;stroke:none"
         id="path428" />
      <path
         d="m 6547.48,2593.33 c 0,0 74.09,78.8 167.13,15.28 44.59,-30.44 71.74,-80.84 75.03,-134.73 1.3,-21.24 0.43,-46.2 -4.76,-74.13 l 21.53,-117.39 c 4.3,-23.44 -11.82,-45.77 -35.44,-48.89 -27.1,-3.58 -63.38,-1.56 -97.07,22.33 0,0 -44.44,85.11 -31.37,160.82 0,0 31.93,-12.59 37.85,19.91 0,0 6.86,30.61 -30.78,29.26 0,0 -94.21,30.89 -102.12,127.54"
         style="fill:#6c60b7;fill-opacity:1;fill-rule:nonzero;stroke:none"
         id="path430" />
      <path
         d="m 6673.9,2255.8 c 0,0 -124.33,-12.01 -190.55,-75.06 l -174.3,-54.05 -198.16,183.15 -45.03,-36.03 c 0,0 76.94,-193.53 177.41,-262.09 20.91,-14.27 46.85,-19.09 71.64,-13.98 l 72.2,14.86 45.04,15.01 c 0,0 9.21,-89.45 23.26,-212.14 1.41,-12.34 2.88,-25.01 4.38,-37.97 1.62,-13.88 3.28,-28.09 5,-42.56 28.52,-240.64 69.72,-550.55 98.4,-604.66 88.15,-166.249 331.9,-138.788 331.9,-138.788 0,0 -186.25,797.538 -168.7,979.078 16.99,175.89 -17.91,243.21 -52.49,285.23"
         style="fill:#97c2ff;fill-opacity:1;fill-rule:nonzero;stroke:none"
         id="path432" />
      <path
         d="m 6572.92,67.5898 v -41.121 c 0,-7.3985 -5.46,-13.6485 -12.8,-14.5704 -35.27,-4.48824 -134.57,-15.99996 -184.82,-10.38668 -10.35,1.14844 -13.54,14.66798 -4.81,20.35938 19.02,12.3906 49,30.418 78.98,42.4102 0,0 26.81,-34.4297 58.63,-25.2618 31.84,9.1719 64.82,28.5703 64.82,28.5703"
         style="fill:#545ece;fill-opacity:1;fill-rule:nonzero;stroke:none"
         id="path434" />
      <path
         d="m 6110.89,2309.84 -18.01,56.23 v 59.92 h -15.01 l -5.01,-45.09 -82.06,96.07 -11.02,-11.01 51.05,-72.55 h -8.01 l -69.05,60.2 -8.01,-8.66 67.05,-66.06 -62.05,53.83 -5,-13.8 59.04,-52.85 h -7 l -52.04,43.85 -7,-11.01 77.06,-76.06 56.39,-43.96 38.68,30.95"
         style="fill:#ffb7b0;fill-opacity:1;fill-rule:nonzero;stroke:none"
         id="path436" />
      <path
         d="m 6175.89,2725.09 -20.96,24.1 v 116.09 h -19.02 l -10,-50.04 -31.03,43.03 -6,-126.09 37.51,-50.59 49.5,43.5"
         style="fill:#ffb7b0;fill-opacity:1;fill-rule:nonzero;stroke:none"
         id="path438" />
      <path
         d="m 6117.88,2748.19 c -2.36,0 -4.47,1.7 -4.91,4.11 -4.16,22.93 7.63,62.7 8.14,64.38 0.79,2.63 3.57,4.12 6.22,3.35 2.65,-0.79 4.15,-3.58 3.35,-6.22 -0.11,-0.39 -11.6,-39.15 -7.87,-59.73 0.49,-2.72 -1.31,-5.32 -4.03,-5.81 -0.29,-0.05 -0.6,-0.08 -0.9,-0.08"
         style="fill:#ff988e;fill-opacity:1;fill-rule:nonzero;stroke:none"
         id="path440" />
      <path
         d="m 6438.02,773.73 18.06,-254.238 37.48,-432.0701 -44.09,-23.1406 c 0,0 8.82,-19.8399 39.68,-26.461 30.86,-6.6094 83.77,29.7695 83.77,29.7695 l 1.76,47.6912 28.24,652.52 -164.9,5.929"
         style="fill:#ffb7b0;fill-opacity:1;fill-rule:nonzero;stroke:none"
         id="path442" />
      <path
         d="m 6545.12,2490.33 c -1.37,-4.42 -5.38,-7.1 -8.95,-6 -3.57,1.11 -5.35,5.59 -3.98,10.01 1.36,4.41 5.37,7.1 8.94,5.99 3.58,-1.11 5.35,-5.59 3.99,-10"
         style="fill:#464646;fill-opacity:1;fill-rule:nonzero;stroke:none"
         id="path444" />
      <path
         d="m 6532.9,2521.81 c 2.8,2.28 6.09,3.17 9.37,3.38 3.31,0.26 6.66,-0.48 9.83,-1.82 3.11,-1.44 5.97,-3.78 7.84,-6.75 2,-2.86 2.73,-6.53 2.12,-9.97 -3.21,1.77 -5.33,3.33 -7.66,4.47 -2.28,1.1 -4.23,2.3 -6.49,3.18 -4.39,2.12 -9.04,3.91 -15.01,7.51"
         style="fill:#6c60b7;fill-opacity:1;fill-rule:nonzero;stroke:none"
         id="path446" />
      <path
         d="m 6524.5,2552.77 c 0,0 33.09,2.51 38.71,18.14 l -10.14,27.67 c 0,0 -25.41,-20.2 -28.57,-45.81"
         style="fill:#6c60b7;fill-opacity:1;fill-rule:nonzero;stroke:none"
         id="path448" />
      <path
         d="m 6501.77,2402.87 c -4.1,0 -7.96,1 -10.66,2.15 -1.51,0.65 -2.22,2.41 -1.57,3.93 0.63,1.53 2.4,2.22 3.93,1.59 0.6,-0.26 14.97,-6.13 20.5,5.99 0.68,1.51 2.45,2.17 3.98,1.48 1.5,-0.69 2.17,-2.47 1.47,-3.97 -3.91,-8.61 -11.08,-11.17 -17.65,-11.17"
         style="fill:#464646;fill-opacity:1;fill-rule:nonzero;stroke:none"
         id="path450" />
      <path
         d="m 6550.43,2492.81 c -0.36,0 -0.71,0.09 -1.05,0.29 l -16.36,10 c -0.94,0.57 -1.24,1.81 -0.67,2.75 0.59,0.94 1.81,1.22 2.76,0.67 l 16.36,-10 c 0.94,-0.58 1.24,-1.82 0.67,-2.76 -0.38,-0.61 -1.04,-0.95 -1.71,-0.95"
         style="fill:#464646;fill-opacity:1;fill-rule:nonzero;stroke:none"
         id="path452" />
    </g>
  </g>
</svg>
